<?xml version="1.0" encoding="UTF-8"?>
<!--Generator: Apple Native CoreSVG 129-->
<!DOCTYPE svg
PUBLIC "-//W3C//DTD SVG 1.1//EN"
       "http://www.w3.org/Graphics/SVG/1.1/DTD/svg11.dtd">
<svg version="1.1" xmlns="http://www.w3.org/2000/svg" xmlns:xlink="http://www.w3.org/1999/xlink" width="3300" height="2200">
 <!--glyph: "uni10043F.medium", point size: 100.000000, font version: "Version 16.0d9e1", template writer version: "8"-->
 <g id="Notes">
  <rect height="2200" id="artboard" style="fill:white;opacity:1" width="3300" x="0" y="0"/>
  <line id="" style="fill:none;stroke:black;opacity:1;stroke-width:0.5;" x1="263" x2="3036" y1="292" y2="292"/>
  <text style="stroke:none;fill:black;font-family:-apple-system,&quot;SF Pro Display&quot;,&quot;SF Pro Text&quot;,Helvetica,sans-serif;font-weight:bold;" transform="matrix(1 0 0 1 263 322)">Weight/Scale Variations</text>
  <text style="stroke:none;fill:black;font-family:-apple-system,&quot;SF Pro Display&quot;,&quot;SF Pro Text&quot;,Helvetica,sans-serif;text-anchor:middle;" transform="matrix(1 0 0 1 559.711 322)">Ultralight</text>
  <text style="stroke:none;fill:black;font-family:-apple-system,&quot;SF Pro Display&quot;,&quot;SF Pro Text&quot;,Helvetica,sans-serif;text-anchor:middle;" transform="matrix(1 0 0 1 856.422 322)">Thin</text>
  <text style="stroke:none;fill:black;font-family:-apple-system,&quot;SF Pro Display&quot;,&quot;SF Pro Text&quot;,Helvetica,sans-serif;text-anchor:middle;" transform="matrix(1 0 0 1 1153.13 322)">Light</text>
  <text style="stroke:none;fill:black;font-family:-apple-system,&quot;SF Pro Display&quot;,&quot;SF Pro Text&quot;,Helvetica,sans-serif;text-anchor:middle;" transform="matrix(1 0 0 1 1449.84 322)">Regular</text>
  <text style="stroke:none;fill:black;font-family:-apple-system,&quot;SF Pro Display&quot;,&quot;SF Pro Text&quot;,Helvetica,sans-serif;text-anchor:middle;" transform="matrix(1 0 0 1 1746.56 322)">Medium</text>
  <text style="stroke:none;fill:black;font-family:-apple-system,&quot;SF Pro Display&quot;,&quot;SF Pro Text&quot;,Helvetica,sans-serif;text-anchor:middle;" transform="matrix(1 0 0 1 2043.27 322)">Semibold</text>
  <text style="stroke:none;fill:black;font-family:-apple-system,&quot;SF Pro Display&quot;,&quot;SF Pro Text&quot;,Helvetica,sans-serif;text-anchor:middle;" transform="matrix(1 0 0 1 2339.98 322)">Bold</text>
  <text style="stroke:none;fill:black;font-family:-apple-system,&quot;SF Pro Display&quot;,&quot;SF Pro Text&quot;,Helvetica,sans-serif;text-anchor:middle;" transform="matrix(1 0 0 1 2636.69 322)">Heavy</text>
  <text style="stroke:none;fill:black;font-family:-apple-system,&quot;SF Pro Display&quot;,&quot;SF Pro Text&quot;,Helvetica,sans-serif;text-anchor:middle;" transform="matrix(1 0 0 1 2933.4 322)">Black</text>
  <line id="" style="fill:none;stroke:black;opacity:1;stroke-width:0.5;" x1="263" x2="3036" y1="1903" y2="1903"/>
  <g id="" transform="matrix(1 0 0 1 263 1933)">
   <path d="M 9.24805 0.830078 C 13.5547 0.830078 17.1387 -2.74414 17.1387 -7.05078 C 17.1387 -11.3574 13.5449 -14.9316 9.23828 -14.9316 C 4.94141 -14.9316 1.36719 -11.3574 1.36719 -7.05078 C 1.36719 -2.74414 4.95117 0.830078 9.24805 0.830078 Z M 9.24805 -0.654297 C 5.70312 -0.654297 2.87109 -3.49609 2.87109 -7.05078 C 2.87109 -10.6055 5.69336 -13.4473 9.23828 -13.4473 C 12.793 -13.4473 15.6348 -10.6055 15.6445 -7.05078 C 15.6543 -3.49609 12.8027 -0.654297 9.24805 -0.654297 Z M 9.22852 -3.62305 C 9.69727 -3.62305 9.9707 -3.93555 9.9707 -4.45312 L 9.9707 -6.31836 L 12.002 -6.31836 C 12.5 -6.31836 12.832 -6.57227 12.832 -7.04102 C 12.832 -7.51953 12.5195 -7.7832 12.002 -7.7832 L 9.9707 -7.7832 L 9.9707 -9.81445 C 9.9707 -10.332 9.69727 -10.6543 9.22852 -10.6543 C 8.75977 -10.6543 8.50586 -10.3125 8.50586 -9.81445 L 8.50586 -7.7832 L 6.49414 -7.7832 C 5.97656 -7.7832 5.64453 -7.51953 5.64453 -7.04102 C 5.64453 -6.57227 5.99609 -6.31836 6.49414 -6.31836 L 8.50586 -6.31836 L 8.50586 -4.45312 C 8.50586 -3.95508 8.75977 -3.62305 9.22852 -3.62305 Z"/>
  </g>
  <g id="" transform="matrix(1 0 0 1 281.506 1933)">
   <path d="M 11.709 2.91016 C 17.1582 2.91016 21.6699 -1.61133 21.6699 -7.05078 C 21.6699 -12.5 17.1484 -17.0117 11.6992 -17.0117 C 6.25977 -17.0117 1.74805 -12.5 1.74805 -7.05078 C 1.74805 -1.61133 6.26953 2.91016 11.709 2.91016 Z M 11.709 1.25 C 7.09961 1.25 3.41797 -2.44141 3.41797 -7.05078 C 3.41797 -11.6602 7.08984 -15.3516 11.6992 -15.3516 C 16.3086 -15.3516 20 -11.6602 20.0098 -7.05078 C 20.0195 -2.44141 16.3184 1.25 11.709 1.25 Z M 11.6797 -2.66602 C 12.207 -2.66602 12.5098 -3.01758 12.5098 -3.59375 L 12.5098 -6.23047 L 15.3223 -6.23047 C 15.8691 -6.23047 16.25 -6.51367 16.25 -7.03125 C 16.25 -7.55859 15.8887 -7.86133 15.3223 -7.86133 L 12.5098 -7.86133 L 12.5098 -10.6836 C 12.5098 -11.25 12.207 -11.6113 11.6797 -11.6113 C 11.1621 -11.6113 10.8789 -11.2305 10.8789 -10.6836 L 10.8789 -7.86133 L 8.07617 -7.86133 C 7.50977 -7.86133 7.13867 -7.55859 7.13867 -7.03125 C 7.13867 -6.51367 7.5293 -6.23047 8.07617 -6.23047 L 10.8789 -6.23047 L 10.8789 -3.59375 C 10.8789 -3.03711 11.1621 -2.66602 11.6797 -2.66602 Z"/>
  </g>
  <g id="" transform="matrix(1 0 0 1 304.924 1933)">
   <path d="M 14.9707 5.66406 C 21.9336 5.66406 27.6953 -0.0976562 27.6953 -7.05078 C 27.6953 -14.0137 21.9238 -19.7754 14.9609 -19.7754 C 8.00781 -19.7754 2.25586 -14.0137 2.25586 -7.05078 C 2.25586 -0.0976562 8.01758 5.66406 14.9707 5.66406 Z M 14.9707 3.84766 C 8.93555 3.84766 4.08203 -1.01562 4.08203 -7.05078 C 4.08203 -13.0957 8.92578 -17.9492 14.9609 -17.9492 C 21.0059 -17.9492 25.8594 -13.0957 25.8691 -7.05078 C 25.8789 -1.01562 21.0156 3.84766 14.9707 3.84766 Z M 14.9414 -1.38672 C 15.5176 -1.38672 15.8594 -1.77734 15.8594 -2.38281 L 15.8594 -6.13281 L 19.7754 -6.13281 C 20.3711 -6.13281 20.7812 -6.46484 20.7812 -7.02148 C 20.7812 -7.59766 20.3906 -7.93945 19.7754 -7.93945 L 15.8594 -7.93945 L 15.8594 -11.8652 C 15.8594 -12.4805 15.5176 -12.8711 14.9414 -12.8711 C 14.375 -12.8711 14.0527 -12.4609 14.0527 -11.8652 L 14.0527 -7.93945 L 10.1465 -7.93945 C 9.53125 -7.93945 9.13086 -7.59766 9.13086 -7.02148 C 9.13086 -6.46484 9.55078 -6.13281 10.1465 -6.13281 L 14.0527 -6.13281 L 14.0527 -2.38281 C 14.0527 -1.79688 14.375 -1.38672 14.9414 -1.38672 Z"/>
  </g>
  <text style="stroke:none;fill:black;font-family:-apple-system,&quot;SF Pro Display&quot;,&quot;SF Pro Text&quot;,Helvetica,sans-serif;font-weight:bold;" transform="matrix(1 0 0 1 263 1953)">Design Variations</text>
  <text style="stroke:none;fill:black;font-family:-apple-system,&quot;SF Pro Display&quot;,&quot;SF Pro Text&quot;,Helvetica,sans-serif;" transform="matrix(1 0 0 1 263 1971)">Symbols are supported in up to nine weights and three scales.</text>
  <text style="stroke:none;fill:black;font-family:-apple-system,&quot;SF Pro Display&quot;,&quot;SF Pro Text&quot;,Helvetica,sans-serif;" transform="matrix(1 0 0 1 263 1989)">For optimal layout with text and other symbols, vertically align</text>
  <text style="stroke:none;fill:black;font-family:-apple-system,&quot;SF Pro Display&quot;,&quot;SF Pro Text&quot;,Helvetica,sans-serif;" transform="matrix(1 0 0 1 263 2007)">symbols with the adjacent text.</text>
  <line id="" style="fill:none;stroke:#00AEEF;stroke-width:0.5;opacity:1.0;" x1="776" x2="776" y1="1919" y2="1933"/>
  <g id="" transform="matrix(1 0 0 1 776 1933)">
   <path d="M 3.31055 0.126953 C 3.82812 0.126953 4.08203 -0.0683594 4.26758 -0.605469 L 5.52734 -4.0625 L 11.2891 -4.0625 L 12.5488 -0.605469 C 12.7344 -0.0683594 12.9883 0.126953 13.4961 0.126953 C 14.0137 0.126953 14.3457 -0.185547 14.3457 -0.673828 C 14.3457 -0.839844 14.3164 -0.986328 14.2383 -1.20117 L 9.6582 -13.3887 C 9.43359 -13.9941 9.0332 -14.2871 8.4082 -14.2871 C 7.80273 -14.2871 7.39258 -13.9941 7.17773 -13.3984 L 2.59766 -1.19141 C 2.51953 -0.976562 2.49023 -0.830078 2.49023 -0.664062 C 2.49023 -0.175781 2.80273 0.126953 3.31055 0.126953 Z M 6.00586 -5.53711 L 8.37891 -12.1094 L 8.42773 -12.1094 L 10.8008 -5.53711 Z"/>
  </g>
  <line id="" style="fill:none;stroke:#00AEEF;stroke-width:0.5;opacity:1.0;" x1="792.836" x2="792.836" y1="1919" y2="1933"/>
  <text style="stroke:none;fill:black;font-family:-apple-system,&quot;SF Pro Display&quot;,&quot;SF Pro Text&quot;,Helvetica,sans-serif;font-weight:bold;" transform="matrix(1 0 0 1 776 1953)">Margins</text>
  <text style="stroke:none;fill:black;font-family:-apple-system,&quot;SF Pro Display&quot;,&quot;SF Pro Text&quot;,Helvetica,sans-serif;" transform="matrix(1 0 0 1 776 1971)">Leading and trailing margins on the left and right side of each symbol</text>
  <text style="stroke:none;fill:black;font-family:-apple-system,&quot;SF Pro Display&quot;,&quot;SF Pro Text&quot;,Helvetica,sans-serif;" transform="matrix(1 0 0 1 776 1989)">can be adjusted by modifying the x-location of the margin guidelines.</text>
  <text style="stroke:none;fill:black;font-family:-apple-system,&quot;SF Pro Display&quot;,&quot;SF Pro Text&quot;,Helvetica,sans-serif;" transform="matrix(1 0 0 1 776 2007)">Modifications are automatically applied proportionally to all</text>
  <text style="stroke:none;fill:black;font-family:-apple-system,&quot;SF Pro Display&quot;,&quot;SF Pro Text&quot;,Helvetica,sans-serif;" transform="matrix(1 0 0 1 776 2025)">scales and weights.</text>
  <g id="" transform="matrix(1 0 0 1 1289 1933)">
   <path d="M 2.8418 1.86523 L 4.54102 3.57422 C 5.40039 4.44336 6.38672 4.38477 7.31445 3.35938 L 17.4902 -7.85156 C 17.7539 -7.76367 18.0273 -7.7832 18.3398 -7.8418 L 19.4043 -8.03711 L 20.0684 -7.36328 L 20.0293 -6.80664 C 19.9902 -6.30859 20.1172 -5.92773 20.6055 -5.44922 L 21.3672 -4.70703 C 21.8457 -4.22852 22.4609 -4.19922 22.9297 -4.66797 L 25.8398 -7.58789 C 26.3086 -8.05664 26.2891 -8.65234 25.8105 -9.13086 L 25.0391 -9.89258 C 24.5605 -10.3711 24.1895 -10.5273 23.7109 -10.4883 L 23.1348 -10.4395 L 22.4902 -11.0742 L 22.7344 -12.1973 C 22.8613 -12.7637 22.7051 -13.2031 22.1191 -13.7891 L 19.9219 -15.9766 C 16.582 -19.2969 12.1484 -19.2188 9.25781 -16.3281 C 8.83789 -15.918 8.80859 -15.3418 9.04297 -14.9512 C 9.27734 -14.5898 9.73633 -14.3555 10.3809 -14.5215 C 11.8457 -14.8633 13.3691 -14.9219 14.7949 -13.9844 L 14.209 -12.5293 C 14.0137 -12.0508 13.9844 -11.6504 14.1113 -11.2891 L 3.04688 -0.898438 C 2.06055 0.0195312 1.98242 0.996094 2.8418 1.86523 Z M 10.752 -15.957 C 13.1836 -17.7344 16.4746 -17.4316 18.7012 -15.2051 L 21.1328 -12.793 C 21.3672 -12.5586 21.4062 -12.373 21.3379 -12.0312 L 21.0156 -10.5469 L 22.5195 -9.0625 L 23.5059 -9.12109 C 23.7598 -9.13086 23.8379 -9.11133 24.0332 -8.91602 L 24.6094 -8.33984 L 22.168 -5.89844 L 21.5918 -6.47461 C 21.3965 -6.66992 21.3672 -6.74805 21.377 -7.01172 L 21.4453 -7.98828 L 19.9512 -9.47266 L 18.4277 -9.21875 C 18.1055 -9.15039 17.959 -9.17969 17.7148 -9.41406 L 15.7129 -11.416 C 15.459 -11.6504 15.4297 -11.8164 15.5859 -12.1875 L 16.4648 -14.2773 C 14.9023 -15.7324 12.8711 -16.3574 10.8398 -15.7617 C 10.6836 -15.7227 10.625 -15.8496 10.752 -15.957 Z M 5.27344 2.30469 L 4.10156 1.14258 C 3.63281 0.683594 3.74023 0.341797 4.14062 -0.0195312 L 14.9512 -10.1953 L 16.416 -8.71094 L 6.42578 2.27539 C 6.07422 2.67578 5.74219 2.77344 5.27344 2.30469 Z"/>
  </g>
  <text style="stroke:none;fill:black;font-family:-apple-system,&quot;SF Pro Display&quot;,&quot;SF Pro Text&quot;,Helvetica,sans-serif;font-weight:bold;" transform="matrix(1 0 0 1 1289 1953)">Exporting</text>
  <text style="stroke:none;fill:black;font-family:-apple-system,&quot;SF Pro Display&quot;,&quot;SF Pro Text&quot;,Helvetica,sans-serif;" transform="matrix(1 0 0 1 1289 1971)">Symbols should be outlined when exporting to ensure the</text>
  <text style="stroke:none;fill:black;font-family:-apple-system,&quot;SF Pro Display&quot;,&quot;SF Pro Text&quot;,Helvetica,sans-serif;" transform="matrix(1 0 0 1 1289 1989)">design is preserved when submitting to Xcode.</text>
  <text id="template-version" style="stroke:none;fill:black;font-family:-apple-system,&quot;SF Pro Display&quot;,&quot;SF Pro Text&quot;,Helvetica,sans-serif;text-anchor:end;" transform="matrix(1 0 0 1 3036 1933)">Template v.2.0</text>
  <text style="stroke:none;fill:black;font-family:-apple-system,&quot;SF Pro Display&quot;,&quot;SF Pro Text&quot;,Helvetica,sans-serif;text-anchor:end;" transform="matrix(1 0 0 1 3036 1951)">Requires Xcode 12 or greater</text>
  <text style="stroke:none;fill:black;font-family:-apple-system,&quot;SF Pro Display&quot;,&quot;SF Pro Text&quot;,Helvetica,sans-serif;text-anchor:end;" transform="matrix(1 0 0 1 3036 1969)">Generated from chart.bar.fill</text>
  <text style="stroke:none;fill:black;font-family:-apple-system,&quot;SF Pro Display&quot;,&quot;SF Pro Text&quot;,Helvetica,sans-serif;text-anchor:end;" transform="matrix(1 0 0 1 3036 1987)">Typeset at 100 points</text>
  <text style="stroke:none;fill:black;font-family:-apple-system,&quot;SF Pro Display&quot;,&quot;SF Pro Text&quot;,Helvetica,sans-serif;" transform="matrix(1 0 0 1 263 726)">Small</text>
  <text style="stroke:none;fill:black;font-family:-apple-system,&quot;SF Pro Display&quot;,&quot;SF Pro Text&quot;,Helvetica,sans-serif;" transform="matrix(1 0 0 1 263 1156)">Medium</text>
  <text style="stroke:none;fill:black;font-family:-apple-system,&quot;SF Pro Display&quot;,&quot;SF Pro Text&quot;,Helvetica,sans-serif;" transform="matrix(1 0 0 1 263 1586)">Large</text>
 </g>
 <g id="Guides">
  <g id="H-reference" style="fill:#27AAE1;stroke:none;" transform="matrix(1 0 0 1 339 696)">
   <path d="M 0.976562 0 L 3.66211 0 L 12.9883 -24.4629 L 45.7031 -24.4629 L 55.0781 0 L 57.7148 0 L 30.6152 -70.459 L 28.125 -70.459 Z M 29.2969 -67.1387 L 29.3945 -67.1387 L 44.873 -26.709 L 13.8672 -26.709 Z"/>
  </g>
  <line id="Baseline-S" style="fill:none;stroke:#27AAE1;opacity:1;stroke-width:0.5;" x1="263" x2="3036" y1="696" y2="696"/>
  <line id="Capline-S" style="fill:none;stroke:#27AAE1;opacity:1;stroke-width:0.5;" x1="263" x2="3036" y1="625.541" y2="625.541"/>
  <g id="H-reference" style="fill:#27AAE1;stroke:none;" transform="matrix(1 0 0 1 339 1126)">
   <path d="M 0.976562 0 L 3.66211 0 L 12.9883 -24.4629 L 45.7031 -24.4629 L 55.0781 0 L 57.7148 0 L 30.6152 -70.459 L 28.125 -70.459 Z M 29.2969 -67.1387 L 29.3945 -67.1387 L 44.873 -26.709 L 13.8672 -26.709 Z"/>
  </g>
  <line id="Baseline-M" style="fill:none;stroke:#27AAE1;opacity:1;stroke-width:0.5;" x1="263" x2="3036" y1="1126" y2="1126"/>
  <line id="Capline-M" style="fill:none;stroke:#27AAE1;opacity:1;stroke-width:0.5;" x1="263" x2="3036" y1="1055.54" y2="1055.54"/>
  <g id="H-reference" style="fill:#27AAE1;stroke:none;" transform="matrix(1 0 0 1 339 1556)">
   <path d="M 0.976562 0 L 3.66211 0 L 12.9883 -24.4629 L 45.7031 -24.4629 L 55.0781 0 L 57.7148 0 L 30.6152 -70.459 L 28.125 -70.459 Z M 29.2969 -67.1387 L 29.3945 -67.1387 L 44.873 -26.709 L 13.8672 -26.709 Z"/>
  </g>
  <line id="Baseline-L" style="fill:none;stroke:#27AAE1;opacity:1;stroke-width:0.5;" x1="263" x2="3036" y1="1556" y2="1556"/>
  <line id="Capline-L" style="fill:none;stroke:#27AAE1;opacity:1;stroke-width:0.5;" x1="263" x2="3036" y1="1485.54" y2="1485.54"/>
  <line id="left-margin" style="fill:none;stroke:#00AEEF;stroke-width:0.5;opacity:1.0;" x1="1376.04" x2="1376.04" y1="1030.79" y2="1150.12"/>
  <line id="right-margin" style="fill:none;stroke:#00AEEF;stroke-width:0.5;opacity:1.0;" x1="1523.65" x2="1523.65" y1="1030.79" y2="1150.12"/>
 </g>
 <g id="Symbols">
  <g id="Black-L" transform="matrix(1 0 0 1 2827.27 1556)">
   <path d="M 162.158 25.5371 L 177.148 25.5371 C 189.111 25.5371 196.191 18.3105 196.191 6.88477 L 196.191 -77.1484 C 196.191 -88.5742 189.111 -95.8008 177.148 -95.8008 L 162.158 -95.8008 C 150.244 -95.8008 143.164 -88.5742 143.164 -77.0996 L 143.164 6.88477 C 143.164 18.3105 150.244 25.5371 162.158 25.5371 Z M 98.584 25.5371 L 113.623 25.5371 C 125.537 25.5371 132.617 18.3105 132.617 6.88477 L 132.617 -58.8379 C 132.617 -70.2637 125.537 -77.4902 113.623 -77.4902 L 98.584 -77.4902 C 86.6699 -77.4902 79.5898 -70.2637 79.5898 -58.7891 L 79.5898 6.88477 C 79.5898 18.3105 86.6699 25.5371 98.584 25.5371 Z M 35.0586 25.5371 L 50.0488 25.5371 C 62.0117 25.5371 69.0918 18.3105 69.0918 6.88477 L 69.0918 -40.1855 C 69.0918 -51.5625 62.0117 -58.7891 50.0488 -58.7891 L 35.0586 -58.7891 C 23.1445 -58.7891 16.0645 -51.5625 16.0645 -40.0879 L 16.0645 6.88477 C 16.0645 18.3105 23.1445 25.5371 35.0586 25.5371 Z"/>
  </g>
  <g id="Heavy-L" transform="matrix(1 0 0 1 2533.37 1556)">
   <path d="M 157.178 24.9512 L 173.096 24.9512 C 184.18 24.9512 190.576 18.5059 190.576 7.91016 L 190.576 -78.418 C 190.576 -89.0137 184.18 -95.459 173.096 -95.459 L 157.178 -95.459 C 146.143 -95.459 139.746 -89.0137 139.746 -78.3691 L 139.746 7.91016 C 139.746 18.5059 146.143 24.9512 157.178 24.9512 Z M 95.3613 24.9512 L 111.279 24.9512 C 122.363 24.9512 128.76 18.5059 128.76 7.91016 L 128.76 -60.0586 C 128.76 -70.6543 122.363 -77.1484 111.279 -77.1484 L 95.3613 -77.1484 C 84.2773 -77.1484 77.8809 -70.6543 77.8809 -60.0098 L 77.8809 7.91016 C 77.8809 18.5059 84.2773 24.9512 95.3613 24.9512 Z M 33.4961 24.9512 L 49.4629 24.9512 C 60.498 24.9512 66.8945 18.5059 66.8945 7.91016 L 66.8945 -41.5039 C 66.8945 -52.0996 60.498 -58.5938 49.4629 -58.5938 L 33.4961 -58.5938 C 22.4609 -58.5938 16.0645 -52.0996 16.0645 -41.4551 L 16.0645 7.91016 C 16.0645 18.5059 22.4609 24.9512 33.4961 24.9512 Z"/>
  </g>
  <g id="Bold-L" transform="matrix(1 0 0 1 2239.78 1556)">
   <path d="M 151.611 24.3164 L 168.555 24.3164 C 178.662 24.3164 184.326 18.7012 184.326 8.98438 L 184.326 -79.7852 C 184.326 -89.4531 178.662 -95.1172 168.555 -95.1172 L 151.611 -95.1172 C 141.553 -95.1172 135.889 -89.4531 135.889 -79.7363 L 135.889 8.98438 C 135.889 18.7012 141.553 24.3164 151.611 24.3164 Z M 91.6992 24.3164 L 108.643 24.3164 C 118.75 24.3164 124.414 18.7012 124.414 8.98438 L 124.414 -61.4258 C 124.414 -71.1426 118.75 -76.7578 108.643 -76.7578 L 91.6992 -76.7578 C 81.6406 -76.7578 75.9766 -71.1426 75.9766 -61.4258 L 75.9766 8.98438 C 75.9766 18.7012 81.6406 24.3164 91.6992 24.3164 Z M 31.7871 24.3164 L 48.7305 24.3164 C 58.8379 24.3164 64.502 18.7012 64.502 8.98438 L 64.502 -43.0176 C 64.502 -52.7344 58.8379 -58.3496 48.7305 -58.3496 L 31.7871 -58.3496 C 21.7285 -58.3496 16.0645 -52.7344 16.0645 -42.9688 L 16.0645 8.98438 C 16.0645 18.7012 21.7285 24.3164 31.7871 24.3164 Z"/>
  </g>
  <g id="Semibold-L" transform="matrix(1 0 0 1 1945.24 1556)">
   <path d="M 147.754 23.877 L 165.43 23.877 C 174.854 23.877 179.98 18.8477 179.98 9.76562 L 179.98 -80.7129 C 179.98 -89.7949 174.854 -94.8242 165.43 -94.8242 L 147.754 -94.8242 C 138.379 -94.8242 133.252 -89.7949 133.252 -80.7129 L 133.252 9.76562 C 133.252 18.8477 138.379 23.877 147.754 23.877 Z M 89.1602 23.877 L 106.836 23.877 C 116.26 23.877 121.387 18.8477 121.387 9.76562 L 121.387 -62.4023 C 121.387 -71.4844 116.26 -76.5137 106.836 -76.5137 L 89.1602 -76.5137 C 79.7852 -76.5137 74.6582 -71.4844 74.6582 -62.3535 L 74.6582 9.76562 C 74.6582 18.8477 79.7852 23.877 89.1602 23.877 Z M 30.5664 23.877 L 48.2422 23.877 C 57.666 23.877 62.793 18.8477 62.793 9.76562 L 62.793 -44.043 C 62.793 -53.125 57.666 -58.1543 48.2422 -58.1543 L 30.5664 -58.1543 C 21.1914 -58.1543 16.0645 -53.125 16.0645 -44.043 L 16.0645 9.76562 C 16.0645 18.8477 21.1914 23.877 30.5664 23.877 Z"/>
  </g>
  <g id="Medium-L" transform="matrix(1 0 0 1 1650.17 1556)">
   <path d="M 144.824 23.584 L 163.037 23.584 C 171.973 23.584 176.709 18.9941 176.709 10.3516 L 176.709 -81.4453 C 176.709 -90.0391 171.973 -94.6289 163.037 -94.6289 L 144.824 -94.6289 C 135.986 -94.6289 131.25 -90.0391 131.25 -81.4453 L 131.25 10.3516 C 131.25 18.9941 135.986 23.584 144.824 23.584 Z M 87.2559 23.584 L 105.469 23.584 C 114.404 23.584 119.141 18.9941 119.141 10.3516 L 119.141 -63.1348 C 119.141 -71.7285 114.404 -76.3184 105.469 -76.3184 L 87.2559 -76.3184 C 78.3691 -76.3184 73.6328 -71.7285 73.6328 -63.0859 L 73.6328 10.3516 C 73.6328 18.9941 78.3691 23.584 87.2559 23.584 Z M 29.6875 23.584 L 47.9004 23.584 C 56.7871 23.584 61.5234 18.9941 61.5234 10.3516 L 61.5234 -44.8242 C 61.5234 -53.418 56.7871 -58.0566 47.9004 -58.0566 L 29.6875 -58.0566 C 20.8008 -58.0566 16.0645 -53.418 16.0645 -44.8242 L 16.0645 10.3516 C 16.0645 18.9941 20.8008 23.584 29.6875 23.584 Z"/>
  </g>
  <g id="Regular-L" transform="matrix(1 0 0 1 1355.58 1556)">
   <path d="M 141.064 23.1445 L 159.961 23.1445 C 168.213 23.1445 172.461 19.1406 172.461 11.1328 L 172.461 -82.373 C 172.461 -90.3809 168.213 -94.3848 159.961 -94.3848 L 141.064 -94.3848 C 132.861 -94.3848 128.613 -90.3809 128.613 -82.373 L 128.613 11.1328 C 128.613 19.1406 132.861 23.1445 141.064 23.1445 Z M 84.7656 23.1445 L 103.662 23.1445 C 111.963 23.1445 116.162 19.1406 116.162 11.1328 L 116.162 -64.0625 C 116.162 -72.0215 111.963 -76.0742 103.662 -76.0742 L 84.7656 -76.0742 C 76.5625 -76.0742 72.3633 -72.0215 72.3633 -64.0625 L 72.3633 11.1328 C 72.3633 19.1406 76.5625 23.1445 84.7656 23.1445 Z M 28.4668 23.1445 L 47.4121 23.1445 C 55.6641 23.1445 59.8633 19.1406 59.8633 11.1328 L 59.8633 -45.8496 C 59.8633 -53.8574 55.6641 -57.8613 47.4121 -57.8613 L 28.4668 -57.8613 C 20.2637 -57.8613 16.0645 -53.8574 16.0645 -45.8496 L 16.0645 11.1328 C 16.0645 19.1406 20.2637 23.1445 28.4668 23.1445 Z"/>
  </g>
  <g id="Light-L" transform="matrix(1 0 0 1 1060.21 1556)">
   <path d="M 139.111 22.998 L 158.203 22.998 C 165.869 22.998 169.775 19.2383 169.775 11.6211 L 169.775 -82.7148 C 169.775 -90.332 165.869 -94.1406 158.203 -94.1406 L 139.111 -94.1406 C 131.445 -94.1406 127.539 -90.332 127.539 -82.7148 L 127.539 11.6211 C 127.539 19.2383 131.445 22.998 139.111 22.998 Z M 83.3496 22.998 L 102.441 22.998 C 110.107 22.998 114.014 19.2383 114.014 11.6211 L 114.014 -64.4531 C 114.014 -72.0703 110.107 -75.8789 102.441 -75.8789 L 83.3496 -75.8789 C 75.7324 -75.8789 71.8262 -72.0703 71.8262 -64.4531 L 71.8262 11.6211 C 71.8262 19.2383 75.7324 22.998 83.3496 22.998 Z M 27.5879 22.998 L 46.7285 22.998 C 54.3945 22.998 58.3008 19.2383 58.3008 11.6211 L 58.3008 -46.4844 C 58.3008 -54.1016 54.3945 -57.8613 46.7285 -57.8613 L 27.5879 -57.8613 C 19.9707 -57.8613 16.0645 -54.1016 16.0645 -46.4844 L 16.0645 11.6211 C 16.0645 19.2383 19.9707 22.998 27.5879 22.998 Z"/>
  </g>
  <g id="Thin-L" transform="matrix(1 0 0 1 765.26 1556)">
   <path d="M 136.475 22.8516 L 155.908 22.8516 C 162.793 22.8516 166.26 19.3848 166.26 12.2559 L 166.26 -83.1543 C 166.26 -90.2832 162.793 -93.75 155.908 -93.75 L 136.475 -93.75 C 129.639 -93.75 126.123 -90.2832 126.123 -83.1543 L 126.123 12.2559 C 126.123 19.3848 129.639 22.8516 136.475 22.8516 Z M 81.4453 22.8516 L 100.83 22.8516 C 107.715 22.8516 111.23 19.3848 111.23 12.2559 L 111.23 -65.0391 C 111.23 -72.168 107.715 -75.6348 100.83 -75.6348 L 81.4453 -75.6348 C 74.6094 -75.6348 71.0938 -72.168 71.0938 -65.0391 L 71.0938 12.2559 C 71.0938 19.3848 74.6094 22.8516 81.4453 22.8516 Z M 26.416 22.8516 L 45.8008 22.8516 C 52.6855 22.8516 56.2012 19.3848 56.2012 12.2559 L 56.2012 -47.2656 C 56.2012 -54.3945 52.6855 -57.8613 45.8008 -57.8613 L 26.416 -57.8613 C 19.5312 -57.8613 16.0645 -54.3945 16.0645 -47.2656 L 16.0645 12.2559 C 16.0645 19.3848 19.5312 22.8516 26.416 22.8516 Z"/>
  </g>
  <g id="Ultralight-L" transform="matrix(1 0 0 1 469.452 1556)">
   <path d="M 135.156 22.7539 L 154.688 22.7539 C 161.182 22.7539 164.453 19.4336 164.453 12.5977 L 164.453 -83.3984 C 164.453 -90.2832 161.182 -93.5547 154.688 -93.5547 L 135.156 -93.5547 C 128.662 -93.5547 125.391 -90.2832 125.391 -83.3984 L 125.391 12.5977 C 125.391 19.4336 128.662 22.7539 135.156 22.7539 Z M 80.5176 22.7539 L 100.049 22.7539 C 106.494 22.7539 109.766 19.4336 109.766 12.5977 L 109.766 -65.332 C 109.766 -72.2168 106.494 -75.4883 100.049 -75.4883 L 80.5176 -75.4883 C 74.0234 -75.4883 70.752 -72.2168 70.752 -65.332 L 70.752 12.5977 C 70.752 19.4336 74.0234 22.7539 80.5176 22.7539 Z M 25.8301 22.7539 L 45.3613 22.7539 C 51.8555 22.7539 55.127 19.4336 55.127 12.5977 L 55.127 -47.7051 C 55.127 -54.5898 51.8555 -57.8613 45.3613 -57.8613 L 25.8301 -57.8613 C 19.3359 -57.8613 16.0645 -54.5898 16.0645 -47.7051 L 16.0645 12.5977 C 16.0645 19.4336 19.3359 22.7539 25.8301 22.7539 Z"/>
  </g>
  <g id="Black-M" transform="matrix(1 0 0 1 2848.1 1126)">
   <path d="M 131.348 12.5488 L 141.846 12.5488 C 151.953 12.5488 158.154 6.05469 158.154 -3.71094 L 158.154 -66.2598 C 158.154 -75.9766 151.953 -82.4707 141.846 -82.4707 L 131.348 -82.4707 C 121.24 -82.4707 114.99 -75.9766 114.99 -66.1621 L 114.99 -3.71094 C 114.99 6.05469 121.24 12.5488 131.348 12.5488 Z M 80.0781 12.5488 L 90.5762 12.5488 C 100.684 12.5488 106.885 6.05469 106.885 -3.71094 L 106.885 -52.0996 C 106.885 -61.8164 100.684 -68.3105 90.5762 -68.3105 L 80.0781 -68.3105 C 69.9707 -68.3105 63.7207 -61.8164 63.7207 -52.0508 L 63.7207 -3.71094 C 63.7207 6.05469 69.9707 12.5488 80.0781 12.5488 Z M 28.8086 12.5488 L 39.3066 12.5488 C 49.4141 12.5488 55.6152 6.05469 55.6152 -3.71094 L 55.6152 -37.5488 C 55.6152 -47.3145 49.4141 -53.8086 39.3066 -53.8086 L 28.8086 -53.8086 C 18.7012 -53.8086 12.4512 -47.3145 12.4512 -37.5 L 12.4512 -3.71094 C 12.4512 6.05469 18.7012 12.5488 28.8086 12.5488 Z"/>
  </g>
  <g id="Heavy-M" transform="matrix(1 0 0 1 2554.1 1126)">
   <path d="M 126.416 11.9629 L 137.842 11.9629 C 147.168 11.9629 152.734 6.25 152.734 -2.73438 L 152.734 -67.4805 C 152.734 -76.4648 147.168 -82.1777 137.842 -82.1777 L 126.416 -82.1777 C 117.09 -82.1777 111.523 -76.4648 111.523 -67.4316 L 111.523 -2.73438 C 111.523 6.25 117.09 11.9629 126.416 11.9629 Z M 76.8555 11.9629 L 88.3301 11.9629 C 97.6074 11.9629 103.223 6.25 103.223 -2.73438 L 103.223 -53.3203 C 103.223 -62.2559 97.6074 -68.0176 88.3301 -68.0176 L 76.8555 -68.0176 C 67.5781 -68.0176 62.0117 -62.2559 62.0117 -53.2715 L 62.0117 -2.73438 C 62.0117 6.25 67.5781 11.9629 76.8555 11.9629 Z M 27.3438 11.9629 L 38.7695 11.9629 C 48.0957 11.9629 53.6621 6.25 53.6621 -2.73438 L 53.6621 -38.8672 C 53.6621 -47.8027 48.0957 -53.5645 38.7695 -53.5645 L 27.3438 -53.5645 C 18.0176 -53.5645 12.4512 -47.8027 12.4512 -38.8184 L 12.4512 -2.73438 C 12.4512 6.25 18.0176 11.9629 27.3438 11.9629 Z"/>
  </g>
  <g id="Bold-M" transform="matrix(1 0 0 1 2260.41 1126)">
   <path d="M 120.898 11.3281 L 133.398 11.3281 C 141.846 11.3281 146.68 6.44531 146.68 -1.61133 L 146.68 -68.8965 C 146.68 -77.002 141.846 -81.8359 133.398 -81.8359 L 120.898 -81.8359 C 112.5 -81.8359 107.666 -77.002 107.666 -68.8965 L 107.666 -1.61133 C 107.666 6.44531 112.5 11.3281 120.898 11.3281 Z M 73.291 11.3281 L 85.791 11.3281 C 94.2383 11.3281 99.0723 6.44531 99.0723 -1.61133 L 99.0723 -54.6875 C 99.0723 -62.793 94.2383 -67.627 85.791 -67.627 L 73.291 -67.627 C 64.8926 -67.627 60.0586 -62.793 60.0586 -54.6875 L 60.0586 -1.61133 C 60.0586 6.44531 64.8926 11.3281 73.291 11.3281 Z M 25.6836 11.3281 L 38.2324 11.3281 C 46.6309 11.3281 51.4648 6.44531 51.4648 -1.61133 L 51.4648 -40.332 C 51.4648 -48.3887 46.6309 -53.2715 38.2324 -53.2715 L 25.6836 -53.2715 C 17.2852 -53.2715 12.4512 -48.3887 12.4512 -40.332 L 12.4512 -1.61133 C 12.4512 6.44531 17.2852 11.3281 25.6836 11.3281 Z"/>
  </g>
  <g id="Semibold-M" transform="matrix(1 0 0 1 1965.8 1126)">
   <path d="M 117.09 10.8398 L 130.322 10.8398 C 138.135 10.8398 142.48 6.5918 142.48 -0.878906 L 142.48 -69.873 C 142.48 -77.3438 138.135 -81.6406 130.322 -81.6406 L 117.09 -81.6406 C 109.277 -81.6406 104.98 -77.3438 104.98 -69.873 L 104.98 -0.878906 C 104.98 6.5918 109.277 10.8398 117.09 10.8398 Z M 70.8008 10.8398 L 84.082 10.8398 C 91.8945 10.8398 96.1914 6.5918 96.1914 -0.878906 L 96.1914 -55.6641 C 96.1914 -63.1348 91.8945 -67.3828 84.082 -67.3828 L 70.8008 -67.3828 C 63.0371 -67.3828 58.6914 -63.1348 58.6914 -55.6641 L 58.6914 -0.878906 C 58.6914 6.5918 63.0371 10.8398 70.8008 10.8398 Z M 24.5605 10.8398 L 37.793 10.8398 C 45.6055 10.8398 49.9512 6.5918 49.9512 -0.878906 L 49.9512 -41.3574 C 49.9512 -48.8281 45.6055 -53.0762 37.793 -53.0762 L 24.5605 -53.0762 C 16.7969 -53.0762 12.4512 -48.8281 12.4512 -41.3574 L 12.4512 -0.878906 C 12.4512 6.5918 16.7969 10.8398 24.5605 10.8398 Z"/>
  </g>
  <g id="Medium-M" transform="matrix(1 0 0 1 1670.68 1126)">
   <path d="M 114.209 10.498 L 128.027 10.498 C 135.352 10.498 139.307 6.68945 139.307 -0.292969 L 139.307 -70.6055 C 139.307 -77.6367 135.352 -81.4453 128.027 -81.4453 L 114.209 -81.4453 C 106.885 -81.4453 102.93 -77.6367 102.93 -70.6055 L 102.93 -0.292969 C 102.93 6.68945 106.885 10.498 114.209 10.498 Z M 68.9453 10.498 L 82.7637 10.498 C 90.0879 10.498 94.043 6.68945 94.043 -0.292969 L 94.043 -56.3965 C 94.043 -63.3789 90.0879 -67.2363 82.7637 -67.2363 L 68.9453 -67.2363 C 61.6211 -67.2363 57.7148 -63.3789 57.7148 -56.3477 L 57.7148 -0.292969 C 57.7148 6.68945 61.6211 10.498 68.9453 10.498 Z M 23.6816 10.498 L 37.5 10.498 C 44.873 10.498 48.8281 6.68945 48.8281 -0.292969 L 48.8281 -42.1387 C 48.8281 -49.1211 44.873 -52.9785 37.5 -52.9785 L 23.6816 -52.9785 C 16.4062 -52.9785 12.4512 -49.1211 12.4512 -42.0898 L 12.4512 -0.292969 C 12.4512 6.68945 16.4062 10.498 23.6816 10.498 Z"/>
  </g>
  <g id="Regular-M" transform="matrix(1 0 0 1 1376.04 1126)">
   <path d="M 110.4 10.0586 L 124.951 10.0586 C 131.689 10.0586 135.156 6.83594 135.156 0.439453 L 135.156 -71.582 C 135.156 -77.9785 131.689 -81.25 124.951 -81.25 L 110.4 -81.25 C 103.76 -81.25 100.293 -77.9785 100.293 -71.582 L 100.293 0.439453 C 100.293 6.83594 103.76 10.0586 110.4 10.0586 Z M 66.5039 10.0586 L 81.0547 10.0586 C 87.793 10.0586 91.2109 6.83594 91.2109 0.439453 L 91.2109 -57.3242 C 91.2109 -63.7207 87.793 -66.9922 81.0547 -66.9922 L 66.5039 -66.9922 C 59.8145 -66.9922 56.3477 -63.7207 56.3477 -57.3242 L 56.3477 0.439453 C 56.3477 6.83594 59.8145 10.0586 66.5039 10.0586 Z M 22.6074 10.0586 L 37.1094 10.0586 C 43.8477 10.0586 47.3145 6.83594 47.3145 0.439453 L 47.3145 -43.1152 C 47.3145 -49.5117 43.8477 -52.7832 37.1094 -52.7832 L 22.6074 -52.7832 C 15.918 -52.7832 12.4512 -49.5117 12.4512 -43.1152 L 12.4512 0.439453 C 12.4512 6.83594 15.918 10.0586 22.6074 10.0586 Z"/>
  </g>
  <g id="Light-M" transform="matrix(1 0 0 1 1080.53 1126)">
   <path d="M 108.691 9.96094 L 123.389 9.96094 C 129.59 9.96094 132.764 6.93359 132.764 0.878906 L 132.764 -71.875 C 132.764 -77.9785 129.59 -81.0059 123.389 -81.0059 L 108.691 -81.0059 C 102.49 -81.0059 99.3164 -77.9785 99.3164 -71.875 L 99.3164 0.878906 C 99.3164 6.93359 102.49 9.96094 108.691 9.96094 Z M 65.2344 9.96094 L 79.9805 9.96094 C 86.1816 9.96094 89.3066 6.93359 89.3066 0.878906 L 89.3066 -57.7148 C 89.3066 -63.7695 86.1816 -66.7969 79.9805 -66.7969 L 65.2344 -66.7969 C 59.0332 -66.7969 55.9082 -63.7695 55.9082 -57.7148 L 55.9082 0.878906 C 55.9082 6.93359 59.0332 9.96094 65.2344 9.96094 Z M 21.7773 9.96094 L 36.5234 9.96094 C 42.7246 9.96094 45.8984 6.93359 45.8984 0.878906 L 45.8984 -43.6523 C 45.8984 -49.7559 42.7246 -52.7832 36.5234 -52.7832 L 21.7773 -52.7832 C 15.625 -52.7832 12.4512 -49.7559 12.4512 -43.6523 L 12.4512 0.878906 C 12.4512 6.93359 15.625 9.96094 21.7773 9.96094 Z"/>
  </g>
  <g id="Thin-M" transform="matrix(1 0 0 1 785.402 1126)">
   <path d="M 106.348 9.81445 L 121.338 9.81445 C 126.807 9.81445 129.59 7.08008 129.59 1.41602 L 129.59 -72.2656 C 129.59 -77.9297 126.807 -80.6641 121.338 -80.6641 L 106.348 -80.6641 C 100.83 -80.6641 98.0469 -77.9297 98.0469 -72.2656 L 98.0469 1.41602 C 98.0469 7.08008 100.83 9.81445 106.348 9.81445 Z M 63.5254 9.81445 L 78.5156 9.81445 C 84.0332 9.81445 86.8164 7.08008 86.8164 1.41602 L 86.8164 -58.2031 C 86.8164 -63.8184 84.0332 -66.6016 78.5156 -66.6016 L 63.5254 -66.6016 C 58.0566 -66.6016 55.2734 -63.8184 55.2734 -58.2031 L 55.2734 1.41602 C 55.2734 7.08008 58.0566 9.81445 63.5254 9.81445 Z M 20.752 9.81445 L 35.6934 9.81445 C 41.2109 9.81445 43.9941 7.08008 43.9941 1.41602 L 43.9941 -44.3848 C 43.9941 -50 41.2109 -52.7832 35.6934 -52.7832 L 20.752 -52.7832 C 15.2344 -52.7832 12.4512 -50 12.4512 -44.3848 L 12.4512 1.41602 C 12.4512 7.08008 15.2344 9.81445 20.752 9.81445 Z"/>
  </g>
  <g id="Ultralight-M" transform="matrix(1 0 0 1 489.496 1126)">
   <path d="M 105.176 9.7168 L 120.264 9.7168 C 125.391 9.7168 127.979 7.12891 127.979 1.70898 L 127.979 -72.4609 C 127.979 -77.8809 125.391 -80.5176 120.264 -80.5176 L 105.176 -80.5176 C 100 -80.5176 97.4121 -77.8809 97.4121 -72.4609 L 97.4121 1.70898 C 97.4121 7.12891 100 9.7168 105.176 9.7168 Z M 62.6953 9.7168 L 77.7832 9.7168 C 82.9102 9.7168 85.498 7.12891 85.498 1.70898 L 85.498 -58.4473 C 85.498 -63.8672 82.9102 -66.4551 77.7832 -66.4551 L 62.6953 -66.4551 C 57.5195 -66.4551 54.9316 -63.8672 54.9316 -58.4473 L 54.9316 1.70898 C 54.9316 7.12891 57.5195 9.7168 62.6953 9.7168 Z M 20.2148 9.7168 L 35.3027 9.7168 C 40.4297 9.7168 43.0176 7.12891 43.0176 1.70898 L 43.0176 -44.7754 C 43.0176 -50.1465 40.4297 -52.7832 35.3027 -52.7832 L 20.2148 -52.7832 C 15.0391 -52.7832 12.4512 -50.1465 12.4512 -44.7754 L 12.4512 1.70898 C 12.4512 7.12891 15.0391 9.7168 20.2148 9.7168 Z"/>
  </g>
  <g id="Black-S" transform="matrix(1 0 0 1 2866.75 696)">
   <path d="M 102.539 2.14844 L 110.84 2.14844 C 118.701 2.14844 123.535 -2.88086 123.535 -10.4492 L 123.535 -59.6191 C 123.535 -67.1875 118.701 -72.2168 110.84 -72.2168 L 102.539 -72.2168 C 94.6777 -72.2168 89.8438 -67.1875 89.8438 -59.5703 L 89.8438 -10.4492 C 89.8438 -2.88086 94.6777 2.14844 102.539 2.14844 Z M 62.5 2.14844 L 70.8008 2.14844 C 78.6621 2.14844 83.4961 -2.88086 83.4961 -10.4492 L 83.4961 -48.5352 C 83.4961 -56.1035 78.6621 -61.1328 70.8008 -61.1328 L 62.5 -61.1328 C 54.6387 -61.1328 49.8047 -56.1035 49.8047 -48.4863 L 49.8047 -10.4492 C 49.8047 -2.88086 54.6387 2.14844 62.5 2.14844 Z M 22.4609 2.14844 L 30.7617 2.14844 C 38.623 2.14844 43.457 -2.88086 43.457 -10.4492 L 43.457 -37.1582 C 43.457 -44.7266 38.623 -49.7559 30.7617 -49.7559 L 22.4609 -49.7559 C 14.5996 -49.7559 9.76562 -44.7266 9.76562 -37.1094 L 9.76562 -10.4492 C 9.76562 -2.88086 14.5996 2.14844 22.4609 2.14844 Z"/>
  </g>
  <g id="Heavy-S" transform="matrix(1 0 0 1 2571.99 696)">
   <path d="M 98.9746 1.70898 L 107.959 1.70898 C 115.283 1.70898 119.629 -2.73438 119.629 -9.76562 L 119.629 -60.5469 C 119.629 -67.5781 115.283 -72.0215 107.959 -72.0215 L 98.9746 -72.0215 C 91.6504 -72.0215 87.3047 -67.5781 87.3047 -60.498 L 87.3047 -9.76562 C 87.3047 -2.73438 91.6504 1.70898 98.9746 1.70898 Z M 60.2051 1.70898 L 69.1895 1.70898 C 76.5137 1.70898 80.8594 -2.73438 80.8594 -9.76562 L 80.8594 -49.4141 C 80.8594 -56.4453 76.5137 -60.8887 69.1895 -60.8887 L 60.2051 -60.8887 C 52.8809 -60.8887 48.5352 -56.4453 48.5352 -49.4141 L 48.5352 -9.76562 C 48.5352 -2.73438 52.8809 1.70898 60.2051 1.70898 Z M 21.4355 1.70898 L 30.4199 1.70898 C 37.7441 1.70898 42.0898 -2.73438 42.0898 -9.76562 L 42.0898 -38.0859 C 42.0898 -45.1172 37.7441 -49.5605 30.4199 -49.5605 L 21.4355 -49.5605 C 14.1113 -49.5605 9.76562 -45.1172 9.76562 -38.0859 L 9.76562 -9.76562 C 9.76562 -2.73438 14.1113 1.70898 21.4355 1.70898 Z"/>
  </g>
  <g id="Bold-S" transform="matrix(1 0 0 1 2277.45 696)">
   <path d="M 94.9707 1.2207 L 104.785 1.2207 C 111.475 1.2207 115.283 -2.58789 115.283 -8.98438 L 115.283 -61.5723 C 115.283 -67.9688 111.475 -71.8262 104.785 -71.8262 L 94.9707 -71.8262 C 88.2812 -71.8262 84.4238 -67.9688 84.4238 -61.5723 L 84.4238 -8.98438 C 84.4238 -2.58789 88.2812 1.2207 94.9707 1.2207 Z M 57.6172 1.2207 L 67.4316 1.2207 C 74.1211 1.2207 77.9297 -2.58789 77.9297 -8.98438 L 77.9297 -50.4395 C 77.9297 -56.8359 74.1211 -60.6445 67.4316 -60.6445 L 57.6172 -60.6445 C 50.9277 -60.6445 47.1191 -56.8359 47.1191 -50.4395 L 47.1191 -8.98438 C 47.1191 -2.58789 50.9277 1.2207 57.6172 1.2207 Z M 20.2637 1.2207 L 30.0781 1.2207 C 36.7676 1.2207 40.625 -2.58789 40.625 -8.98438 L 40.625 -39.1602 C 40.625 -45.5078 36.7676 -49.3652 30.0781 -49.3652 L 20.2637 -49.3652 C 13.623 -49.3652 9.76562 -45.5078 9.76562 -39.1113 L 9.76562 -8.98438 C 9.76562 -2.58789 13.623 1.2207 20.2637 1.2207 Z"/>
  </g>
  <g id="Semibold-S" transform="matrix(1 0 0 1 1982.23 696)">
   <path d="M 92.1875 0.927734 L 102.539 0.927734 C 108.838 0.927734 112.305 -2.49023 112.305 -8.44727 L 112.305 -62.3047 C 112.305 -68.2617 108.838 -71.6797 102.539 -71.6797 L 92.1875 -71.6797 C 85.9375 -71.6797 82.4707 -68.2617 82.4707 -62.3047 L 82.4707 -8.44727 C 82.4707 -2.49023 85.9375 0.927734 92.1875 0.927734 Z M 55.8594 0.927734 L 66.2109 0.927734 C 72.4609 0.927734 75.9277 -2.49023 75.9277 -8.44727 L 75.9277 -51.123 C 75.9277 -57.0801 72.4609 -60.498 66.2109 -60.498 L 55.8594 -60.498 C 49.6094 -60.498 46.1426 -57.0801 46.1426 -51.123 L 46.1426 -8.44727 C 46.1426 -2.49023 49.6094 0.927734 55.8594 0.927734 Z M 19.4824 0.927734 L 29.834 0.927734 C 36.084 0.927734 39.5996 -2.49023 39.5996 -8.44727 L 39.5996 -39.8926 C 39.5996 -45.8008 36.084 -49.2188 29.834 -49.2188 L 19.4824 -49.2188 C 13.2324 -49.2188 9.76562 -45.8008 9.76562 -39.8438 L 9.76562 -8.44727 C 9.76562 -2.49023 13.2324 0.927734 19.4824 0.927734 Z"/>
  </g>
  <g id="Medium-S" transform="matrix(1 0 0 1 1686.67 696)">
   <path d="M 90.0879 0.634766 L 100.879 0.634766 C 106.836 0.634766 110.01 -2.44141 110.01 -8.00781 L 110.01 -62.8418 C 110.01 -68.457 106.836 -71.5332 100.879 -71.5332 L 90.0879 -71.5332 C 84.1797 -71.5332 81.0059 -68.457 81.0059 -62.8418 L 81.0059 -8.00781 C 81.0059 -2.44141 84.1797 0.634766 90.0879 0.634766 Z M 54.4922 0.634766 L 65.2344 0.634766 C 71.1914 0.634766 74.4141 -2.44141 74.4141 -8.00781 L 74.4141 -51.6602 C 74.4141 -57.2754 71.1914 -60.3516 65.2344 -60.3516 L 54.4922 -60.3516 C 48.584 -60.3516 45.3613 -57.2754 45.3613 -51.6602 L 45.3613 -8.00781 C 45.3613 -2.44141 48.584 0.634766 54.4922 0.634766 Z M 18.8965 0.634766 L 29.6387 0.634766 C 35.5957 0.634766 38.7695 -2.44141 38.7695 -8.00781 L 38.7695 -40.4297 C 38.7695 -46.0449 35.5957 -49.1211 29.6387 -49.1211 L 18.8965 -49.1211 C 12.9395 -49.1211 9.76562 -46.0449 9.76562 -40.4297 L 9.76562 -8.00781 C 9.76562 -2.44141 12.9395 0.634766 18.8965 0.634766 Z"/>
  </g>
  <g id="Regular-S" transform="matrix(1 0 0 1 1391.45 696)">
   <path d="M 87.3535 0.341797 L 98.6816 0.341797 C 104.199 0.341797 107.031 -2.34375 107.031 -7.51953 L 107.031 -63.5742 C 107.031 -68.75 104.199 -71.3867 98.6816 -71.3867 L 87.3535 -71.3867 C 81.8848 -71.3867 79.0527 -68.75 79.0527 -63.5742 L 79.0527 -7.51953 C 79.0527 -2.34375 81.8848 0.341797 87.3535 0.341797 Z M 52.7344 0.341797 L 64.0625 0.341797 C 69.5801 0.341797 72.4121 -2.34375 72.4121 -7.51953 L 72.4121 -52.3438 C 72.4121 -57.5195 69.5801 -60.1562 64.0625 -60.1562 L 52.7344 -60.1562 C 47.2656 -60.1562 44.3848 -57.5195 44.3848 -52.3438 L 44.3848 -7.51953 C 44.3848 -2.34375 47.2656 0.341797 52.7344 0.341797 Z M 18.0664 0.341797 L 29.3945 0.341797 C 34.9121 0.341797 37.7441 -2.34375 37.7441 -7.51953 L 37.7441 -41.1621 C 37.7441 -46.3379 34.9121 -48.9746 29.3945 -48.9746 L 18.0664 -48.9746 C 12.5977 -48.9746 9.76562 -46.3379 9.76562 -41.1621 L 9.76562 -7.51953 C 9.76562 -2.34375 12.5977 0.341797 18.0664 0.341797 Z"/>
  </g>
  <g id="Light-S" transform="matrix(1 0 0 1 1095.78 696)">
   <path d="M 85.8398 0.244141 L 97.2656 0.244141 C 102.344 0.244141 104.932 -2.24609 104.932 -7.12891 L 104.932 -63.8184 C 104.932 -68.7012 102.344 -71.1914 97.2656 -71.1914 L 85.8398 -71.1914 C 80.8105 -71.1914 78.2227 -68.7012 78.2227 -63.8184 L 78.2227 -7.12891 C 78.2227 -2.24609 80.8105 0.244141 85.8398 0.244141 Z M 51.6113 0.244141 L 63.0859 0.244141 C 68.1152 0.244141 70.7031 -2.24609 70.7031 -7.12891 L 70.7031 -52.6855 C 70.7031 -57.5684 68.1152 -60.0098 63.0859 -60.0098 L 51.6113 -60.0098 C 46.582 -60.0098 43.9941 -57.5684 43.9941 -52.6855 L 43.9941 -7.12891 C 43.9941 -2.24609 46.582 0.244141 51.6113 0.244141 Z M 17.3828 0.244141 L 28.8574 0.244141 C 33.9355 0.244141 36.5234 -2.24609 36.5234 -7.12891 L 36.5234 -41.6504 C 36.5234 -46.5332 33.9355 -48.9746 28.8574 -48.9746 L 17.3828 -48.9746 C 12.3535 -48.9746 9.76562 -46.5332 9.76562 -41.6504 L 9.76562 -7.12891 C 9.76562 -2.24609 12.3535 0.244141 17.3828 0.244141 Z"/>
  </g>
  <g id="Thin-S" transform="matrix(1 0 0 1 800.465 696)">
   <path d="M 83.7891 0.0976562 L 95.459 0.0976562 C 99.9023 0.0976562 102.148 -2.14844 102.148 -6.64062 L 102.148 -64.1602 C 102.148 -68.7012 99.9023 -70.8984 95.459 -70.8984 L 83.7891 -70.8984 C 79.3457 -70.8984 77.0996 -68.7012 77.0996 -64.1602 L 77.0996 -6.64062 C 77.0996 -2.14844 79.3457 0.0976562 83.7891 0.0976562 Z M 50.0977 0.0976562 L 61.8164 0.0976562 C 66.2598 0.0976562 68.5059 -2.14844 68.5059 -6.64062 L 68.5059 -53.125 C 68.5059 -57.6172 66.2598 -59.8633 61.8164 -59.8633 L 50.0977 -59.8633 C 45.7031 -59.8633 43.4082 -57.6172 43.4082 -53.125 L 43.4082 -6.64062 C 43.4082 -2.14844 45.7031 0.0976562 50.0977 0.0976562 Z M 16.4551 0.0976562 L 28.125 0.0976562 C 32.5684 0.0976562 34.8633 -2.14844 34.8633 -6.64062 L 34.8633 -42.2852 C 34.8633 -46.7773 32.5684 -48.9746 28.125 -48.9746 L 16.4551 -48.9746 C 12.0117 -48.9746 9.76562 -46.7773 9.76562 -42.2852 L 9.76562 -6.64062 C 9.76562 -2.14844 12.0117 0.0976562 16.4551 0.0976562 Z"/>
  </g>
  <g id="Ultralight-S" transform="matrix(1 0 0 1 504.462 696)">
   <path d="M 82.7148 0 L 94.4824 0 C 98.6328 0 100.732 -2.05078 100.732 -6.34766 L 100.732 -64.3555 C 100.732 -68.6523 98.6328 -70.752 94.4824 -70.752 L 82.7148 -70.752 C 78.6133 -70.752 76.5137 -68.6523 76.5137 -64.3555 L 76.5137 -6.34766 C 76.5137 -2.05078 78.6133 0 82.7148 0 Z M 49.3652 0 L 61.1328 0 C 65.2832 0 67.334 -2.05078 67.334 -6.34766 L 67.334 -53.3691 C 67.334 -57.666 65.2832 -59.7168 61.1328 -59.7168 L 49.3652 -59.7168 C 45.2148 -59.7168 43.1152 -57.666 43.1152 -53.3691 L 43.1152 -6.34766 C 43.1152 -2.05078 45.2148 0 49.3652 0 Z M 15.9668 0 L 27.7832 0 C 31.8848 0 33.9844 -2.05078 33.9844 -6.34766 L 33.9844 -42.5781 C 33.9844 -46.875 31.8848 -48.9746 27.7832 -48.9746 L 15.9668 -48.9746 C 11.8652 -48.9746 9.76562 -46.875 9.76562 -42.5781 L 9.76562 -6.34766 C 9.76562 -2.05078 11.8652 0 15.9668 0 Z"/>
  </g>
 </g>
</svg>
