<?xml version="1.0" encoding="UTF-8"?>
<!--Generator: Apple Native CoreSVG 129-->
<!DOCTYPE svg
PUBLIC "-//W3C//DTD SVG 1.1//EN"
       "http://www.w3.org/Graphics/SVG/1.1/DTD/svg11.dtd">
<svg version="1.1" xmlns="http://www.w3.org/2000/svg" xmlns:xlink="http://www.w3.org/1999/xlink" width="3300" height="2200">
 <!--glyph: "uni10023B.medium", point size: 100.000000, font version: "Version 16.0d9e1", template writer version: "8"-->
 <g id="Notes">
  <rect height="2200" id="artboard" style="fill:white;opacity:1" width="3300" x="0" y="0"/>
  <line id="" style="fill:none;stroke:black;opacity:1;stroke-width:0.5;" x1="263" x2="3036" y1="292" y2="292"/>
  <text style="stroke:none;fill:black;font-family:-apple-system,&quot;SF Pro Display&quot;,&quot;SF Pro Text&quot;,Helvetica,sans-serif;font-weight:bold;" transform="matrix(1 0 0 1 263 322)">Weight/Scale Variations</text>
  <text style="stroke:none;fill:black;font-family:-apple-system,&quot;SF Pro Display&quot;,&quot;SF Pro Text&quot;,Helvetica,sans-serif;text-anchor:middle;" transform="matrix(1 0 0 1 559.711 322)">Ultralight</text>
  <text style="stroke:none;fill:black;font-family:-apple-system,&quot;SF Pro Display&quot;,&quot;SF Pro Text&quot;,Helvetica,sans-serif;text-anchor:middle;" transform="matrix(1 0 0 1 856.422 322)">Thin</text>
  <text style="stroke:none;fill:black;font-family:-apple-system,&quot;SF Pro Display&quot;,&quot;SF Pro Text&quot;,Helvetica,sans-serif;text-anchor:middle;" transform="matrix(1 0 0 1 1153.13 322)">Light</text>
  <text style="stroke:none;fill:black;font-family:-apple-system,&quot;SF Pro Display&quot;,&quot;SF Pro Text&quot;,Helvetica,sans-serif;text-anchor:middle;" transform="matrix(1 0 0 1 1449.84 322)">Regular</text>
  <text style="stroke:none;fill:black;font-family:-apple-system,&quot;SF Pro Display&quot;,&quot;SF Pro Text&quot;,Helvetica,sans-serif;text-anchor:middle;" transform="matrix(1 0 0 1 1746.56 322)">Medium</text>
  <text style="stroke:none;fill:black;font-family:-apple-system,&quot;SF Pro Display&quot;,&quot;SF Pro Text&quot;,Helvetica,sans-serif;text-anchor:middle;" transform="matrix(1 0 0 1 2043.27 322)">Semibold</text>
  <text style="stroke:none;fill:black;font-family:-apple-system,&quot;SF Pro Display&quot;,&quot;SF Pro Text&quot;,Helvetica,sans-serif;text-anchor:middle;" transform="matrix(1 0 0 1 2339.98 322)">Bold</text>
  <text style="stroke:none;fill:black;font-family:-apple-system,&quot;SF Pro Display&quot;,&quot;SF Pro Text&quot;,Helvetica,sans-serif;text-anchor:middle;" transform="matrix(1 0 0 1 2636.69 322)">Heavy</text>
  <text style="stroke:none;fill:black;font-family:-apple-system,&quot;SF Pro Display&quot;,&quot;SF Pro Text&quot;,Helvetica,sans-serif;text-anchor:middle;" transform="matrix(1 0 0 1 2933.4 322)">Black</text>
  <line id="" style="fill:none;stroke:black;opacity:1;stroke-width:0.5;" x1="263" x2="3036" y1="1903" y2="1903"/>
  <g id="" transform="matrix(1 0 0 1 263 1933)">
   <path d="M 9.24805 0.830078 C 13.5547 0.830078 17.1387 -2.74414 17.1387 -7.05078 C 17.1387 -11.3574 13.5449 -14.9316 9.23828 -14.9316 C 4.94141 -14.9316 1.36719 -11.3574 1.36719 -7.05078 C 1.36719 -2.74414 4.95117 0.830078 9.24805 0.830078 Z M 9.24805 -0.654297 C 5.70312 -0.654297 2.87109 -3.49609 2.87109 -7.05078 C 2.87109 -10.6055 5.69336 -13.4473 9.23828 -13.4473 C 12.793 -13.4473 15.6348 -10.6055 15.6445 -7.05078 C 15.6543 -3.49609 12.8027 -0.654297 9.24805 -0.654297 Z M 9.22852 -3.62305 C 9.69727 -3.62305 9.9707 -3.93555 9.9707 -4.45312 L 9.9707 -6.31836 L 12.002 -6.31836 C 12.5 -6.31836 12.832 -6.57227 12.832 -7.04102 C 12.832 -7.51953 12.5195 -7.7832 12.002 -7.7832 L 9.9707 -7.7832 L 9.9707 -9.81445 C 9.9707 -10.332 9.69727 -10.6543 9.22852 -10.6543 C 8.75977 -10.6543 8.50586 -10.3125 8.50586 -9.81445 L 8.50586 -7.7832 L 6.49414 -7.7832 C 5.97656 -7.7832 5.64453 -7.51953 5.64453 -7.04102 C 5.64453 -6.57227 5.99609 -6.31836 6.49414 -6.31836 L 8.50586 -6.31836 L 8.50586 -4.45312 C 8.50586 -3.95508 8.75977 -3.62305 9.22852 -3.62305 Z"/>
  </g>
  <g id="" transform="matrix(1 0 0 1 281.506 1933)">
   <path d="M 11.709 2.91016 C 17.1582 2.91016 21.6699 -1.61133 21.6699 -7.05078 C 21.6699 -12.5 17.1484 -17.0117 11.6992 -17.0117 C 6.25977 -17.0117 1.74805 -12.5 1.74805 -7.05078 C 1.74805 -1.61133 6.26953 2.91016 11.709 2.91016 Z M 11.709 1.25 C 7.09961 1.25 3.41797 -2.44141 3.41797 -7.05078 C 3.41797 -11.6602 7.08984 -15.3516 11.6992 -15.3516 C 16.3086 -15.3516 20 -11.6602 20.0098 -7.05078 C 20.0195 -2.44141 16.3184 1.25 11.709 1.25 Z M 11.6797 -2.66602 C 12.207 -2.66602 12.5098 -3.01758 12.5098 -3.59375 L 12.5098 -6.23047 L 15.3223 -6.23047 C 15.8691 -6.23047 16.25 -6.51367 16.25 -7.03125 C 16.25 -7.55859 15.8887 -7.86133 15.3223 -7.86133 L 12.5098 -7.86133 L 12.5098 -10.6836 C 12.5098 -11.25 12.207 -11.6113 11.6797 -11.6113 C 11.1621 -11.6113 10.8789 -11.2305 10.8789 -10.6836 L 10.8789 -7.86133 L 8.07617 -7.86133 C 7.50977 -7.86133 7.13867 -7.55859 7.13867 -7.03125 C 7.13867 -6.51367 7.5293 -6.23047 8.07617 -6.23047 L 10.8789 -6.23047 L 10.8789 -3.59375 C 10.8789 -3.03711 11.1621 -2.66602 11.6797 -2.66602 Z"/>
  </g>
  <g id="" transform="matrix(1 0 0 1 304.924 1933)">
   <path d="M 14.9707 5.66406 C 21.9336 5.66406 27.6953 -0.0976562 27.6953 -7.05078 C 27.6953 -14.0137 21.9238 -19.7754 14.9609 -19.7754 C 8.00781 -19.7754 2.25586 -14.0137 2.25586 -7.05078 C 2.25586 -0.0976562 8.01758 5.66406 14.9707 5.66406 Z M 14.9707 3.84766 C 8.93555 3.84766 4.08203 -1.01562 4.08203 -7.05078 C 4.08203 -13.0957 8.92578 -17.9492 14.9609 -17.9492 C 21.0059 -17.9492 25.8594 -13.0957 25.8691 -7.05078 C 25.8789 -1.01562 21.0156 3.84766 14.9707 3.84766 Z M 14.9414 -1.38672 C 15.5176 -1.38672 15.8594 -1.77734 15.8594 -2.38281 L 15.8594 -6.13281 L 19.7754 -6.13281 C 20.3711 -6.13281 20.7812 -6.46484 20.7812 -7.02148 C 20.7812 -7.59766 20.3906 -7.93945 19.7754 -7.93945 L 15.8594 -7.93945 L 15.8594 -11.8652 C 15.8594 -12.4805 15.5176 -12.8711 14.9414 -12.8711 C 14.375 -12.8711 14.0527 -12.4609 14.0527 -11.8652 L 14.0527 -7.93945 L 10.1465 -7.93945 C 9.53125 -7.93945 9.13086 -7.59766 9.13086 -7.02148 C 9.13086 -6.46484 9.55078 -6.13281 10.1465 -6.13281 L 14.0527 -6.13281 L 14.0527 -2.38281 C 14.0527 -1.79688 14.375 -1.38672 14.9414 -1.38672 Z"/>
  </g>
  <text style="stroke:none;fill:black;font-family:-apple-system,&quot;SF Pro Display&quot;,&quot;SF Pro Text&quot;,Helvetica,sans-serif;font-weight:bold;" transform="matrix(1 0 0 1 263 1953)">Design Variations</text>
  <text style="stroke:none;fill:black;font-family:-apple-system,&quot;SF Pro Display&quot;,&quot;SF Pro Text&quot;,Helvetica,sans-serif;" transform="matrix(1 0 0 1 263 1971)">Symbols are supported in up to nine weights and three scales.</text>
  <text style="stroke:none;fill:black;font-family:-apple-system,&quot;SF Pro Display&quot;,&quot;SF Pro Text&quot;,Helvetica,sans-serif;" transform="matrix(1 0 0 1 263 1989)">For optimal layout with text and other symbols, vertically align</text>
  <text style="stroke:none;fill:black;font-family:-apple-system,&quot;SF Pro Display&quot;,&quot;SF Pro Text&quot;,Helvetica,sans-serif;" transform="matrix(1 0 0 1 263 2007)">symbols with the adjacent text.</text>
  <line id="" style="fill:none;stroke:#00AEEF;stroke-width:0.5;opacity:1.0;" x1="776" x2="776" y1="1919" y2="1933"/>
  <g id="" transform="matrix(1 0 0 1 776 1933)">
   <path d="M 3.31055 0.126953 C 3.82812 0.126953 4.08203 -0.0683594 4.26758 -0.605469 L 5.52734 -4.0625 L 11.2891 -4.0625 L 12.5488 -0.605469 C 12.7344 -0.0683594 12.9883 0.126953 13.4961 0.126953 C 14.0137 0.126953 14.3457 -0.185547 14.3457 -0.673828 C 14.3457 -0.839844 14.3164 -0.986328 14.2383 -1.20117 L 9.6582 -13.3887 C 9.43359 -13.9941 9.0332 -14.2871 8.4082 -14.2871 C 7.80273 -14.2871 7.39258 -13.9941 7.17773 -13.3984 L 2.59766 -1.19141 C 2.51953 -0.976562 2.49023 -0.830078 2.49023 -0.664062 C 2.49023 -0.175781 2.80273 0.126953 3.31055 0.126953 Z M 6.00586 -5.53711 L 8.37891 -12.1094 L 8.42773 -12.1094 L 10.8008 -5.53711 Z"/>
  </g>
  <line id="" style="fill:none;stroke:#00AEEF;stroke-width:0.5;opacity:1.0;" x1="792.836" x2="792.836" y1="1919" y2="1933"/>
  <text style="stroke:none;fill:black;font-family:-apple-system,&quot;SF Pro Display&quot;,&quot;SF Pro Text&quot;,Helvetica,sans-serif;font-weight:bold;" transform="matrix(1 0 0 1 776 1953)">Margins</text>
  <text style="stroke:none;fill:black;font-family:-apple-system,&quot;SF Pro Display&quot;,&quot;SF Pro Text&quot;,Helvetica,sans-serif;" transform="matrix(1 0 0 1 776 1971)">Leading and trailing margins on the left and right side of each symbol</text>
  <text style="stroke:none;fill:black;font-family:-apple-system,&quot;SF Pro Display&quot;,&quot;SF Pro Text&quot;,Helvetica,sans-serif;" transform="matrix(1 0 0 1 776 1989)">can be adjusted by modifying the x-location of the margin guidelines.</text>
  <text style="stroke:none;fill:black;font-family:-apple-system,&quot;SF Pro Display&quot;,&quot;SF Pro Text&quot;,Helvetica,sans-serif;" transform="matrix(1 0 0 1 776 2007)">Modifications are automatically applied proportionally to all</text>
  <text style="stroke:none;fill:black;font-family:-apple-system,&quot;SF Pro Display&quot;,&quot;SF Pro Text&quot;,Helvetica,sans-serif;" transform="matrix(1 0 0 1 776 2025)">scales and weights.</text>
  <g id="" transform="matrix(1 0 0 1 1289 1933)">
   <path d="M 2.8418 1.86523 L 4.54102 3.57422 C 5.40039 4.44336 6.38672 4.38477 7.31445 3.35938 L 17.4902 -7.85156 C 17.7539 -7.76367 18.0273 -7.7832 18.3398 -7.8418 L 19.4043 -8.03711 L 20.0684 -7.36328 L 20.0293 -6.80664 C 19.9902 -6.30859 20.1172 -5.92773 20.6055 -5.44922 L 21.3672 -4.70703 C 21.8457 -4.22852 22.4609 -4.19922 22.9297 -4.66797 L 25.8398 -7.58789 C 26.3086 -8.05664 26.2891 -8.65234 25.8105 -9.13086 L 25.0391 -9.89258 C 24.5605 -10.3711 24.1895 -10.5273 23.7109 -10.4883 L 23.1348 -10.4395 L 22.4902 -11.0742 L 22.7344 -12.1973 C 22.8613 -12.7637 22.7051 -13.2031 22.1191 -13.7891 L 19.9219 -15.9766 C 16.582 -19.2969 12.1484 -19.2188 9.25781 -16.3281 C 8.83789 -15.918 8.80859 -15.3418 9.04297 -14.9512 C 9.27734 -14.5898 9.73633 -14.3555 10.3809 -14.5215 C 11.8457 -14.8633 13.3691 -14.9219 14.7949 -13.9844 L 14.209 -12.5293 C 14.0137 -12.0508 13.9844 -11.6504 14.1113 -11.2891 L 3.04688 -0.898438 C 2.06055 0.0195312 1.98242 0.996094 2.8418 1.86523 Z M 10.752 -15.957 C 13.1836 -17.7344 16.4746 -17.4316 18.7012 -15.2051 L 21.1328 -12.793 C 21.3672 -12.5586 21.4062 -12.373 21.3379 -12.0312 L 21.0156 -10.5469 L 22.5195 -9.0625 L 23.5059 -9.12109 C 23.7598 -9.13086 23.8379 -9.11133 24.0332 -8.91602 L 24.6094 -8.33984 L 22.168 -5.89844 L 21.5918 -6.47461 C 21.3965 -6.66992 21.3672 -6.74805 21.377 -7.01172 L 21.4453 -7.98828 L 19.9512 -9.47266 L 18.4277 -9.21875 C 18.1055 -9.15039 17.959 -9.17969 17.7148 -9.41406 L 15.7129 -11.416 C 15.459 -11.6504 15.4297 -11.8164 15.5859 -12.1875 L 16.4648 -14.2773 C 14.9023 -15.7324 12.8711 -16.3574 10.8398 -15.7617 C 10.6836 -15.7227 10.625 -15.8496 10.752 -15.957 Z M 5.27344 2.30469 L 4.10156 1.14258 C 3.63281 0.683594 3.74023 0.341797 4.14062 -0.0195312 L 14.9512 -10.1953 L 16.416 -8.71094 L 6.42578 2.27539 C 6.07422 2.67578 5.74219 2.77344 5.27344 2.30469 Z"/>
  </g>
  <text style="stroke:none;fill:black;font-family:-apple-system,&quot;SF Pro Display&quot;,&quot;SF Pro Text&quot;,Helvetica,sans-serif;font-weight:bold;" transform="matrix(1 0 0 1 1289 1953)">Exporting</text>
  <text style="stroke:none;fill:black;font-family:-apple-system,&quot;SF Pro Display&quot;,&quot;SF Pro Text&quot;,Helvetica,sans-serif;" transform="matrix(1 0 0 1 1289 1971)">Symbols should be outlined when exporting to ensure the</text>
  <text style="stroke:none;fill:black;font-family:-apple-system,&quot;SF Pro Display&quot;,&quot;SF Pro Text&quot;,Helvetica,sans-serif;" transform="matrix(1 0 0 1 1289 1989)">design is preserved when submitting to Xcode.</text>
  <text id="template-version" style="stroke:none;fill:black;font-family:-apple-system,&quot;SF Pro Display&quot;,&quot;SF Pro Text&quot;,Helvetica,sans-serif;text-anchor:end;" transform="matrix(1 0 0 1 3036 1933)">Template v.2.0</text>
  <text style="stroke:none;fill:black;font-family:-apple-system,&quot;SF Pro Display&quot;,&quot;SF Pro Text&quot;,Helvetica,sans-serif;text-anchor:end;" transform="matrix(1 0 0 1 3036 1951)">Requires Xcode 12 or greater</text>
  <text style="stroke:none;fill:black;font-family:-apple-system,&quot;SF Pro Display&quot;,&quot;SF Pro Text&quot;,Helvetica,sans-serif;text-anchor:end;" transform="matrix(1 0 0 1 3036 1969)">Generated from arrow.up.doc</text>
  <text style="stroke:none;fill:black;font-family:-apple-system,&quot;SF Pro Display&quot;,&quot;SF Pro Text&quot;,Helvetica,sans-serif;text-anchor:end;" transform="matrix(1 0 0 1 3036 1987)">Typeset at 100 points</text>
  <text style="stroke:none;fill:black;font-family:-apple-system,&quot;SF Pro Display&quot;,&quot;SF Pro Text&quot;,Helvetica,sans-serif;" transform="matrix(1 0 0 1 263 726)">Small</text>
  <text style="stroke:none;fill:black;font-family:-apple-system,&quot;SF Pro Display&quot;,&quot;SF Pro Text&quot;,Helvetica,sans-serif;" transform="matrix(1 0 0 1 263 1156)">Medium</text>
  <text style="stroke:none;fill:black;font-family:-apple-system,&quot;SF Pro Display&quot;,&quot;SF Pro Text&quot;,Helvetica,sans-serif;" transform="matrix(1 0 0 1 263 1586)">Large</text>
 </g>
 <g id="Guides">
  <g id="H-reference" style="fill:#27AAE1;stroke:none;" transform="matrix(1 0 0 1 339 696)">
   <path d="M 0.976562 0 L 3.66211 0 L 12.9883 -24.4629 L 45.7031 -24.4629 L 55.0781 0 L 57.7148 0 L 30.6152 -70.459 L 28.125 -70.459 Z M 29.2969 -67.1387 L 29.3945 -67.1387 L 44.873 -26.709 L 13.8672 -26.709 Z"/>
  </g>
  <line id="Baseline-S" style="fill:none;stroke:#27AAE1;opacity:1;stroke-width:0.5;" x1="263" x2="3036" y1="696" y2="696"/>
  <line id="Capline-S" style="fill:none;stroke:#27AAE1;opacity:1;stroke-width:0.5;" x1="263" x2="3036" y1="625.541" y2="625.541"/>
  <g id="H-reference" style="fill:#27AAE1;stroke:none;" transform="matrix(1 0 0 1 339 1126)">
   <path d="M 0.976562 0 L 3.66211 0 L 12.9883 -24.4629 L 45.7031 -24.4629 L 55.0781 0 L 57.7148 0 L 30.6152 -70.459 L 28.125 -70.459 Z M 29.2969 -67.1387 L 29.3945 -67.1387 L 44.873 -26.709 L 13.8672 -26.709 Z"/>
  </g>
  <line id="Baseline-M" style="fill:none;stroke:#27AAE1;opacity:1;stroke-width:0.5;" x1="263" x2="3036" y1="1126" y2="1126"/>
  <line id="Capline-M" style="fill:none;stroke:#27AAE1;opacity:1;stroke-width:0.5;" x1="263" x2="3036" y1="1055.54" y2="1055.54"/>
  <g id="H-reference" style="fill:#27AAE1;stroke:none;" transform="matrix(1 0 0 1 339 1556)">
   <path d="M 0.976562 0 L 3.66211 0 L 12.9883 -24.4629 L 45.7031 -24.4629 L 55.0781 0 L 57.7148 0 L 30.6152 -70.459 L 28.125 -70.459 Z M 29.2969 -67.1387 L 29.3945 -67.1387 L 44.873 -26.709 L 13.8672 -26.709 Z"/>
  </g>
  <line id="Baseline-L" style="fill:none;stroke:#27AAE1;opacity:1;stroke-width:0.5;" x1="263" x2="3036" y1="1556" y2="1556"/>
  <line id="Capline-L" style="fill:none;stroke:#27AAE1;opacity:1;stroke-width:0.5;" x1="263" x2="3036" y1="1485.54" y2="1485.54"/>
  <line id="left-margin" style="fill:none;stroke:#00AEEF;stroke-width:0.5;opacity:1.0;" x1="1396.33" x2="1396.33" y1="1030.79" y2="1150.12"/>
  <line id="right-margin" style="fill:none;stroke:#00AEEF;stroke-width:0.5;opacity:1.0;" x1="1503.36" x2="1503.36" y1="1030.79" y2="1150.12"/>
 </g>
 <g id="Symbols">
  <g id="Black-L" transform="matrix(1 0 0 1 2859.65 1556)">
   <path d="M 39.8926 35.2539 L 107.617 35.2539 C 122.803 35.2539 131.445 26.5625 131.445 11.3281 L 131.445 -45.3613 C 131.445 -56.4453 129.688 -62.207 122.559 -69.3848 L 95.4102 -96.7773 C 88.3789 -103.809 82.4707 -105.664 71.7285 -105.664 L 39.8926 -105.664 C 24.707 -105.664 16.0645 -96.9727 16.0645 -81.7383 L 16.0645 11.3281 C 16.0645 26.5625 24.707 35.2539 39.8926 35.2539 Z M 42.7246 14.9902 C 38.1836 14.9902 36.3281 12.8418 36.3281 8.59375 L 36.3281 -79.0039 C 36.3281 -83.252 38.1836 -85.4004 42.7246 -85.4004 L 65.332 -85.4004 L 65.332 -58.1055 C 65.332 -45.2637 71.2891 -39.3066 84.1309 -39.3066 L 111.23 -39.3066 L 111.23 8.59375 C 111.23 12.8418 109.326 14.9902 104.785 14.9902 Z M 85.4492 -55.2246 C 82.666 -55.2246 81.25 -56.6406 81.25 -59.4727 L 81.25 -84.4727 L 110.254 -55.2246 Z M 81.7383 1.5625 L 81.7383 -5.37109 L 80.957 -13.3789 L 83.5938 -10.4004 L 85.5957 -8.25195 C 86.6211 -6.83594 88.7207 -5.71289 90.5762 -5.71289 C 94.4824 -5.71289 97.4121 -8.54492 97.4121 -12.2559 C 97.4121 -14.3555 96.8262 -15.8691 95.0195 -17.4316 L 80.2734 -30.6152 C 78.3691 -32.373 76.3672 -33.4961 73.7793 -33.4961 C 71.1426 -33.4961 69.1406 -32.373 67.2363 -30.6152 L 52.4902 -17.4316 C 50.6836 -15.8691 50.0977 -14.3555 50.0977 -12.2559 C 50.0977 -8.54492 53.0273 -5.71289 56.9336 -5.71289 C 58.8379 -5.71289 60.791 -6.83594 61.9629 -8.25195 L 63.9648 -10.4004 L 66.5527 -13.3789 L 65.7715 -5.37109 L 65.7715 1.5625 C 65.7715 6.00586 69.3359 8.93555 73.7793 8.93555 C 78.1738 8.93555 81.7383 6.00586 81.7383 1.5625 Z"/>
  </g>
  <g id="Heavy-L" transform="matrix(1 0 0 1 2564.18 1556)">
   <path d="M 38.7207 34.4727 L 106.348 34.4727 C 120.898 34.4727 128.955 26.3672 128.955 11.7188 L 128.955 -45.3613 C 128.955 -55.5664 127.393 -60.6934 120.898 -67.2363 L 91.6016 -96.8262 C 85.2051 -103.271 79.8828 -104.932 70.1172 -104.932 L 38.7207 -104.932 C 24.1699 -104.932 16.0645 -96.7773 16.0645 -82.1777 L 16.0645 11.7188 C 16.0645 26.3672 24.1211 34.4727 38.7207 34.4727 Z M 40.9668 16.9922 C 35.8887 16.9922 33.5938 14.4531 33.5938 9.61914 L 33.5938 -80.0293 C 33.5938 -84.8633 35.8887 -87.4023 41.0156 -87.4023 L 65.0879 -87.4023 L 65.0879 -57.7148 C 65.0879 -46.1426 70.5078 -40.7227 82.0801 -40.7227 L 111.475 -40.7227 L 111.475 9.61914 C 111.475 14.4531 109.18 16.9922 104.053 16.9922 Z M 83.3008 -54.834 C 80.5176 -54.834 79.1504 -56.1523 79.1504 -58.9844 L 79.1504 -86.2793 L 110.303 -54.834 Z M 79.5898 3.66211 L 79.5898 -7.56836 L 78.9062 -16.3086 L 82.6172 -12.3047 L 85.4492 -9.32617 C 86.4258 -8.05664 88.2324 -7.12891 89.9414 -7.12891 C 93.4082 -7.12891 96.0938 -9.61914 96.0938 -12.9883 C 96.0938 -14.9414 95.459 -16.3086 93.8965 -17.6758 L 78.2227 -31.8848 C 76.5137 -33.4473 74.7559 -34.4238 72.5098 -34.4238 C 70.2637 -34.4238 68.5547 -33.4473 66.7969 -31.8848 L 51.123 -17.6758 C 49.5605 -16.3086 48.9746 -14.9414 48.9746 -12.9883 C 48.9746 -9.61914 51.5625 -7.12891 55.0781 -7.12891 C 56.7871 -7.12891 58.5449 -8.05664 59.5703 -9.32617 L 62.4512 -12.3047 L 66.1133 -16.3086 L 65.4297 -7.56836 L 65.4297 3.66211 C 65.4297 7.56836 68.6035 10.2539 72.5098 10.2539 C 76.416 10.2539 79.5898 7.56836 79.5898 3.66211 Z"/>
  </g>
  <g id="Bold-L" transform="matrix(1 0 0 1 2268.86 1556)">
   <path d="M 37.4023 33.6426 L 104.883 33.6426 C 118.701 33.6426 126.172 26.123 126.172 12.207 L 126.172 -45.3613 C 126.172 -54.541 124.854 -59.0332 119.043 -64.8926 L 87.3535 -96.9238 C 81.6895 -102.637 76.9531 -104.053 68.3594 -104.053 L 37.4023 -104.053 C 23.584 -104.053 16.0645 -96.5332 16.0645 -82.6172 L 16.0645 12.207 C 16.0645 26.123 23.5352 33.6426 37.4023 33.6426 Z M 39.0137 19.1895 C 33.252 19.1895 30.5176 16.2598 30.5176 10.7422 L 30.5176 -81.1523 C 30.5176 -86.6211 33.252 -89.6484 39.0625 -89.6484 L 64.7949 -89.6484 L 64.7949 -57.2754 C 64.7949 -47.1191 69.6777 -42.334 79.7363 -42.334 L 111.719 -42.334 L 111.719 10.7422 C 111.719 16.2598 108.984 19.1895 103.223 19.1895 Z M 80.8594 -54.3945 C 78.0762 -54.3945 76.8066 -55.6152 76.8066 -58.3984 L 76.8066 -88.2812 L 110.4 -54.3945 Z M 77.1973 6.00586 L 77.1973 -10.1074 L 76.6113 -19.6289 L 81.4941 -14.4531 L 85.2539 -10.5469 C 86.1816 -9.47266 87.7441 -8.69141 89.209 -8.69141 C 92.2363 -8.69141 94.5312 -10.8887 94.5312 -13.8184 C 94.5312 -15.5762 93.9453 -16.7969 92.627 -17.9688 L 75.8789 -33.3008 C 74.3652 -34.668 72.9492 -35.4492 71.1426 -35.4492 C 69.2871 -35.4492 67.8711 -34.668 66.3574 -33.3008 L 49.6094 -17.9688 C 48.291 -16.7969 47.7051 -15.5762 47.7051 -13.8184 C 47.7051 -10.8887 49.9512 -8.69141 53.0273 -8.69141 C 54.4922 -8.69141 56.0059 -9.47266 56.9824 -10.5469 L 60.7422 -14.4531 L 65.625 -19.6289 L 65.0391 -10.1074 L 65.0391 6.00586 C 65.0391 9.32617 67.8223 11.7188 71.1426 11.7188 C 74.4141 11.7188 77.1973 9.32617 77.1973 6.00586 Z"/>
  </g>
  <g id="Semibold-L" transform="matrix(1 0 0 1 1973.1 1556)">
   <path d="M 36.4746 33.0566 L 103.857 33.0566 C 117.188 33.0566 124.268 25.9277 124.268 12.5 L 124.268 -45.3613 C 124.268 -53.8574 123.096 -57.8613 117.725 -63.2812 L 84.4238 -96.9727 C 79.248 -102.246 74.9512 -103.516 67.1387 -103.516 L 36.4746 -103.516 C 23.1445 -103.516 16.0645 -96.3867 16.0645 -82.9102 L 16.0645 12.5 C 16.0645 25.9766 23.0957 33.0566 36.4746 33.0566 Z M 37.6465 20.752 C 31.4453 20.752 28.418 17.5293 28.418 11.5234 L 28.418 -81.9336 C 28.418 -87.8418 31.4453 -91.1621 37.6953 -91.1621 L 64.5996 -91.1621 L 64.5996 -56.9824 C 64.5996 -47.8027 69.0918 -43.4082 78.125 -43.4082 L 111.914 -43.4082 L 111.914 11.5234 C 111.914 17.5293 108.838 20.752 102.637 20.752 Z M 79.1992 -54.0527 C 76.416 -54.0527 75.2441 -55.2734 75.2441 -58.0566 L 75.2441 -89.6973 L 110.449 -54.0527 Z M 75.5371 7.61719 L 75.5371 -11.8164 L 75 -21.875 L 80.7617 -15.9668 L 85.1562 -11.377 C 85.9863 -10.4004 87.4023 -9.76562 88.7207 -9.76562 C 91.4551 -9.76562 93.5059 -11.7188 93.5059 -14.4043 C 93.5059 -16.0156 92.9199 -17.0898 91.6992 -18.1641 L 74.3164 -34.2773 C 72.9492 -35.5469 71.6797 -36.1816 70.166 -36.1816 C 68.6035 -36.1816 67.3828 -35.5469 66.0156 -34.2773 L 48.584 -18.1641 C 47.4121 -17.0898 46.8262 -16.0156 46.8262 -14.4043 C 46.8262 -11.7188 48.8281 -9.76562 51.6113 -9.76562 C 52.9297 -9.76562 54.2969 -10.4004 55.1758 -11.377 L 59.6191 -15.9668 L 65.2832 -21.875 L 64.7949 -11.8164 L 64.7949 7.61719 C 64.7949 10.5469 67.2363 12.6953 70.166 12.6953 C 73.0957 12.6953 75.5371 10.5469 75.5371 7.61719 Z"/>
  </g>
  <g id="Medium-L" transform="matrix(1 0 0 1 1677.12 1556)">
   <path d="M 35.791 32.666 L 103.076 32.666 C 116.064 32.666 122.803 25.8301 122.803 12.7441 L 122.803 -45.3613 C 122.803 -53.3203 121.729 -56.9824 116.748 -62.0117 L 82.2266 -97.0215 C 77.4414 -101.904 73.4375 -103.076 66.2109 -103.076 L 35.791 -103.076 C 22.8516 -103.076 16.0645 -96.2402 16.0645 -83.1543 L 16.0645 12.7441 C 16.0645 25.8789 22.8027 32.666 35.791 32.666 Z M 36.6211 21.9238 C 30.127 21.9238 26.8066 18.457 26.8066 12.1094 L 26.8066 -82.5684 C 26.8066 -88.7695 30.127 -92.334 36.6699 -92.334 L 64.4531 -92.334 L 64.4531 -56.7383 C 64.4531 -48.291 68.6035 -44.2871 76.9043 -44.2871 L 112.061 -44.2871 L 112.061 12.1094 C 112.061 18.457 108.74 21.9238 102.197 21.9238 Z M 77.9297 -53.8086 C 75.1465 -53.8086 74.0234 -54.9805 74.0234 -57.7637 L 74.0234 -90.7227 L 110.449 -53.8086 Z M 74.2676 8.83789 L 74.2676 -13.1348 L 73.8281 -23.584 L 80.1758 -17.0898 L 85.0586 -12.0117 C 85.8398 -11.1328 87.1094 -10.5957 88.3301 -10.5957 C 90.8203 -10.5957 92.7246 -12.3535 92.7246 -14.8438 C 92.7246 -16.3086 92.1387 -17.334 91.0645 -18.3105 L 73.0957 -35.0586 C 71.8262 -36.1816 70.752 -36.7188 69.4336 -36.7188 C 68.1152 -36.7188 67.041 -36.1816 65.7715 -35.0586 L 47.8027 -18.3105 C 46.7285 -17.334 46.1426 -16.3086 46.1426 -14.8438 C 46.1426 -12.3535 47.998 -10.5957 50.5371 -10.5957 C 51.709 -10.5957 52.9785 -11.1328 53.8086 -12.0117 L 58.6914 -17.0898 L 65.0391 -23.584 L 64.5996 -13.1348 L 64.5996 8.83789 C 64.5996 11.4746 66.7969 13.4766 69.4336 13.4766 C 72.0215 13.4766 74.2676 11.4746 74.2676 8.83789 Z"/>
  </g>
  <g id="Regular-L" transform="matrix(1 0 0 1 1381.36 1556)">
   <path d="M 34.8633 32.0801 L 102.1 32.0801 C 114.6 32.0801 120.898 25.6348 120.898 13.0859 L 120.898 -45.3613 C 120.898 -52.6367 120.02 -55.8105 115.479 -60.4004 L 79.2969 -97.0703 C 75 -101.514 71.4844 -102.49 64.9902 -102.49 L 34.8633 -102.49 C 22.4609 -102.49 16.0645 -96.0938 16.0645 -83.4961 L 16.0645 13.0859 C 16.0645 25.6836 22.3633 32.0801 34.8633 32.0801 Z M 35.3027 23.4375 C 28.3203 23.4375 24.707 19.7266 24.707 12.8906 L 24.707 -83.3008 C 24.707 -89.9902 28.3203 -93.8477 35.3516 -93.8477 L 64.2578 -93.8477 L 64.2578 -56.4453 C 64.2578 -48.9746 68.0176 -45.3613 75.3418 -45.3613 L 112.256 -45.3613 L 112.256 12.8906 C 112.256 19.7266 108.643 23.4375 101.611 23.4375 Z M 76.2695 -53.5156 C 73.5352 -53.5156 72.4121 -54.5898 72.4121 -57.373 L 72.4121 -92.1387 L 110.547 -53.5156 Z M 72.6074 10.4492 L 72.6074 -14.8438 L 72.2656 -25.8301 L 79.3945 -18.5547 L 84.9609 -12.8906 C 85.6934 -12.0605 86.7676 -11.6211 87.8418 -11.6211 C 90.0391 -11.6211 91.6992 -13.1836 91.6992 -15.4297 C 91.6992 -16.748 91.0645 -17.6758 90.1855 -18.457 L 71.5332 -36.0352 C 70.4102 -37.0117 69.5312 -37.4023 68.5059 -37.4023 C 67.4316 -37.4023 66.5527 -37.0117 65.4297 -36.0352 L 46.7773 -18.457 C 45.8984 -17.6758 45.2637 -16.748 45.2637 -15.4297 C 45.2637 -13.1836 46.875 -11.6211 49.1211 -11.6211 C 50.1465 -11.6211 51.2695 -12.0605 52.002 -12.8906 L 57.5684 -18.5547 L 64.6973 -25.8301 L 64.3555 -14.8438 L 64.3555 10.4492 C 64.3555 12.6465 66.2598 14.502 68.5059 14.502 C 70.7031 14.502 72.6074 12.6465 72.6074 10.4492 Z"/>
  </g>
  <g id="Light-L" transform="matrix(1 0 0 1 1085.43 1556)">
   <path d="M 33.9355 31.7871 L 101.514 31.7871 C 113.281 31.7871 119.336 25.6348 119.336 13.7695 L 119.336 -46.2891 C 119.336 -52.4414 118.506 -55.1758 114.697 -59.0332 L 76.5625 -97.4609 C 72.9004 -101.172 69.9219 -102.1 64.3066 -102.1 L 33.9355 -102.1 C 22.2168 -102.1 16.0645 -95.9961 16.0645 -84.1309 L 16.0645 13.7695 C 16.0645 25.6836 22.1191 31.7871 33.9355 31.7871 Z M 34.2285 25.1465 C 26.6113 25.1465 22.7051 21.1426 22.7051 13.623 L 22.7051 -83.9844 C 22.7051 -91.2598 26.6113 -95.5078 34.2773 -95.5078 L 64.4531 -95.5078 L 64.4531 -56.8848 C 64.4531 -50.0488 67.9199 -46.9238 74.4629 -46.9238 L 112.744 -46.9238 L 112.744 13.623 C 112.744 21.1426 108.789 25.1465 101.172 25.1465 Z M 75.0977 -53.2227 C 72.0215 -53.2227 70.752 -54.4434 70.752 -57.5684 L 70.752 -94.0918 L 111.328 -53.2227 Z M 70.8984 11.8164 L 70.8984 -16.7969 L 70.6055 -28.8574 L 80.1758 -19.0918 L 85.5957 -13.623 C 86.1328 -13.0371 86.9629 -12.6465 87.8418 -12.6465 C 89.502 -12.6465 90.8203 -13.916 90.8203 -15.625 C 90.8203 -16.8945 90.2344 -17.5781 89.4531 -18.3105 L 70.0684 -36.9629 C 69.2383 -37.6953 68.5059 -38.0371 67.7246 -38.0371 C 66.8945 -38.0371 66.1621 -37.6953 65.332 -36.9629 L 45.9961 -18.3105 C 45.2148 -17.5781 44.5801 -16.8945 44.5801 -15.625 C 44.5801 -13.916 45.8496 -12.6465 47.5586 -12.6465 C 48.3887 -12.6465 49.2676 -13.0371 49.8535 -13.623 L 55.2246 -19.0918 L 64.7949 -28.8574 L 64.502 -16.7969 L 64.502 11.8164 C 64.502 13.5254 65.9668 14.9414 67.7246 14.9414 C 69.4336 14.9414 70.8984 13.5254 70.8984 11.8164 Z"/>
  </g>
  <g id="Thin-L" transform="matrix(1 0 0 1 789.747 1556)">
   <path d="M 32.666 31.3477 L 100.732 31.3477 C 111.572 31.3477 117.285 25.6348 117.285 14.7461 L 117.285 -47.5098 C 117.285 -52.1484 116.455 -54.2969 113.672 -57.1777 L 72.9004 -97.9492 C 70.1172 -100.781 67.9199 -101.611 63.3789 -101.611 L 32.666 -101.611 C 21.9238 -101.611 16.0645 -95.8496 16.0645 -84.9609 L 16.0645 14.7461 C 16.0645 25.6348 21.7773 31.3477 32.666 31.3477 Z M 32.8613 27.4414 C 24.3652 27.4414 19.9707 22.998 19.9707 14.5996 L 19.9707 -84.8145 C 19.9707 -92.9688 24.3652 -97.6562 32.8613 -97.6562 L 64.7461 -97.6562 L 64.7461 -57.5195 C 64.7461 -51.5137 67.7246 -48.9746 73.291 -48.9746 L 113.379 -48.9746 L 113.379 14.5996 C 113.379 22.998 108.984 27.4414 100.537 27.4414 Z M 73.584 -52.832 C 69.9707 -52.832 68.6035 -54.248 68.6035 -57.8125 L 68.6035 -96.6797 L 112.354 -52.832 Z M 68.6035 13.623 L 68.6035 -19.3848 L 68.4082 -32.8613 L 81.25 -19.873 L 86.377 -14.5996 C 86.6699 -14.2578 87.2559 -14.0137 87.793 -14.0137 C 88.8672 -14.0137 89.6973 -14.8438 89.6973 -15.9668 C 89.6973 -17.041 89.0625 -17.4316 88.4766 -18.0664 L 68.1152 -38.1836 C 67.6758 -38.5742 67.1875 -38.8184 66.6992 -38.8184 C 66.2109 -38.8184 65.6738 -38.5742 65.2344 -38.1836 L 44.9219 -18.0664 C 44.2871 -17.4316 43.6523 -17.041 43.6523 -15.9668 C 43.6523 -14.8438 44.4824 -14.0137 45.5566 -14.0137 C 46.0938 -14.0137 46.6797 -14.2578 46.9727 -14.5996 L 52.0996 -19.873 L 64.9414 -32.8613 L 64.7461 -19.3848 L 64.7461 13.623 C 64.7461 14.6973 65.625 15.5762 66.6992 15.5762 C 67.7246 15.5762 68.6035 14.6973 68.6035 13.623 Z"/>
  </g>
  <g id="Ultralight-L" transform="matrix(1 0 0 1 493.549 1556)">
   <path d="M 31.9824 31.1523 L 100.293 31.1523 C 110.693 31.1523 116.26 25.5859 116.26 15.2344 L 116.26 -48.0957 C 116.26 -52.002 115.43 -53.8574 113.135 -56.2012 L 71.0449 -98.1934 C 68.7012 -100.537 66.8945 -101.318 62.8906 -101.318 L 31.9824 -101.318 C 21.7773 -101.318 16.0645 -95.8008 16.0645 -85.4004 L 16.0645 15.2344 C 16.0645 25.5859 21.6309 31.1523 31.9824 31.1523 Z M 32.1289 28.5645 C 23.2422 28.5645 18.6035 23.9746 18.6035 15.0879 L 18.6035 -85.2539 C 18.6035 -93.8477 23.2422 -98.7793 32.1289 -98.7793 L 64.8438 -98.7793 L 64.8438 -57.8613 C 64.8438 -52.2949 67.6758 -50 72.7051 -50 L 113.672 -50 L 113.672 15.0879 C 113.672 23.9746 109.082 28.5645 100.195 28.5645 Z M 72.8027 -52.6367 C 68.9453 -52.6367 67.4805 -54.1016 67.4805 -57.9102 L 67.4805 -97.998 L 112.891 -52.6367 Z M 67.4316 14.5508 L 67.4316 -20.7031 L 67.334 -34.9121 L 81.7871 -20.2637 L 86.8164 -15.0879 C 86.9629 -14.8926 87.4023 -14.6973 87.793 -14.6973 C 88.5254 -14.6973 89.1113 -15.332 89.1113 -16.1133 C 89.1113 -17.1387 88.4766 -17.3828 87.9395 -17.9199 L 67.1387 -38.7695 C 66.8945 -39.0137 66.4551 -39.2578 66.1621 -39.2578 C 65.8203 -39.2578 65.3809 -39.0137 65.1855 -38.7695 L 44.3359 -17.9199 C 43.8477 -17.3828 43.1641 -17.1387 43.1641 -16.1133 C 43.1641 -15.332 43.7988 -14.6973 44.5312 -14.6973 C 44.9219 -14.6973 45.3125 -14.8926 45.5078 -15.0879 L 50.5371 -20.2637 L 64.9902 -34.9121 L 64.8438 -20.7031 L 64.8438 14.5508 C 64.8438 15.2832 65.4297 15.8691 66.1621 15.8691 C 66.8945 15.8691 67.4316 15.2832 67.4316 14.5508 Z"/>
  </g>
  <g id="Black-M" transform="matrix(1 0 0 1 2874.98 1126)">
   <path d="M 31.9824 20.2148 L 84.8633 20.2148 C 97.1191 20.2148 104.395 12.9395 104.395 0.683594 L 104.395 -43.6035 C 104.395 -52.7832 102.734 -57.8125 96.7773 -63.7695 L 77.5879 -83.0078 C 71.582 -88.9648 66.6016 -90.625 57.3242 -90.625 L 31.9824 -90.625 C 19.7266 -90.625 12.4512 -83.3496 12.4512 -71.0938 L 12.4512 0.683594 C 12.4512 12.9395 19.7266 20.2148 31.9824 20.2148 Z M 34.9121 1.9043 C 31.8359 1.9043 30.7617 0.585938 30.7617 -2.24609 L 30.7617 -68.1641 C 30.7617 -70.9961 31.8359 -72.3145 34.9121 -72.3145 L 51.0742 -72.3145 L 51.0742 -53.7598 C 51.0742 -42.4316 56.2012 -37.3047 67.5293 -37.3047 L 86.1328 -37.3047 L 86.1328 -2.24609 C 86.1328 0.585938 85.0098 1.9043 81.9336 1.9043 Z M 68.5547 -51.123 C 66.1621 -51.123 64.8926 -52.3926 64.8926 -54.7852 L 64.8926 -71.9727 L 85.791 -51.123 Z M 65.332 -8.83789 L 65.332 -10.1074 L 64.6484 -15.918 L 66.5527 -13.6719 L 66.8457 -13.2324 C 67.627 -12.0605 69.4824 -11.0352 71.0449 -11.0352 C 74.3652 -11.0352 76.9043 -13.4277 76.9043 -16.5527 C 76.9043 -18.3594 76.3672 -19.6289 74.8047 -20.9961 L 64.209 -30.4199 C 62.6465 -31.8848 60.8398 -32.959 58.4473 -32.959 C 56.0059 -32.959 54.1992 -31.8848 52.6367 -30.4199 L 42.041 -20.9961 C 40.4785 -19.6289 39.9902 -18.3594 39.9902 -16.5527 C 39.9902 -13.4277 42.4805 -11.0352 45.8008 -11.0352 C 47.4609 -11.0352 49.0723 -12.0605 50 -13.2324 L 50.3418 -13.6719 L 52.1973 -15.918 L 51.5137 -10.1074 L 51.5137 -8.83789 C 51.5137 -4.93164 54.5898 -2.53906 58.4473 -2.53906 C 62.2559 -2.53906 65.332 -4.93164 65.332 -8.83789 Z"/>
  </g>
  <g id="Heavy-M" transform="matrix(1 0 0 1 2579.41 1126)">
   <path d="M 30.957 19.4824 L 83.5938 19.4824 C 95.3125 19.4824 102.1 12.6953 102.1 0.927734 L 102.1 -43.3594 C 102.1 -51.8555 100.635 -56.3477 95.166 -61.8652 L 74.1211 -83.0078 C 68.7012 -88.4277 64.1602 -89.8926 55.8105 -89.8926 L 30.957 -89.8926 C 19.1895 -89.8926 12.4512 -83.1055 12.4512 -71.3379 L 12.4512 0.927734 C 12.4512 12.7441 19.1895 19.4824 30.957 19.4824 Z M 33.252 3.66211 C 29.7363 3.66211 28.2715 2.00195 28.2715 -1.31836 L 28.2715 -69.0918 C 28.2715 -72.3633 29.7363 -74.0723 33.3008 -74.0723 L 50.7324 -74.0723 L 50.7324 -53.2227 C 50.7324 -43.1152 55.4199 -38.4277 65.4785 -38.4277 L 86.2793 -38.4277 L 86.2793 -1.31836 C 86.2793 2.00195 84.8145 3.66211 81.25 3.66211 Z M 66.4551 -50.7324 C 64.209 -50.7324 63.0371 -51.9043 63.0371 -54.1992 L 63.0371 -73.4375 L 85.6445 -50.7324 Z M 63.4277 -6.88477 L 63.4277 -12.0605 L 62.8418 -18.3594 L 65.2832 -15.625 L 66.5039 -14.2578 C 67.2852 -13.1348 68.9453 -12.3047 70.3613 -12.3047 C 73.3398 -12.3047 75.6348 -14.4531 75.6348 -17.2852 C 75.6348 -18.9453 75.1465 -20.1172 73.7305 -21.3379 L 62.3535 -31.5918 C 60.8887 -32.9102 59.3262 -33.7891 57.2754 -33.7891 C 55.2246 -33.7891 53.6133 -32.9102 52.1973 -31.5918 L 40.7715 -21.3379 C 39.4043 -20.1172 38.916 -18.9453 38.916 -17.2852 C 38.916 -14.4531 41.1621 -12.3047 44.1895 -12.3047 C 45.6543 -12.3047 47.1191 -13.1348 47.998 -14.2578 L 49.3164 -15.625 L 51.709 -18.3594 L 51.123 -12.0605 L 51.123 -6.88477 C 51.123 -3.41797 53.8574 -1.2207 57.2754 -1.2207 C 60.6934 -1.2207 63.4277 -3.41797 63.4277 -6.88477 Z"/>
  </g>
  <g id="Bold-M" transform="matrix(1 0 0 1 2284 1126)">
   <path d="M 29.7852 18.6523 L 82.1777 18.6523 C 93.3105 18.6523 99.5117 12.4512 99.5117 1.2207 L 99.5117 -43.0664 C 99.5117 -50.8301 98.291 -54.6875 93.3594 -59.668 L 70.3125 -83.0078 C 65.4785 -87.8418 61.4258 -89.1113 54.0527 -89.1113 L 29.7852 -89.1113 C 18.6035 -89.1113 12.4512 -82.8613 12.4512 -71.6797 L 12.4512 1.2207 C 12.4512 12.5 18.6035 18.6523 29.7852 18.6523 Z M 31.4453 5.56641 C 27.3926 5.56641 25.5371 3.56445 25.5371 -0.292969 L 25.5371 -70.1172 C 25.5371 -73.9746 27.3926 -76.0254 31.4453 -76.0254 L 50.3906 -76.0254 L 50.3906 -52.5879 C 50.3906 -43.8477 54.4922 -39.7461 63.2324 -39.7461 L 86.4258 -39.7461 L 86.4258 -0.292969 C 86.4258 3.56445 84.5703 5.56641 80.4688 5.56641 Z M 64.1602 -50.3418 C 62.0117 -50.3418 60.9863 -51.3672 60.9863 -53.5156 L 60.9863 -75.0977 L 85.498 -50.3418 Z M 61.2793 -4.73633 L 61.2793 -14.209 L 60.791 -21.0938 L 63.8184 -17.8223 L 66.1621 -15.332 C 66.8945 -14.4043 68.3105 -13.7207 69.5801 -13.7207 C 72.2168 -13.7207 74.2188 -15.5762 74.2188 -18.1641 C 74.2188 -19.6289 73.7305 -20.6543 72.5586 -21.6797 L 60.2539 -32.8613 C 58.9355 -34.0332 57.666 -34.7656 55.957 -34.7656 C 54.2969 -34.7656 52.9785 -34.0332 51.709 -32.8613 L 39.4043 -21.6797 C 38.1836 -20.6543 37.7441 -19.6289 37.7441 -18.1641 C 37.7441 -15.5762 39.6973 -13.7207 42.3828 -13.7207 C 43.6523 -13.7207 44.9707 -14.4043 45.752 -15.332 L 48.1445 -17.8223 L 51.1719 -21.0938 L 50.6348 -14.209 L 50.6348 -4.73633 C 50.6348 -1.75781 53.0273 0.244141 55.957 0.244141 C 58.8867 0.244141 61.2793 -1.75781 61.2793 -4.73633 Z"/>
  </g>
  <g id="Semibold-M" transform="matrix(1 0 0 1 1988.19 1126)">
   <path d="M 29.0039 18.1152 L 81.1523 18.1152 C 91.9434 18.1152 97.7051 12.2559 97.7051 1.41602 L 97.7051 -42.8711 C 97.7051 -50.0977 96.6797 -53.5645 92.1387 -58.1543 L 67.6758 -82.959 C 63.2324 -87.4512 59.5215 -88.5254 52.8809 -88.5254 L 29.0039 -88.5254 C 18.2129 -88.5254 12.4512 -82.7148 12.4512 -71.875 L 12.4512 1.41602 C 12.4512 12.3047 18.2129 18.1152 29.0039 18.1152 Z M 30.1758 6.93359 C 25.7324 6.93359 23.6328 4.63867 23.6328 0.439453 L 23.6328 -70.8496 C 23.6328 -75.0488 25.7324 -77.3438 30.1758 -77.3438 L 50.1465 -77.3438 L 50.1465 -52.1484 C 50.1465 -44.3359 53.9062 -40.625 61.6211 -40.625 L 86.5234 -40.625 L 86.5234 0.439453 C 86.5234 4.63867 84.375 6.93359 79.9805 6.93359 Z M 62.5488 -50.0488 C 60.498 -50.0488 59.5703 -50.9766 59.5703 -53.0762 L 59.5703 -76.2207 L 85.4004 -50.0488 Z M 59.8145 -3.22266 L 59.8145 -15.7227 L 59.375 -22.9492 L 62.8418 -19.3359 L 65.918 -16.1133 C 66.6504 -15.2344 67.8711 -14.6973 69.043 -14.6973 C 71.4355 -14.6973 73.2422 -16.3574 73.2422 -18.7012 C 73.2422 -20.0684 72.7539 -20.9961 71.7285 -21.9238 L 58.7891 -33.7402 C 57.5684 -34.8633 56.4941 -35.4004 55.0781 -35.4004 C 53.6621 -35.4004 52.5879 -34.8633 51.3672 -33.7402 L 38.4277 -21.9238 C 37.4023 -20.9961 36.9141 -20.0684 36.9141 -18.7012 C 36.9141 -16.3574 38.7207 -14.6973 41.1133 -14.6973 C 42.2852 -14.6973 43.457 -15.2344 44.2383 -16.1133 L 47.3633 -19.3359 L 50.7812 -22.9492 L 50.3418 -15.7227 L 50.3418 -3.22266 C 50.3418 -0.634766 52.4902 1.26953 55.0781 1.26953 C 57.666 1.26953 59.8145 -0.634766 59.8145 -3.22266 Z"/>
  </g>
  <g id="Medium-M" transform="matrix(1 0 0 1 1692.16 1126)">
   <path d="M 28.3691 17.6758 L 80.4199 17.6758 C 90.918 17.6758 96.3379 12.1582 96.3379 1.61133 L 96.3379 -42.7246 C 96.3379 -49.5605 95.459 -52.6855 91.2109 -57.0312 L 65.6738 -82.959 C 61.5234 -87.1582 58.1055 -88.1348 51.9531 -88.1348 L 28.3691 -88.1348 C 17.9199 -88.1348 12.4512 -82.6172 12.4512 -72.0215 L 12.4512 1.61133 C 12.4512 12.1582 17.9199 17.6758 28.3691 17.6758 Z M 29.1992 7.91016 C 24.5117 7.91016 22.168 5.46875 22.168 0.976562 L 22.168 -71.4355 C 22.168 -75.8789 24.5117 -78.3691 29.248 -78.3691 L 49.9512 -78.3691 L 49.9512 -51.8066 C 49.9512 -44.7266 53.418 -41.3086 60.4492 -41.3086 L 86.6211 -41.3086 L 86.6211 0.976562 C 86.6211 5.46875 84.2773 7.91016 79.541 7.91016 Z M 61.377 -49.8535 C 59.3262 -49.8535 58.4473 -50.7324 58.4473 -52.7344 L 58.4473 -77.0996 L 85.3027 -49.8535 Z M 58.6914 -2.09961 L 58.6914 -16.8457 L 58.3008 -24.4141 L 62.0605 -20.459 L 65.7227 -16.6992 C 66.4551 -15.918 67.5781 -15.4297 68.6035 -15.4297 C 70.8496 -15.4297 72.5098 -16.9922 72.5098 -19.1406 C 72.5098 -20.4102 72.0215 -21.2891 71.0938 -22.1191 L 57.666 -34.4238 C 56.543 -35.4492 55.6152 -35.9375 54.3945 -35.9375 C 53.1738 -35.9375 52.2461 -35.4492 51.123 -34.4238 L 37.6953 -22.1191 C 36.7676 -21.2891 36.2793 -20.4102 36.2793 -19.1406 C 36.2793 -16.9922 37.9395 -15.4297 40.1855 -15.4297 C 41.2109 -15.4297 42.334 -15.918 43.0664 -16.6992 L 46.7285 -20.459 L 50.4883 -24.4141 L 50.0977 -16.8457 L 50.0977 -2.09961 C 50.0977 0.244141 52.0508 2.05078 54.3945 2.05078 C 56.7383 2.05078 58.6914 0.244141 58.6914 -2.09961 Z"/>
  </g>
  <g id="Regular-M" transform="matrix(1 0 0 1 1396.33 1126)">
   <path d="M 27.5879 17.0898 L 79.4434 17.0898 C 89.5508 17.0898 94.5801 11.9629 94.5801 1.80664 L 94.5801 -42.5293 C 94.5801 -48.8281 93.8477 -51.5625 89.9414 -55.5664 L 63.0371 -82.959 C 59.3262 -86.7676 56.25 -87.5977 50.7812 -87.5977 L 27.5879 -87.5977 C 17.5293 -87.5977 12.4512 -82.4219 12.4512 -72.2656 L 12.4512 1.80664 C 12.4512 12.0117 17.4805 17.0898 27.5879 17.0898 Z M 27.9297 9.22852 C 22.9004 9.22852 20.3125 6.54297 20.3125 1.66016 L 20.3125 -72.1191 C 20.3125 -76.9531 22.9004 -79.7363 27.9785 -79.7363 L 49.707 -79.7363 L 49.707 -51.3672 C 49.707 -45.2148 52.7832 -42.1875 58.8867 -42.1875 L 86.7188 -42.1875 L 86.7188 1.66016 C 86.7188 6.54297 84.1309 9.22852 79.0527 9.22852 Z M 59.7656 -49.5605 C 57.8125 -49.5605 57.0801 -50.3418 57.0801 -52.2949 L 57.0801 -78.2227 L 85.2051 -49.5605 Z M 57.2266 -0.585938 L 57.2266 -18.3105 L 56.9336 -26.2695 L 61.084 -21.9727 L 65.4785 -17.4805 C 66.1621 -16.748 67.1387 -16.3574 68.1152 -16.3574 C 70.0684 -16.3574 71.5332 -17.7734 71.5332 -19.7266 C 71.5332 -20.8496 71.0938 -21.6797 70.3125 -22.3633 L 56.25 -35.3027 C 55.2246 -36.2305 54.4434 -36.5723 53.5156 -36.5723 C 52.5879 -36.5723 51.8066 -36.2305 50.7812 -35.3027 L 36.7188 -22.3633 C 35.9375 -21.6797 35.498 -20.8496 35.498 -19.7266 C 35.498 -17.7734 36.9141 -16.3574 38.916 -16.3574 C 39.8438 -16.3574 40.8691 -16.748 41.5527 -17.4805 L 45.9473 -21.9727 L 50.0977 -26.2695 L 49.8047 -18.3105 L 49.8047 -0.585938 C 49.8047 1.41602 51.5137 3.02734 53.5156 3.02734 C 55.5176 3.02734 57.2266 1.41602 57.2266 -0.585938 Z"/>
  </g>
  <g id="Light-M" transform="matrix(1 0 0 1 1100.33 1126)">
   <path d="M 26.709 16.8457 L 78.9062 16.8457 C 88.3789 16.8457 93.1641 11.9629 93.1641 2.44141 L 93.1641 -43.3594 C 93.1641 -48.6328 92.4805 -50.9766 89.2578 -54.2969 L 60.5469 -83.3008 C 57.4219 -86.4746 54.8828 -87.207 50.1465 -87.207 L 26.709 -87.207 C 17.334 -87.207 12.4512 -82.373 12.4512 -72.8516 L 12.4512 2.44141 C 12.4512 11.9629 17.2852 16.8457 26.709 16.8457 Z M 27.002 10.791 C 21.3867 10.791 18.5059 7.8125 18.5059 2.29492 L 18.5059 -72.7051 C 18.5059 -78.0762 21.3867 -81.2012 27.0508 -81.2012 L 49.8535 -81.2012 L 49.8535 -51.8066 C 49.8535 -46.2402 52.6855 -43.6035 58.1055 -43.6035 L 87.1582 -43.6035 L 87.1582 2.29492 C 87.1582 7.8125 84.2285 10.791 78.6133 10.791 Z M 58.7402 -49.3164 C 56.4941 -49.3164 55.5664 -50.1953 55.5664 -52.4414 L 55.5664 -79.9805 L 85.9375 -49.3164 Z M 55.7129 0.634766 L 55.7129 -20.0684 L 55.4688 -28.9551 L 61.8164 -22.4609 L 66.0645 -18.1641 C 66.5527 -17.5781 67.334 -17.2852 68.0664 -17.2852 C 69.5801 -17.2852 70.752 -18.4082 70.752 -19.9219 C 70.752 -20.9473 70.3125 -21.582 69.6289 -22.168 L 54.9316 -36.1328 C 54.1992 -36.8652 53.5645 -37.1094 52.832 -37.1094 C 52.0996 -37.1094 51.4648 -36.8652 50.6836 -36.1328 L 35.9863 -22.168 C 35.3516 -21.582 34.8633 -20.9473 34.8633 -19.9219 C 34.8633 -18.4082 35.9863 -17.2852 37.5488 -17.2852 C 38.2812 -17.2852 39.0625 -17.5781 39.5996 -18.1641 L 43.8477 -22.4609 L 50.1953 -28.9551 L 49.9512 -20.0684 L 49.9512 0.634766 C 49.9512 2.19727 51.2695 3.4668 52.832 3.4668 C 54.3945 3.4668 55.7129 2.19727 55.7129 0.634766 Z"/>
  </g>
  <g id="Thin-M" transform="matrix(1 0 0 1 804.518 1126)">
   <path d="M 25.5859 16.4551 L 78.2227 16.4551 C 86.8164 16.4551 91.3574 11.9141 91.3574 3.27148 L 91.3574 -44.4824 C 91.3574 -48.3887 90.7227 -50.1953 88.3301 -52.6367 L 57.3242 -83.7402 C 54.9316 -86.084 53.0762 -86.7676 49.3164 -86.7676 L 25.5859 -86.7676 C 17.041 -86.7676 12.4512 -82.2266 12.4512 -73.584 L 12.4512 3.27148 C 12.4512 11.9629 16.9434 16.4551 25.5859 16.4551 Z M 25.7324 12.8418 C 19.3848 12.8418 16.0645 9.52148 16.0645 3.17383 L 16.0645 -73.4863 C 16.0645 -79.5898 19.3848 -83.1543 25.7812 -83.1543 L 50.0977 -83.1543 L 50.0977 -52.3926 C 50.0977 -47.5586 52.5391 -45.4102 57.0801 -45.4102 L 87.7441 -45.4102 L 87.7441 3.17383 C 87.7441 9.52148 84.4238 12.8418 78.0273 12.8418 Z M 57.373 -48.9258 C 54.6875 -48.9258 53.6133 -50 53.6133 -52.6855 L 53.6133 -82.2754 L 86.8652 -48.9258 Z M 53.6621 2.24609 L 53.6621 -22.4121 L 53.5156 -32.5195 L 62.7441 -23.1445 L 66.748 -18.9941 C 67.041 -18.7012 67.5781 -18.5059 68.0664 -18.5059 C 68.9941 -18.5059 69.7754 -19.2383 69.7754 -20.2148 C 69.7754 -21.0938 69.2871 -21.4844 68.75 -21.9727 L 53.2227 -37.2559 C 52.7832 -37.6465 52.3438 -37.8418 51.9043 -37.8418 C 51.4648 -37.8418 50.9766 -37.6465 50.5859 -37.2559 L 35.0098 -21.9727 C 34.5215 -21.4844 34.0332 -21.0938 34.0332 -20.2148 C 34.0332 -19.2383 34.7656 -18.5059 35.7422 -18.5059 C 36.2305 -18.5059 36.7188 -18.7012 37.0117 -18.9941 L 41.0645 -23.1445 L 50.293 -32.5195 L 50.1465 -22.4121 L 50.1465 2.24609 C 50.1465 3.22266 50.9277 4.00391 51.9043 4.00391 C 52.8809 4.00391 53.6621 3.22266 53.6621 2.24609 Z"/>
  </g>
  <g id="Ultralight-M" transform="matrix(1 0 0 1 508.295 1126)">
   <path d="M 25 16.2598 L 77.8809 16.2598 C 86.0352 16.2598 90.3809 11.9141 90.3809 3.71094 L 90.3809 -45.0195 C 90.3809 -48.291 89.7949 -49.8047 87.8418 -51.7578 L 55.6152 -83.9355 C 53.6621 -85.9375 52.1484 -86.5234 48.877 -86.5234 L 25 -86.5234 C 16.9434 -86.5234 12.4512 -82.1777 12.4512 -73.9746 L 12.4512 3.71094 C 12.4512 11.9141 16.7969 16.2598 25 16.2598 Z M 25.0977 13.8672 C 18.3594 13.8672 14.8438 10.3516 14.8438 3.61328 L 14.8438 -73.877 C 14.8438 -80.3711 18.3594 -84.1309 25.0977 -84.1309 L 50.2441 -84.1309 L 50.2441 -52.6855 C 50.2441 -48.1934 52.4414 -46.3867 56.543 -46.3867 L 87.9883 -46.3867 L 87.9883 3.61328 C 87.9883 10.3516 84.5215 13.8672 77.7344 13.8672 Z M 56.6406 -48.7793 C 53.7598 -48.7793 52.6367 -49.9023 52.6367 -52.7832 L 52.6367 -83.4961 L 87.3535 -48.7793 Z M 52.6367 3.07617 L 52.6367 -23.584 L 52.4902 -34.3262 L 63.2324 -23.4863 L 67.1387 -19.4824 C 67.334 -19.2871 67.6758 -19.0918 68.0664 -19.0918 C 68.7012 -19.0918 69.2383 -19.6289 69.2383 -20.3613 C 69.2383 -21.1914 68.75 -21.4355 68.3105 -21.875 L 52.3438 -37.793 C 52.0996 -38.0371 51.709 -38.2324 51.416 -38.2324 C 51.123 -38.2324 50.7812 -38.0371 50.5371 -37.793 L 34.5215 -21.875 C 34.082 -21.4355 33.5938 -21.1914 33.5938 -20.3613 C 33.5938 -19.6289 34.1309 -19.0918 34.8145 -19.0918 C 35.1562 -19.0918 35.5469 -19.2871 35.6934 -19.4824 L 39.6484 -23.4863 L 50.3418 -34.3262 L 50.2441 -23.584 L 50.2441 3.07617 C 50.2441 3.71094 50.7812 4.29688 51.416 4.29688 C 52.0996 4.29688 52.6367 3.71094 52.6367 3.07617 Z"/>
  </g>
  <g id="Black-S" transform="matrix(1 0 0 1 2887.7 696)">
   <path d="M 25 8.1543 L 66.4062 8.1543 C 75.9766 8.1543 81.6406 2.49023 81.6406 -7.08008 L 81.6406 -41.748 C 81.6406 -48.9258 80.3711 -52.832 75.7324 -57.4707 L 60.5469 -72.6562 C 55.9082 -77.2949 52.002 -78.5645 44.8242 -78.5645 L 25 -78.5645 C 15.4297 -78.5645 9.76562 -72.9004 9.76562 -63.3301 L 9.76562 -7.08008 C 9.76562 2.49023 15.4297 8.1543 25 8.1543 Z M 27.2461 -6.00586 C 24.8047 -6.00586 23.9258 -7.08008 23.9258 -9.32617 L 23.9258 -61.084 C 23.9258 -63.3301 24.8047 -64.4043 27.2461 -64.4043 L 39.9902 -64.4043 L 39.9902 -49.707 C 39.9902 -40.918 43.9941 -36.9141 52.7832 -36.9141 L 67.4805 -36.9141 L 67.4805 -9.32617 C 67.4805 -7.08008 66.6016 -6.00586 64.1602 -6.00586 Z M 53.5645 -47.6562 C 51.709 -47.6562 50.7324 -48.6328 50.7324 -50.4883 L 50.7324 -64.1113 L 67.1875 -47.6562 Z M 51.0742 -14.4043 L 51.0742 -15.6738 L 50.5371 -20.2637 L 52.0508 -18.5059 L 52.3438 -18.0664 C 52.9785 -17.1387 54.3945 -16.3574 55.6152 -16.3574 C 58.2031 -16.3574 60.1562 -18.2129 60.1562 -20.6543 C 60.1562 -22.0703 59.7656 -23.0469 58.5449 -24.1211 L 50.1953 -31.543 C 48.9746 -32.666 47.5586 -33.4961 45.7031 -33.4961 C 43.8477 -33.4961 42.4316 -32.666 41.2109 -31.543 L 32.8613 -24.1211 C 31.6406 -23.0469 31.25 -22.0703 31.25 -20.6543 C 31.25 -18.2129 33.2031 -16.3574 35.791 -16.3574 C 37.0605 -16.3574 38.3301 -17.1387 39.0625 -18.0664 L 39.4043 -18.5059 L 40.8691 -20.2637 L 40.332 -15.6738 L 40.332 -14.4043 C 40.332 -11.377 42.7246 -9.52148 45.7031 -9.52148 C 48.6816 -9.52148 51.0742 -11.377 51.0742 -14.4043 Z"/>
  </g>
  <g id="Heavy-S" transform="matrix(1 0 0 1 2591.79 696)">
   <path d="M 24.3164 7.61719 L 65.4785 7.61719 C 74.7559 7.61719 80.0293 2.29492 80.0293 -6.93359 L 80.0293 -41.4551 C 80.0293 -48.2422 78.9062 -51.7578 74.5605 -56.1035 L 58.2031 -72.6074 C 53.9062 -76.9043 50.293 -78.0762 43.7012 -78.0762 L 24.3164 -78.0762 C 15.0391 -78.0762 9.76562 -72.7539 9.76562 -63.4766 L 9.76562 -6.93359 C 9.76562 2.34375 15.0391 7.61719 24.3164 7.61719 Z M 26.0742 -4.83398 C 23.3887 -4.83398 22.2656 -6.15234 22.2656 -8.69141 L 22.2656 -61.7188 C 22.2656 -64.3066 23.3887 -65.5762 26.123 -65.5762 L 39.6973 -65.5762 L 39.6973 -49.2188 C 39.6973 -41.3086 43.4082 -37.6465 51.3184 -37.6465 L 67.5293 -37.6465 L 67.5293 -8.69141 C 67.5293 -6.15234 66.4062 -4.83398 63.6719 -4.83398 Z M 52.0996 -47.4121 C 50.3418 -47.4121 49.4629 -48.291 49.4629 -50 L 49.4629 -65.0391 L 66.9922 -47.4121 Z M 49.8047 -13.0371 L 49.8047 -16.9434 L 49.3164 -21.8262 L 50.9766 -19.9219 L 52.0508 -18.75 C 52.6855 -17.9199 53.9551 -17.2363 55.0781 -17.2363 C 57.4707 -17.2363 59.2773 -18.9453 59.2773 -21.1914 C 59.2773 -22.5098 58.8867 -23.4375 57.8125 -24.3652 L 48.9258 -32.3242 C 47.7539 -33.3984 46.5332 -34.082 44.873 -34.082 C 43.2617 -34.082 42.041 -33.3984 40.8691 -32.3242 L 31.9824 -24.3652 C 30.9082 -23.4375 30.5176 -22.5098 30.5176 -21.1914 C 30.5176 -18.9453 32.3242 -17.2363 34.7168 -17.2363 C 35.8398 -17.2363 37.0605 -17.9199 37.7441 -18.75 L 38.8672 -19.9219 L 40.4785 -21.8262 L 39.9902 -16.9434 L 39.9902 -13.0371 C 39.9902 -10.3027 42.1875 -8.54492 44.873 -8.54492 C 47.6074 -8.54492 49.8047 -10.3027 49.8047 -13.0371 Z"/>
  </g>
  <g id="Bold-S" transform="matrix(1 0 0 1 2295.98 696)">
   <path d="M 23.5352 7.03125 L 64.4531 7.03125 C 73.3398 7.03125 78.2227 2.09961 78.2227 -6.78711 L 78.2227 -41.1621 C 78.2227 -47.4609 77.2949 -50.5859 73.291 -54.6387 L 55.5664 -72.5586 C 51.6602 -76.5137 48.3887 -77.4902 42.4805 -77.4902 L 23.5352 -77.4902 C 14.6484 -77.4902 9.76562 -72.5586 9.76562 -63.623 L 9.76562 -6.78711 C 9.76562 2.14844 14.6484 7.03125 23.5352 7.03125 Z M 24.8047 -3.56445 C 21.7773 -3.56445 20.3613 -5.07812 20.3613 -7.95898 L 20.3613 -62.4512 C 20.3613 -65.332 21.7773 -66.8945 24.8047 -66.8945 L 39.4043 -66.8945 L 39.4043 -48.6816 C 39.4043 -41.748 42.7246 -38.4766 49.6582 -38.4766 L 67.627 -38.4766 L 67.627 -7.95898 C 67.627 -5.07812 66.2109 -3.56445 63.1348 -3.56445 Z M 50.4395 -47.1191 C 48.8281 -47.1191 48.0957 -47.9004 48.0957 -49.5117 L 48.0957 -66.0645 L 66.7969 -47.1191 Z M 48.3398 -11.5723 L 48.3398 -18.4082 L 47.9492 -23.584 L 49.8047 -21.5332 L 51.709 -19.5312 C 52.3438 -18.75 53.4668 -18.1641 54.4922 -18.1641 C 56.6406 -18.1641 58.3008 -19.7266 58.3008 -21.8262 C 58.3008 -22.998 57.9102 -23.8281 56.9824 -24.6582 L 47.4609 -33.2031 C 46.3867 -34.1797 45.3613 -34.7656 43.9941 -34.7656 C 42.627 -34.7656 41.6016 -34.1797 40.5273 -33.2031 L 31.0059 -24.6582 C 30.0781 -23.8281 29.6875 -22.998 29.6875 -21.8262 C 29.6875 -19.7266 31.2988 -18.1641 33.4961 -18.1641 C 34.5215 -18.1641 35.5957 -18.75 36.2793 -19.5312 L 38.2324 -21.5332 L 40.0391 -23.584 L 39.6484 -18.4082 L 39.6484 -11.5723 C 39.6484 -9.13086 41.6016 -7.4707 43.9941 -7.4707 C 46.3867 -7.4707 48.3398 -9.13086 48.3398 -11.5723 Z"/>
  </g>
  <g id="Semibold-S" transform="matrix(1 0 0 1 1999.91 696)">
   <path d="M 22.998 6.64062 L 63.7695 6.64062 C 72.4121 6.64062 76.9531 2.00195 76.9531 -6.68945 L 76.9531 -40.918 C 76.9531 -46.9238 76.1719 -49.7559 72.4121 -53.5645 L 53.7598 -72.5098 C 50.0977 -76.2207 47.0703 -77.0996 41.6016 -77.0996 L 22.998 -77.0996 C 14.3555 -77.0996 9.76562 -72.4609 9.76562 -63.7695 L 9.76562 -6.68945 C 9.76562 2.00195 14.3555 6.64062 22.998 6.64062 Z M 23.9258 -2.68555 C 20.6543 -2.68555 19.0918 -4.39453 19.0918 -7.4707 L 19.0918 -62.9883 C 19.0918 -66.0645 20.6543 -67.7734 23.9258 -67.7734 L 39.209 -67.7734 L 39.209 -48.3398 C 39.209 -42.041 42.2363 -39.0137 48.4863 -39.0137 L 67.6758 -39.0137 L 67.6758 -7.4707 C 67.6758 -4.39453 66.0645 -2.68555 62.793 -2.68555 Z M 49.3164 -46.9238 C 47.8027 -46.9238 47.1191 -47.6074 47.1191 -49.1211 L 47.1191 -66.7969 L 66.6504 -46.9238 Z M 47.3633 -10.498 L 47.3633 -19.3848 L 46.9727 -24.7559 L 48.9746 -22.6562 L 51.4648 -20.0684 C 52.0996 -19.3359 53.125 -18.8477 54.1016 -18.8477 C 56.1035 -18.8477 57.6172 -20.2637 57.6172 -22.2656 C 57.6172 -23.291 57.2754 -24.1211 56.3965 -24.8535 L 46.4844 -33.8379 C 45.4102 -34.7656 44.5312 -35.2051 43.3594 -35.2051 C 42.1875 -35.2051 41.3086 -34.7656 40.2832 -33.8379 L 30.3223 -24.8535 C 29.4922 -24.1211 29.1016 -23.291 29.1016 -22.2656 C 29.1016 -20.2637 30.6152 -18.8477 32.666 -18.8477 C 33.5938 -18.8477 34.6191 -19.3359 35.2539 -20.0684 L 37.793 -22.6562 L 39.7461 -24.7559 L 39.4043 -19.3848 L 39.4043 -10.498 C 39.4043 -8.34961 41.2109 -6.73828 43.3594 -6.73828 C 45.5078 -6.73828 47.3633 -8.34961 47.3633 -10.498 Z"/>
  </g>
  <g id="Medium-S" transform="matrix(1 0 0 1 1703.66 696)">
   <path d="M 22.5586 6.29883 L 63.2324 6.29883 C 71.6797 6.29883 76.0254 1.9043 76.0254 -6.64062 L 76.0254 -40.7715 C 76.0254 -46.4844 75.293 -49.1211 71.7285 -52.7832 L 52.3926 -72.5098 C 48.9258 -76.0254 46.0449 -76.8066 40.918 -76.8066 L 22.5586 -76.8066 C 14.1113 -76.8066 9.76562 -72.3633 9.76562 -63.8672 L 9.76562 -6.64062 C 9.76562 1.9043 14.1113 6.29883 22.5586 6.29883 Z M 23.2422 -2.00195 C 19.8242 -2.00195 18.0664 -3.85742 18.0664 -7.12891 L 18.0664 -63.3789 C 18.0664 -66.6504 19.8242 -68.457 23.291 -68.457 L 39.0625 -68.457 L 39.0625 -48.0469 C 39.0625 -42.2852 41.8945 -39.4531 47.6562 -39.4531 L 67.6758 -39.4531 L 67.6758 -7.12891 C 67.6758 -3.85742 65.9668 -2.00195 62.5 -2.00195 Z M 48.4863 -46.7773 C 47.0215 -46.7773 46.3867 -47.4121 46.3867 -48.877 L 46.3867 -67.334 L 66.5527 -46.7773 Z M 46.582 -9.7168 L 46.582 -20.1172 L 46.2891 -25.6836 L 48.3398 -23.4863 L 51.2695 -20.459 C 51.9043 -19.7754 52.832 -19.3359 53.7598 -19.3359 C 55.6641 -19.3359 57.0801 -20.7031 57.0801 -22.5586 C 57.0801 -23.584 56.7383 -24.3652 55.957 -25 L 45.7031 -34.2773 C 44.7266 -35.2051 43.8965 -35.5469 42.8711 -35.5469 C 41.8457 -35.5469 41.0645 -35.2051 40.0879 -34.2773 L 29.7852 -25 C 29.0527 -24.3652 28.7109 -23.584 28.7109 -22.5586 C 28.7109 -20.7031 30.0781 -19.3359 32.0312 -19.3359 C 32.9102 -19.3359 33.8379 -19.7754 34.4727 -20.459 L 37.4512 -23.4863 L 39.502 -25.6836 L 39.209 -20.1172 L 39.209 -9.7168 C 39.209 -7.71484 40.8691 -6.20117 42.8711 -6.20117 C 44.873 -6.20117 46.582 -7.71484 46.582 -9.7168 Z"/>
  </g>
  <g id="Regular-S" transform="matrix(1 0 0 1 1407.56 696)">
   <path d="M 22.0215 5.9082 L 62.5 5.9082 C 70.7031 5.9082 74.8047 1.75781 74.8047 -6.54297 L 74.8047 -40.5762 C 74.8047 -45.9473 74.2188 -48.291 70.8496 -51.7578 L 50.5859 -72.4609 C 47.4121 -75.7324 44.7754 -76.416 40.0879 -76.416 L 22.0215 -76.416 C 13.8184 -76.416 9.76562 -72.2656 9.76562 -63.9648 L 9.76562 -6.54297 C 9.76562 1.80664 13.8184 5.9082 22.0215 5.9082 Z M 22.3633 -1.12305 C 18.7012 -1.12305 16.7969 -3.125 16.7969 -6.64062 L 16.7969 -63.8672 C 16.7969 -67.3828 18.7012 -69.3848 22.4121 -69.3848 L 38.8672 -69.3848 L 38.8672 -47.6562 C 38.8672 -42.5781 41.4551 -39.9902 46.5332 -39.9902 L 67.7246 -39.9902 L 67.7246 -6.64062 C 67.7246 -3.125 65.8203 -1.12305 62.1582 -1.12305 Z M 47.3633 -46.582 C 45.9961 -46.582 45.4102 -47.168 45.4102 -48.5352 L 45.4102 -68.0664 L 66.4062 -46.582 Z M 45.6055 -8.69141 L 45.6055 -21.1426 L 45.3125 -26.9043 L 47.5098 -24.6094 L 51.0742 -20.9961 C 51.6602 -20.3613 52.5391 -20.0195 53.3691 -20.0195 C 55.127 -20.0195 56.4453 -21.2402 56.4453 -22.998 C 56.4453 -23.877 56.1035 -24.6582 55.4199 -25.1953 L 44.7266 -34.9121 C 43.7988 -35.7422 43.1152 -36.0352 42.2852 -36.0352 C 41.4062 -36.0352 40.7715 -35.7422 39.8438 -34.9121 L 29.1504 -25.1953 C 28.4668 -24.6582 28.125 -23.877 28.125 -22.998 C 28.125 -21.2402 29.3945 -20.0195 31.2012 -20.0195 C 31.9824 -20.0195 32.8613 -20.3613 33.4961 -20.9961 L 37.0117 -24.6094 L 39.209 -26.9043 L 38.916 -21.1426 L 38.916 -8.69141 C 38.916 -6.93359 40.4785 -5.46875 42.2852 -5.46875 C 44.043 -5.46875 45.6055 -6.93359 45.6055 -8.69141 Z"/>
  </g>
  <g id="Light-S" transform="matrix(1 0 0 1 1111.48 696)">
   <path d="M 21.2891 5.66406 L 62.0605 5.66406 C 69.6777 5.66406 73.5352 1.75781 73.5352 -5.95703 L 73.5352 -41.3086 C 73.5352 -45.8008 72.998 -47.8027 70.2148 -50.6348 L 48.3887 -72.7539 C 45.752 -75.4883 43.5547 -76.123 39.5508 -76.123 L 21.2891 -76.123 C 13.6719 -76.123 9.76562 -72.168 9.76562 -64.4531 L 9.76562 -5.95703 C 9.76562 1.75781 13.623 5.66406 21.2891 5.66406 Z M 21.5332 0.244141 C 17.3828 0.244141 15.1855 -2.00195 15.1855 -6.05469 L 15.1855 -64.3555 C 15.1855 -68.3594 17.3828 -70.6543 21.582 -70.6543 L 39.0137 -70.6543 L 39.0137 -48.0469 C 39.0137 -43.457 41.3574 -41.2598 45.8008 -41.2598 L 68.1152 -41.2598 L 68.1152 -6.05469 C 68.1152 -2.00195 65.9668 0.244141 61.7676 0.244141 Z M 46.4355 -46.3379 C 44.7754 -46.3379 44.1406 -47.0215 44.1406 -48.6816 L 44.1406 -69.5801 L 67.041 -46.3379 Z M 44.2383 -7.61719 L 44.2383 -22.6562 L 44.043 -29.2969 L 48.1445 -25.0488 L 51.5625 -21.582 C 52.002 -21.0938 52.6855 -20.8008 53.3691 -20.8008 C 54.6875 -20.8008 55.7617 -21.7773 55.7617 -23.1934 C 55.7617 -23.9746 55.3711 -24.5605 54.834 -25.0488 L 43.5547 -35.6445 C 42.8711 -36.2793 42.334 -36.5234 41.6504 -36.5234 C 41.0156 -36.5234 40.4785 -36.2793 39.7461 -35.6445 L 28.4668 -25.0488 C 27.9297 -24.5605 27.5879 -23.9746 27.5879 -23.1934 C 27.5879 -21.7773 28.5645 -20.8008 29.9805 -20.8008 C 30.6152 -20.8008 31.2988 -21.0938 31.7871 -21.582 L 35.1562 -25.0488 L 39.3066 -29.2969 L 39.0625 -22.6562 L 39.0625 -7.61719 C 39.0625 -6.20117 40.2832 -5.07812 41.6504 -5.07812 C 43.0664 -5.07812 44.2383 -6.20117 44.2383 -7.61719 Z"/>
  </g>
  <g id="Thin-S" transform="matrix(1 0 0 1 815.578 696)">
   <path d="M 20.2637 5.32227 L 61.4258 5.32227 C 68.3594 5.32227 71.9238 1.70898 71.9238 -5.22461 L 71.9238 -42.2363 C 71.9238 -45.6055 71.4355 -47.1191 69.3848 -49.1699 L 45.5078 -73.1445 C 43.5547 -75.1465 41.9434 -75.6836 38.8184 -75.6836 L 20.2637 -75.6836 C 13.4277 -75.6836 9.76562 -72.0703 9.76562 -65.1367 L 9.76562 -5.22461 C 9.76562 1.75781 13.3789 5.32227 20.2637 5.32227 Z M 20.4102 2.05078 C 15.5762 2.05078 13.0859 -0.488281 13.0859 -5.32227 L 13.0859 -65.0391 C 13.0859 -69.7266 15.5762 -72.4121 20.459 -72.4121 L 39.209 -72.4121 L 39.209 -48.5352 C 39.209 -44.6289 41.2109 -42.8711 44.9219 -42.8711 L 68.6035 -42.8711 L 68.6035 -5.32227 C 68.6035 -0.488281 66.1133 2.05078 61.2793 2.05078 Z M 45.2148 -46.0449 C 43.2129 -46.0449 42.3828 -46.8262 42.3828 -48.8281 L 42.3828 -71.6309 L 67.8711 -46.0449 Z M 42.4316 -6.20117 L 42.4316 -24.707 L 42.2852 -32.4219 L 48.9746 -25.6348 L 52.1973 -22.3633 C 52.4414 -22.0703 52.8809 -21.875 53.3203 -21.875 C 54.1992 -21.875 54.8828 -22.5098 54.8828 -23.4375 C 54.8828 -24.1211 54.4922 -24.4629 54.0527 -24.9023 L 42.041 -36.5723 C 41.6504 -36.9629 41.2598 -37.1582 40.8691 -37.1582 C 40.4297 -37.1582 40.0391 -36.9629 39.6484 -36.5723 L 27.6367 -24.9023 C 27.1973 -24.4629 26.8555 -24.1211 26.8555 -23.4375 C 26.8555 -22.5098 27.4902 -21.875 28.3691 -21.875 C 28.8086 -21.875 29.248 -22.0703 29.4922 -22.3633 L 32.7148 -25.6348 L 39.4043 -32.4219 L 39.2578 -24.707 L 39.2578 -6.20117 C 39.2578 -5.32227 39.9902 -4.58984 40.8691 -4.58984 C 41.6992 -4.58984 42.4316 -5.32227 42.4316 -6.20117 Z"/>
  </g>
  <g id="Ultralight-S" transform="matrix(1 0 0 1 519.281 696)">
   <path d="M 19.7266 5.17578 L 61.084 5.17578 C 67.627 5.17578 71.0938 1.70898 71.0938 -4.83398 L 71.0938 -42.7734 C 71.0938 -45.5078 70.6055 -46.7773 68.9453 -48.4375 L 44.043 -73.3398 C 42.3828 -75 41.1133 -75.4883 38.4277 -75.4883 L 19.7266 -75.4883 C 13.3301 -75.4883 9.76562 -72.0215 9.76562 -65.4785 L 9.76562 -4.83398 C 9.76562 1.70898 13.2324 5.17578 19.7266 5.17578 Z M 19.873 2.97852 C 14.6484 2.97852 11.9629 0.244141 11.9629 -4.93164 L 11.9629 -65.3809 C 11.9629 -70.4102 14.6484 -73.291 19.873 -73.291 L 39.3066 -73.291 L 39.3066 -48.8281 C 39.3066 -45.2148 41.1133 -43.7012 44.4336 -43.7012 L 68.8965 -43.7012 L 68.8965 -4.93164 C 68.8965 0.244141 66.2109 2.97852 60.9863 2.97852 Z M 44.5801 -45.8984 C 42.3828 -45.8984 41.5039 -46.7285 41.5039 -48.9746 L 41.5039 -72.7051 L 68.3105 -45.8984 Z M 41.5039 -5.41992 L 41.5039 -25.7812 L 41.4062 -34.0332 L 49.4141 -25.9766 L 52.4902 -22.7539 C 52.6855 -22.6074 52.9785 -22.4121 53.3203 -22.4121 C 53.9062 -22.4121 54.3945 -22.9004 54.3945 -23.5352 C 54.3945 -24.2188 54.0039 -24.4141 53.6621 -24.7559 L 41.2598 -37.1094 C 41.0156 -37.3047 40.7227 -37.4512 40.4297 -37.4512 C 40.1367 -37.4512 39.8438 -37.3047 39.5996 -37.1094 L 27.1973 -24.7559 C 26.8555 -24.4141 26.4648 -24.2188 26.4648 -23.5352 C 26.4648 -22.9004 26.9531 -22.4121 27.5391 -22.4121 C 27.832 -22.4121 28.1738 -22.6074 28.3203 -22.7539 L 31.4453 -25.9766 L 39.4531 -34.0332 L 39.3555 -25.7812 L 39.3555 -5.41992 C 39.3555 -4.83398 39.8438 -4.3457 40.4297 -4.3457 C 41.0156 -4.3457 41.5039 -4.83398 41.5039 -5.41992 Z"/>
  </g>
 </g>
</svg>
