<?xml version="1.0" encoding="UTF-8"?>
<!--Generator: Apple Native CoreSVG 129-->
<!DOCTYPE svg
PUBLIC "-//W3C//DTD SVG 1.1//EN"
       "http://www.w3.org/Graphics/SVG/1.1/DTD/svg11.dtd">
<svg version="1.1" xmlns="http://www.w3.org/2000/svg" xmlns:xlink="http://www.w3.org/1999/xlink" width="3300" height="2200">
 <!--glyph: "uni10033E.medium", point size: 100.000000, font version: "Version 16.0d9e1", template writer version: "8"-->
 <g id="Notes">
  <rect height="2200" id="artboard" style="fill:white;opacity:1" width="3300" x="0" y="0"/>
  <line id="" style="fill:none;stroke:black;opacity:1;stroke-width:0.5;" x1="263" x2="3036" y1="292" y2="292"/>
  <text style="stroke:none;fill:black;font-family:-apple-system,&quot;SF Pro Display&quot;,&quot;SF Pro Text&quot;,Helvetica,sans-serif;font-weight:bold;" transform="matrix(1 0 0 1 263 322)">Weight/Scale Variations</text>
  <text style="stroke:none;fill:black;font-family:-apple-system,&quot;SF Pro Display&quot;,&quot;SF Pro Text&quot;,Helvetica,sans-serif;text-anchor:middle;" transform="matrix(1 0 0 1 559.711 322)">Ultralight</text>
  <text style="stroke:none;fill:black;font-family:-apple-system,&quot;SF Pro Display&quot;,&quot;SF Pro Text&quot;,Helvetica,sans-serif;text-anchor:middle;" transform="matrix(1 0 0 1 856.422 322)">Thin</text>
  <text style="stroke:none;fill:black;font-family:-apple-system,&quot;SF Pro Display&quot;,&quot;SF Pro Text&quot;,Helvetica,sans-serif;text-anchor:middle;" transform="matrix(1 0 0 1 1153.13 322)">Light</text>
  <text style="stroke:none;fill:black;font-family:-apple-system,&quot;SF Pro Display&quot;,&quot;SF Pro Text&quot;,Helvetica,sans-serif;text-anchor:middle;" transform="matrix(1 0 0 1 1449.84 322)">Regular</text>
  <text style="stroke:none;fill:black;font-family:-apple-system,&quot;SF Pro Display&quot;,&quot;SF Pro Text&quot;,Helvetica,sans-serif;text-anchor:middle;" transform="matrix(1 0 0 1 1746.56 322)">Medium</text>
  <text style="stroke:none;fill:black;font-family:-apple-system,&quot;SF Pro Display&quot;,&quot;SF Pro Text&quot;,Helvetica,sans-serif;text-anchor:middle;" transform="matrix(1 0 0 1 2043.27 322)">Semibold</text>
  <text style="stroke:none;fill:black;font-family:-apple-system,&quot;SF Pro Display&quot;,&quot;SF Pro Text&quot;,Helvetica,sans-serif;text-anchor:middle;" transform="matrix(1 0 0 1 2339.98 322)">Bold</text>
  <text style="stroke:none;fill:black;font-family:-apple-system,&quot;SF Pro Display&quot;,&quot;SF Pro Text&quot;,Helvetica,sans-serif;text-anchor:middle;" transform="matrix(1 0 0 1 2636.69 322)">Heavy</text>
  <text style="stroke:none;fill:black;font-family:-apple-system,&quot;SF Pro Display&quot;,&quot;SF Pro Text&quot;,Helvetica,sans-serif;text-anchor:middle;" transform="matrix(1 0 0 1 2933.4 322)">Black</text>
  <line id="" style="fill:none;stroke:black;opacity:1;stroke-width:0.5;" x1="263" x2="3036" y1="1903" y2="1903"/>
  <g id="" transform="matrix(1 0 0 1 263 1933)">
   <path d="M 9.24805 0.830078 C 13.5547 0.830078 17.1387 -2.74414 17.1387 -7.05078 C 17.1387 -11.3574 13.5449 -14.9316 9.23828 -14.9316 C 4.94141 -14.9316 1.36719 -11.3574 1.36719 -7.05078 C 1.36719 -2.74414 4.95117 0.830078 9.24805 0.830078 Z M 9.24805 -0.654297 C 5.70312 -0.654297 2.87109 -3.49609 2.87109 -7.05078 C 2.87109 -10.6055 5.69336 -13.4473 9.23828 -13.4473 C 12.793 -13.4473 15.6348 -10.6055 15.6445 -7.05078 C 15.6543 -3.49609 12.8027 -0.654297 9.24805 -0.654297 Z M 9.22852 -3.62305 C 9.69727 -3.62305 9.9707 -3.93555 9.9707 -4.45312 L 9.9707 -6.31836 L 12.002 -6.31836 C 12.5 -6.31836 12.832 -6.57227 12.832 -7.04102 C 12.832 -7.51953 12.5195 -7.7832 12.002 -7.7832 L 9.9707 -7.7832 L 9.9707 -9.81445 C 9.9707 -10.332 9.69727 -10.6543 9.22852 -10.6543 C 8.75977 -10.6543 8.50586 -10.3125 8.50586 -9.81445 L 8.50586 -7.7832 L 6.49414 -7.7832 C 5.97656 -7.7832 5.64453 -7.51953 5.64453 -7.04102 C 5.64453 -6.57227 5.99609 -6.31836 6.49414 -6.31836 L 8.50586 -6.31836 L 8.50586 -4.45312 C 8.50586 -3.95508 8.75977 -3.62305 9.22852 -3.62305 Z"/>
  </g>
  <g id="" transform="matrix(1 0 0 1 281.506 1933)">
   <path d="M 11.709 2.91016 C 17.1582 2.91016 21.6699 -1.61133 21.6699 -7.05078 C 21.6699 -12.5 17.1484 -17.0117 11.6992 -17.0117 C 6.25977 -17.0117 1.74805 -12.5 1.74805 -7.05078 C 1.74805 -1.61133 6.26953 2.91016 11.709 2.91016 Z M 11.709 1.25 C 7.09961 1.25 3.41797 -2.44141 3.41797 -7.05078 C 3.41797 -11.6602 7.08984 -15.3516 11.6992 -15.3516 C 16.3086 -15.3516 20 -11.6602 20.0098 -7.05078 C 20.0195 -2.44141 16.3184 1.25 11.709 1.25 Z M 11.6797 -2.66602 C 12.207 -2.66602 12.5098 -3.01758 12.5098 -3.59375 L 12.5098 -6.23047 L 15.3223 -6.23047 C 15.8691 -6.23047 16.25 -6.51367 16.25 -7.03125 C 16.25 -7.55859 15.8887 -7.86133 15.3223 -7.86133 L 12.5098 -7.86133 L 12.5098 -10.6836 C 12.5098 -11.25 12.207 -11.6113 11.6797 -11.6113 C 11.1621 -11.6113 10.8789 -11.2305 10.8789 -10.6836 L 10.8789 -7.86133 L 8.07617 -7.86133 C 7.50977 -7.86133 7.13867 -7.55859 7.13867 -7.03125 C 7.13867 -6.51367 7.5293 -6.23047 8.07617 -6.23047 L 10.8789 -6.23047 L 10.8789 -3.59375 C 10.8789 -3.03711 11.1621 -2.66602 11.6797 -2.66602 Z"/>
  </g>
  <g id="" transform="matrix(1 0 0 1 304.924 1933)">
   <path d="M 14.9707 5.66406 C 21.9336 5.66406 27.6953 -0.0976562 27.6953 -7.05078 C 27.6953 -14.0137 21.9238 -19.7754 14.9609 -19.7754 C 8.00781 -19.7754 2.25586 -14.0137 2.25586 -7.05078 C 2.25586 -0.0976562 8.01758 5.66406 14.9707 5.66406 Z M 14.9707 3.84766 C 8.93555 3.84766 4.08203 -1.01562 4.08203 -7.05078 C 4.08203 -13.0957 8.92578 -17.9492 14.9609 -17.9492 C 21.0059 -17.9492 25.8594 -13.0957 25.8691 -7.05078 C 25.8789 -1.01562 21.0156 3.84766 14.9707 3.84766 Z M 14.9414 -1.38672 C 15.5176 -1.38672 15.8594 -1.77734 15.8594 -2.38281 L 15.8594 -6.13281 L 19.7754 -6.13281 C 20.3711 -6.13281 20.7812 -6.46484 20.7812 -7.02148 C 20.7812 -7.59766 20.3906 -7.93945 19.7754 -7.93945 L 15.8594 -7.93945 L 15.8594 -11.8652 C 15.8594 -12.4805 15.5176 -12.8711 14.9414 -12.8711 C 14.375 -12.8711 14.0527 -12.4609 14.0527 -11.8652 L 14.0527 -7.93945 L 10.1465 -7.93945 C 9.53125 -7.93945 9.13086 -7.59766 9.13086 -7.02148 C 9.13086 -6.46484 9.55078 -6.13281 10.1465 -6.13281 L 14.0527 -6.13281 L 14.0527 -2.38281 C 14.0527 -1.79688 14.375 -1.38672 14.9414 -1.38672 Z"/>
  </g>
  <text style="stroke:none;fill:black;font-family:-apple-system,&quot;SF Pro Display&quot;,&quot;SF Pro Text&quot;,Helvetica,sans-serif;font-weight:bold;" transform="matrix(1 0 0 1 263 1953)">Design Variations</text>
  <text style="stroke:none;fill:black;font-family:-apple-system,&quot;SF Pro Display&quot;,&quot;SF Pro Text&quot;,Helvetica,sans-serif;" transform="matrix(1 0 0 1 263 1971)">Symbols are supported in up to nine weights and three scales.</text>
  <text style="stroke:none;fill:black;font-family:-apple-system,&quot;SF Pro Display&quot;,&quot;SF Pro Text&quot;,Helvetica,sans-serif;" transform="matrix(1 0 0 1 263 1989)">For optimal layout with text and other symbols, vertically align</text>
  <text style="stroke:none;fill:black;font-family:-apple-system,&quot;SF Pro Display&quot;,&quot;SF Pro Text&quot;,Helvetica,sans-serif;" transform="matrix(1 0 0 1 263 2007)">symbols with the adjacent text.</text>
  <line id="" style="fill:none;stroke:#00AEEF;stroke-width:0.5;opacity:1.0;" x1="776" x2="776" y1="1919" y2="1933"/>
  <g id="" transform="matrix(1 0 0 1 776 1933)">
   <path d="M 3.31055 0.126953 C 3.82812 0.126953 4.08203 -0.0683594 4.26758 -0.605469 L 5.52734 -4.0625 L 11.2891 -4.0625 L 12.5488 -0.605469 C 12.7344 -0.0683594 12.9883 0.126953 13.4961 0.126953 C 14.0137 0.126953 14.3457 -0.185547 14.3457 -0.673828 C 14.3457 -0.839844 14.3164 -0.986328 14.2383 -1.20117 L 9.6582 -13.3887 C 9.43359 -13.9941 9.0332 -14.2871 8.4082 -14.2871 C 7.80273 -14.2871 7.39258 -13.9941 7.17773 -13.3984 L 2.59766 -1.19141 C 2.51953 -0.976562 2.49023 -0.830078 2.49023 -0.664062 C 2.49023 -0.175781 2.80273 0.126953 3.31055 0.126953 Z M 6.00586 -5.53711 L 8.37891 -12.1094 L 8.42773 -12.1094 L 10.8008 -5.53711 Z"/>
  </g>
  <line id="" style="fill:none;stroke:#00AEEF;stroke-width:0.5;opacity:1.0;" x1="792.836" x2="792.836" y1="1919" y2="1933"/>
  <text style="stroke:none;fill:black;font-family:-apple-system,&quot;SF Pro Display&quot;,&quot;SF Pro Text&quot;,Helvetica,sans-serif;font-weight:bold;" transform="matrix(1 0 0 1 776 1953)">Margins</text>
  <text style="stroke:none;fill:black;font-family:-apple-system,&quot;SF Pro Display&quot;,&quot;SF Pro Text&quot;,Helvetica,sans-serif;" transform="matrix(1 0 0 1 776 1971)">Leading and trailing margins on the left and right side of each symbol</text>
  <text style="stroke:none;fill:black;font-family:-apple-system,&quot;SF Pro Display&quot;,&quot;SF Pro Text&quot;,Helvetica,sans-serif;" transform="matrix(1 0 0 1 776 1989)">can be adjusted by modifying the x-location of the margin guidelines.</text>
  <text style="stroke:none;fill:black;font-family:-apple-system,&quot;SF Pro Display&quot;,&quot;SF Pro Text&quot;,Helvetica,sans-serif;" transform="matrix(1 0 0 1 776 2007)">Modifications are automatically applied proportionally to all</text>
  <text style="stroke:none;fill:black;font-family:-apple-system,&quot;SF Pro Display&quot;,&quot;SF Pro Text&quot;,Helvetica,sans-serif;" transform="matrix(1 0 0 1 776 2025)">scales and weights.</text>
  <g id="" transform="matrix(1 0 0 1 1289 1933)">
   <path d="M 2.8418 1.86523 L 4.54102 3.57422 C 5.40039 4.44336 6.38672 4.38477 7.31445 3.35938 L 17.4902 -7.85156 C 17.7539 -7.76367 18.0273 -7.7832 18.3398 -7.8418 L 19.4043 -8.03711 L 20.0684 -7.36328 L 20.0293 -6.80664 C 19.9902 -6.30859 20.1172 -5.92773 20.6055 -5.44922 L 21.3672 -4.70703 C 21.8457 -4.22852 22.4609 -4.19922 22.9297 -4.66797 L 25.8398 -7.58789 C 26.3086 -8.05664 26.2891 -8.65234 25.8105 -9.13086 L 25.0391 -9.89258 C 24.5605 -10.3711 24.1895 -10.5273 23.7109 -10.4883 L 23.1348 -10.4395 L 22.4902 -11.0742 L 22.7344 -12.1973 C 22.8613 -12.7637 22.7051 -13.2031 22.1191 -13.7891 L 19.9219 -15.9766 C 16.582 -19.2969 12.1484 -19.2188 9.25781 -16.3281 C 8.83789 -15.918 8.80859 -15.3418 9.04297 -14.9512 C 9.27734 -14.5898 9.73633 -14.3555 10.3809 -14.5215 C 11.8457 -14.8633 13.3691 -14.9219 14.7949 -13.9844 L 14.209 -12.5293 C 14.0137 -12.0508 13.9844 -11.6504 14.1113 -11.2891 L 3.04688 -0.898438 C 2.06055 0.0195312 1.98242 0.996094 2.8418 1.86523 Z M 10.752 -15.957 C 13.1836 -17.7344 16.4746 -17.4316 18.7012 -15.2051 L 21.1328 -12.793 C 21.3672 -12.5586 21.4062 -12.373 21.3379 -12.0312 L 21.0156 -10.5469 L 22.5195 -9.0625 L 23.5059 -9.12109 C 23.7598 -9.13086 23.8379 -9.11133 24.0332 -8.91602 L 24.6094 -8.33984 L 22.168 -5.89844 L 21.5918 -6.47461 C 21.3965 -6.66992 21.3672 -6.74805 21.377 -7.01172 L 21.4453 -7.98828 L 19.9512 -9.47266 L 18.4277 -9.21875 C 18.1055 -9.15039 17.959 -9.17969 17.7148 -9.41406 L 15.7129 -11.416 C 15.459 -11.6504 15.4297 -11.8164 15.5859 -12.1875 L 16.4648 -14.2773 C 14.9023 -15.7324 12.8711 -16.3574 10.8398 -15.7617 C 10.6836 -15.7227 10.625 -15.8496 10.752 -15.957 Z M 5.27344 2.30469 L 4.10156 1.14258 C 3.63281 0.683594 3.74023 0.341797 4.14062 -0.0195312 L 14.9512 -10.1953 L 16.416 -8.71094 L 6.42578 2.27539 C 6.07422 2.67578 5.74219 2.77344 5.27344 2.30469 Z"/>
  </g>
  <text style="stroke:none;fill:black;font-family:-apple-system,&quot;SF Pro Display&quot;,&quot;SF Pro Text&quot;,Helvetica,sans-serif;font-weight:bold;" transform="matrix(1 0 0 1 1289 1953)">Exporting</text>
  <text style="stroke:none;fill:black;font-family:-apple-system,&quot;SF Pro Display&quot;,&quot;SF Pro Text&quot;,Helvetica,sans-serif;" transform="matrix(1 0 0 1 1289 1971)">Symbols should be outlined when exporting to ensure the</text>
  <text style="stroke:none;fill:black;font-family:-apple-system,&quot;SF Pro Display&quot;,&quot;SF Pro Text&quot;,Helvetica,sans-serif;" transform="matrix(1 0 0 1 1289 1989)">design is preserved when submitting to Xcode.</text>
  <text id="template-version" style="stroke:none;fill:black;font-family:-apple-system,&quot;SF Pro Display&quot;,&quot;SF Pro Text&quot;,Helvetica,sans-serif;text-anchor:end;" transform="matrix(1 0 0 1 3036 1933)">Template v.2.0</text>
  <text style="stroke:none;fill:black;font-family:-apple-system,&quot;SF Pro Display&quot;,&quot;SF Pro Text&quot;,Helvetica,sans-serif;text-anchor:end;" transform="matrix(1 0 0 1 3036 1951)">Requires Xcode 12 or greater</text>
  <text style="stroke:none;fill:black;font-family:-apple-system,&quot;SF Pro Display&quot;,&quot;SF Pro Text&quot;,Helvetica,sans-serif;text-anchor:end;" transform="matrix(1 0 0 1 3036 1969)">Generated from phone</text>
  <text style="stroke:none;fill:black;font-family:-apple-system,&quot;SF Pro Display&quot;,&quot;SF Pro Text&quot;,Helvetica,sans-serif;text-anchor:end;" transform="matrix(1 0 0 1 3036 1987)">Typeset at 100 points</text>
  <text style="stroke:none;fill:black;font-family:-apple-system,&quot;SF Pro Display&quot;,&quot;SF Pro Text&quot;,Helvetica,sans-serif;" transform="matrix(1 0 0 1 263 726)">Small</text>
  <text style="stroke:none;fill:black;font-family:-apple-system,&quot;SF Pro Display&quot;,&quot;SF Pro Text&quot;,Helvetica,sans-serif;" transform="matrix(1 0 0 1 263 1156)">Medium</text>
  <text style="stroke:none;fill:black;font-family:-apple-system,&quot;SF Pro Display&quot;,&quot;SF Pro Text&quot;,Helvetica,sans-serif;" transform="matrix(1 0 0 1 263 1586)">Large</text>
 </g>
 <g id="Guides">
  <g id="H-reference" style="fill:#27AAE1;stroke:none;" transform="matrix(1 0 0 1 339 696)">
   <path d="M 0.976562 0 L 3.66211 0 L 12.9883 -24.4629 L 45.7031 -24.4629 L 55.0781 0 L 57.7148 0 L 30.6152 -70.459 L 28.125 -70.459 Z M 29.2969 -67.1387 L 29.3945 -67.1387 L 44.873 -26.709 L 13.8672 -26.709 Z"/>
  </g>
  <line id="Baseline-S" style="fill:none;stroke:#27AAE1;opacity:1;stroke-width:0.5;" x1="263" x2="3036" y1="696" y2="696"/>
  <line id="Capline-S" style="fill:none;stroke:#27AAE1;opacity:1;stroke-width:0.5;" x1="263" x2="3036" y1="625.541" y2="625.541"/>
  <g id="H-reference" style="fill:#27AAE1;stroke:none;" transform="matrix(1 0 0 1 339 1126)">
   <path d="M 0.976562 0 L 3.66211 0 L 12.9883 -24.4629 L 45.7031 -24.4629 L 55.0781 0 L 57.7148 0 L 30.6152 -70.459 L 28.125 -70.459 Z M 29.2969 -67.1387 L 29.3945 -67.1387 L 44.873 -26.709 L 13.8672 -26.709 Z"/>
  </g>
  <line id="Baseline-M" style="fill:none;stroke:#27AAE1;opacity:1;stroke-width:0.5;" x1="263" x2="3036" y1="1126" y2="1126"/>
  <line id="Capline-M" style="fill:none;stroke:#27AAE1;opacity:1;stroke-width:0.5;" x1="263" x2="3036" y1="1055.54" y2="1055.54"/>
  <g id="H-reference" style="fill:#27AAE1;stroke:none;" transform="matrix(1 0 0 1 339 1556)">
   <path d="M 0.976562 0 L 3.66211 0 L 12.9883 -24.4629 L 45.7031 -24.4629 L 55.0781 0 L 57.7148 0 L 30.6152 -70.459 L 28.125 -70.459 Z M 29.2969 -67.1387 L 29.3945 -67.1387 L 44.873 -26.709 L 13.8672 -26.709 Z"/>
  </g>
  <line id="Baseline-L" style="fill:none;stroke:#27AAE1;opacity:1;stroke-width:0.5;" x1="263" x2="3036" y1="1556" y2="1556"/>
  <line id="Capline-L" style="fill:none;stroke:#27AAE1;opacity:1;stroke-width:0.5;" x1="263" x2="3036" y1="1485.54" y2="1485.54"/>
  <line id="left-margin" style="fill:none;stroke:#00AEEF;stroke-width:0.5;opacity:1.0;" x1="1390.86" x2="1390.86" y1="1030.79" y2="1150.12"/>
  <line id="right-margin" style="fill:none;stroke:#00AEEF;stroke-width:0.5;opacity:1.0;" x1="1508.83" x2="1508.83" y1="1030.79" y2="1150.12"/>
 </g>
 <g id="Symbols">
  <g id="Black-L" transform="matrix(1 0 0 1 2852.39 1556)">
   <path d="M 113.428 31.3477 C 124.756 31.3477 132.91 27.4902 140.771 19.3848 C 141.211 18.8965 141.65 18.457 142.09 17.9199 C 145.459 13.916 147.559 8.93555 147.559 4.73633 C 147.559 -0.634766 145.264 -5.17578 139.404 -9.22852 L 119.238 -23.2422 C 112.402 -28.0273 104.98 -28.0762 99.6582 -22.6074 L 95.459 -18.3594 C 93.1152 -16.0645 90.8203 -15.8691 87.5488 -18.5547 C 84.0332 -21.2891 78.9062 -25.9277 75.3906 -29.4434 C 72.3633 -32.4707 68.4082 -36.9141 65.918 -40.1855 C 63.3789 -43.4082 63.4277 -45.752 65.7227 -48.0469 L 69.9707 -52.2461 C 75.4395 -57.5684 75.4395 -65.0879 70.6543 -71.875 L 55.4199 -93.2129 C 51.9043 -98.1934 46.6797 -100.781 41.2598 -100.781 C 36.8652 -100.83 32.4219 -99.1699 28.3691 -95.8984 C 27.8809 -95.5078 27.3438 -95.0684 27.0508 -94.7754 C 18.457 -86.4258 14.4531 -78.6621 14.4531 -65.4785 C 14.4531 -44.9219 24.0723 -22.9492 47.168 -0.390625 C 70.166 22.1191 91.1621 31.3477 113.428 31.3477 Z M 113.086 17.7246 C 97.0703 17.8223 78.7109 9.13086 57.7637 -11.3281 C 36.7188 -31.8359 28.3691 -50.8789 28.4668 -66.8945 C 28.5156 -73.1445 30.8594 -78.8086 35.1074 -82.4219 C 35.6934 -82.959 36.377 -83.4473 36.9629 -83.8867 C 38.2812 -84.9609 39.7949 -85.498 41.2109 -85.498 C 42.9688 -85.498 44.6289 -84.668 45.9473 -82.8125 L 56.6406 -67.041 C 58.5449 -64.209 58.3496 -61.0352 55.6641 -58.5449 L 52.0996 -55.127 C 45.8984 -49.3652 46.582 -43.5059 49.4141 -38.916 C 52.2949 -34.3262 59.1309 -26.5625 65.9668 -19.9219 C 74.1211 -11.9629 82.5195 -4.44336 86.2793 -2.05078 C 90.8691 0.830078 96.7285 1.46484 102.49 -4.6875 L 105.908 -8.30078 C 108.447 -10.9863 111.621 -11.084 114.404 -9.27734 L 129.004 0.292969 C 131.006 1.5625 131.689 3.22266 131.689 4.93164 C 131.689 6.34766 131.201 7.86133 130.127 9.27734 C 129.639 9.86328 129.15 10.498 128.662 11.084 C 125.049 15.332 119.336 17.6758 113.086 17.7246 Z"/>
  </g>
  <g id="Heavy-L" transform="matrix(1 0 0 1 2557.1 1556)">
   <path d="M 111.328 29.9316 C 122.461 29.9316 130.42 26.3184 137.891 18.457 C 138.33 18.0176 138.77 17.5293 139.209 17.041 C 142.676 12.9883 144.727 8.20312 144.727 4.10156 C 144.727 -1.02539 142.383 -5.41992 136.67 -9.32617 L 116.943 -23.0469 C 110.449 -27.5391 103.32 -27.6855 97.9492 -22.3145 L 93.6523 -17.9688 C 91.5527 -15.8691 89.4531 -15.6738 86.5723 -17.9199 C 83.1543 -20.5078 77.5879 -25.3906 73.6816 -29.2969 C 70.0684 -32.9102 66.0156 -37.4512 63.5254 -40.9668 C 61.377 -43.8477 61.4258 -45.9473 63.5742 -48.0469 L 67.8711 -52.3438 C 73.291 -57.7148 73.1934 -64.8926 68.6523 -71.3867 L 54.0527 -91.9922 C 50.5371 -96.9727 45.6055 -99.5117 40.4297 -99.5605 C 36.1816 -99.6094 31.7871 -97.9004 27.7344 -94.4824 C 27.2461 -94.0918 26.7578 -93.6523 26.416 -93.3594 C 18.2129 -85.498 14.4531 -77.832 14.4531 -65.332 C 14.4531 -45.459 24.4629 -23.5352 46.7773 -1.66016 C 69.043 20.166 90.1367 29.9316 111.328 29.9316 Z M 111.084 17.5781 C 95.0684 17.7246 76.2695 8.20312 56.3477 -11.3281 C 36.377 -30.9082 27.002 -50.3906 27.1484 -66.4062 C 27.1973 -72.8516 29.5898 -78.6133 33.9844 -82.4707 C 34.5215 -82.9102 35.1074 -83.3496 35.6445 -83.7891 C 37.1582 -85.0098 38.8672 -85.6934 40.3809 -85.6934 C 42.2363 -85.6934 43.8477 -84.8633 45.166 -82.959 L 56.25 -66.6016 C 58.0078 -63.9648 57.9102 -60.9375 55.3223 -58.4961 L 51.3184 -54.6387 C 45.6543 -49.2676 46.2402 -43.6035 49.0723 -39.1602 C 52.0508 -34.5703 58.6426 -27.0508 65.1367 -20.6543 C 72.6562 -13.3301 80.8105 -6.05469 84.7656 -3.4668 C 89.209 -0.634766 94.873 -0.0976562 100.244 -5.71289 L 104.102 -9.7168 C 106.543 -12.3535 109.57 -12.3535 112.207 -10.6445 L 127.686 -0.439453 C 129.688 0.830078 130.371 2.49023 130.371 4.24805 C 130.371 5.81055 129.785 7.4707 128.467 9.08203 C 128.076 9.61914 127.637 10.1562 127.148 10.6934 C 123.34 15.1367 117.529 17.5293 111.084 17.5781 Z"/>
  </g>
  <g id="Bold-L" transform="matrix(1 0 0 1 2262 1556)">
   <path d="M 108.984 28.3691 C 119.873 28.3691 127.588 25 134.717 17.4316 C 135.107 16.9922 135.547 16.5039 135.986 16.0645 C 139.551 11.9629 141.504 7.42188 141.504 3.36914 C 141.504 -1.46484 139.111 -5.71289 133.643 -9.47266 L 114.404 -22.8027 C 108.301 -27.0508 101.465 -27.3438 96.0938 -21.9238 L 91.6504 -17.4805 C 89.7949 -15.625 87.8906 -15.4297 85.498 -17.2363 C 82.1289 -19.6289 76.123 -24.8535 71.7773 -29.1504 C 67.4805 -33.3984 63.3301 -38.0859 60.8398 -41.8945 C 59.1309 -44.2871 59.2285 -46.1426 61.084 -48.0469 L 65.5273 -52.4902 C 70.9473 -57.8125 70.6543 -64.7461 66.4062 -70.8008 L 52.4902 -90.625 C 48.9746 -95.6543 44.3848 -98.0957 39.5508 -98.1934 C 35.4004 -98.2422 31.1035 -96.4844 27.002 -92.9199 C 26.5625 -92.5293 26.0742 -92.1387 25.6836 -91.7969 C 17.9199 -84.4238 14.4531 -76.9043 14.4531 -65.1367 C 14.4531 -45.9961 24.9512 -24.2188 46.3867 -3.07617 C 67.7246 18.0176 88.9648 28.3691 108.984 28.3691 Z M 108.838 17.3828 C 92.8223 17.5781 73.4863 7.08008 54.7852 -11.3281 C 35.9863 -29.8828 25.4883 -49.8047 25.6348 -65.8691 C 25.7324 -72.5098 28.125 -78.3691 32.7637 -82.4707 C 33.2031 -82.8613 33.6914 -83.252 34.1797 -83.6426 C 35.9375 -85.1562 37.793 -85.8887 39.502 -85.8887 C 41.3574 -85.8887 43.0176 -85.1074 44.2871 -83.1543 L 55.7617 -66.1621 C 57.4219 -63.6719 57.4707 -60.8398 54.9316 -58.3984 L 50.4883 -54.0527 C 45.4102 -49.2188 45.8496 -43.75 48.6816 -39.4531 C 51.709 -34.8633 58.1055 -27.5391 64.2578 -21.5332 C 71.0449 -14.8438 78.9062 -7.91016 83.0566 -5.07812 C 87.3535 -2.24609 92.8223 -1.80664 97.6562 -6.88477 L 102.002 -11.3281 C 104.443 -13.8672 107.275 -13.8184 109.766 -12.1582 L 126.172 -1.26953 C 128.174 0.0488281 128.955 1.66016 128.955 3.51562 C 128.955 5.22461 128.174 7.08008 126.66 8.88672 C 126.27 9.32617 125.928 9.81445 125.488 10.3027 C 121.387 14.9414 115.479 17.2852 108.838 17.3828 Z"/>
  </g>
  <g id="Semibold-L" transform="matrix(1 0 0 1 1966.41 1556)">
   <path d="M 107.373 27.2949 C 118.066 27.2949 125.635 24.0723 132.52 16.748 C 132.91 16.3086 133.35 15.8203 133.74 15.3809 C 137.402 11.2793 139.258 6.88477 139.258 2.88086 C 139.258 -1.75781 136.914 -5.85938 131.543 -9.57031 L 112.646 -22.6562 C 106.836 -26.6602 100.146 -27.0508 94.7754 -21.6797 L 90.2344 -17.1875 C 88.5742 -15.4785 86.8652 -15.2832 84.7168 -16.7969 C 81.4453 -18.9941 75.0977 -24.4629 70.459 -29.0527 C 65.7227 -33.7402 61.5234 -38.5254 59.0332 -42.4805 C 57.5684 -44.6289 57.7148 -46.3379 59.4238 -47.998 L 63.916 -52.5391 C 69.2871 -57.9102 68.9453 -64.6484 64.8926 -70.4102 L 51.416 -89.6973 C 47.9004 -94.7754 43.5547 -97.168 38.916 -97.2168 C 34.8633 -97.2656 30.6152 -95.459 26.5137 -91.8945 C 26.0742 -91.4551 25.5859 -91.0645 25.1953 -90.7227 C 17.7246 -83.7402 14.4531 -76.2695 14.4531 -65.0391 C 14.4531 -46.3867 25.2441 -24.707 46.0938 -4.05273 C 66.8457 16.5039 88.1836 27.2949 107.373 27.2949 Z M 107.275 17.2363 C 91.2598 17.4316 71.582 6.34766 53.6621 -11.377 C 35.6934 -29.1504 24.4141 -49.4629 24.6094 -65.5273 C 24.707 -72.2656 27.0996 -78.2227 31.8848 -82.4707 C 32.3242 -82.8613 32.7148 -83.2031 33.1543 -83.5449 C 35.0586 -85.2051 37.0605 -86.084 38.8672 -86.084 C 40.7715 -86.084 42.3828 -85.2539 43.7012 -83.3008 L 55.4688 -65.8203 C 57.0312 -63.4277 57.1289 -60.7422 54.6875 -58.3496 L 49.9023 -53.6621 C 45.2148 -49.1211 45.5566 -43.8477 48.3887 -39.6484 C 51.5137 -35.1074 57.7637 -27.9297 63.623 -22.1191 C 69.9219 -15.918 77.5879 -9.13086 81.8848 -6.15234 C 86.084 -3.32031 91.3574 -2.97852 95.8984 -7.66602 L 100.586 -12.4512 C 102.979 -14.8926 105.664 -14.7949 108.057 -13.2324 L 125.146 -1.85547 C 127.148 -0.537109 127.93 1.12305 127.93 2.97852 C 127.93 4.78516 127.1 6.78711 125.391 8.74023 C 125.049 9.17969 124.707 9.57031 124.365 10.0098 C 120.068 14.7949 114.062 17.1875 107.275 17.2363 Z"/>
  </g>
  <g id="Medium-L" transform="matrix(1 0 0 1 1670.53 1556)">
   <path d="M 106.152 26.4648 C 116.699 26.4648 124.17 23.3887 130.811 16.2109 C 131.25 15.7715 131.641 15.2832 132.031 14.8438 C 135.742 10.7422 137.598 6.44531 137.598 2.49023 C 137.598 -1.95312 135.205 -6.00586 129.98 -9.61914 L 111.328 -22.5098 C 105.713 -26.416 99.1699 -26.8555 93.7988 -21.4844 L 89.209 -16.9434 C 87.6465 -15.3809 86.084 -15.1855 84.1797 -16.4062 C 80.9082 -18.5547 74.3164 -24.1211 69.4824 -28.9551 C 64.4043 -33.9844 60.1074 -38.8672 57.6172 -42.9688 C 56.3965 -44.873 56.543 -46.4355 58.1543 -47.998 L 62.6953 -52.6367 C 68.0664 -58.0078 67.627 -64.5508 63.7207 -70.166 L 50.6348 -88.9648 C 47.1191 -94.043 42.9199 -96.4355 38.4277 -96.4844 C 34.4727 -96.582 30.2246 -94.7266 26.123 -91.0645 C 25.6836 -90.6738 25.2441 -90.2832 24.8047 -89.8926 C 17.5781 -83.2031 14.4531 -75.7812 14.4531 -64.9414 C 14.4531 -46.6797 25.4883 -25.0488 45.8496 -4.78516 C 66.1621 15.3809 87.5488 26.4648 106.152 26.4648 Z M 106.104 17.1387 C 90.0391 17.3828 70.1172 5.76172 52.832 -11.377 C 35.498 -28.6133 23.6328 -49.1699 23.8281 -65.2344 C 23.9258 -72.0703 26.3184 -78.125 31.2012 -82.4707 C 31.6406 -82.8125 31.9824 -83.1543 32.373 -83.4961 C 34.4238 -85.2539 36.5234 -86.1816 38.3789 -86.1816 C 40.2832 -86.1816 41.9434 -85.3516 43.2617 -83.3984 L 55.2246 -65.5762 C 56.7383 -63.2812 56.8848 -60.6934 54.4922 -58.3008 L 49.4629 -53.3691 C 45.0684 -49.0723 45.3613 -43.8965 48.1934 -39.8438 C 51.3672 -35.2539 57.5195 -28.1738 63.1348 -22.6074 C 69.043 -16.6992 76.6113 -10.1074 81.0059 -6.98242 C 85.1074 -4.19922 90.2832 -3.90625 94.5801 -8.25195 L 99.5117 -13.2812 C 101.904 -15.7227 104.492 -15.5273 106.787 -14.0137 L 124.365 -2.29492 C 126.367 -0.976562 127.148 0.683594 127.148 2.58789 C 127.148 4.49219 126.27 6.5918 124.414 8.59375 C 124.121 9.0332 123.828 9.375 123.486 9.76562 C 119.092 14.6973 113.037 17.041 106.104 17.1387 Z"/>
  </g>
  <g id="Regular-L" transform="matrix(1 0 0 1 1374.92 1556)">
   <path d="M 104.541 25.3906 C 114.941 25.3906 122.266 22.5098 128.662 15.5273 C 129.053 15.0391 129.443 14.5996 129.834 14.1602 C 133.643 10.0586 135.4 5.9082 135.4 2.00195 C 135.4 -2.24609 133.008 -6.20117 127.881 -9.7168 L 109.619 -22.3633 C 104.248 -26.0742 97.9004 -26.6113 92.5293 -21.2402 L 87.8418 -16.6504 C 86.4258 -15.2344 85.0098 -15.0391 83.3984 -15.9668 C 80.2246 -17.9199 73.291 -23.7305 68.1641 -28.8574 C 62.6465 -34.3262 58.3008 -39.3066 55.8105 -43.6035 C 54.8828 -45.2148 55.0293 -46.582 56.4453 -47.998 L 61.084 -52.6855 C 66.4062 -58.1055 65.8691 -64.4043 62.207 -69.7754 L 49.5605 -88.0371 C 46.0449 -93.1641 42.0898 -95.459 37.8418 -95.5566 C 33.9355 -95.6543 29.7363 -93.75 25.6836 -89.9902 C 25.1953 -89.5996 24.7559 -89.209 24.3164 -88.8184 C 17.3828 -82.4707 14.4531 -75.1465 14.4531 -64.8438 C 14.4531 -47.0703 25.7812 -25.5371 45.6055 -5.76172 C 65.2832 13.916 86.7676 25.3906 104.541 25.3906 Z M 104.59 17.041 C 88.5254 17.2852 68.2617 5.0293 51.7578 -11.377 C 35.2051 -27.8809 22.5586 -48.7793 22.8027 -64.8438 C 22.9004 -71.875 25.3418 -77.9297 30.3711 -82.5195 C 30.7129 -82.8125 31.0547 -83.0566 31.3965 -83.3984 C 33.5449 -85.3516 35.791 -86.3281 37.7441 -86.3281 C 39.6973 -86.3281 41.3574 -85.498 42.6758 -83.5449 L 54.8828 -65.2832 C 56.3477 -63.0859 56.5918 -60.5957 54.1992 -58.252 L 48.877 -52.9785 C 44.9219 -49.0234 45.1172 -43.9941 47.9004 -40.0391 C 51.1719 -35.4492 57.1289 -28.5645 62.5 -23.1934 C 67.9199 -17.7734 75.293 -11.3281 79.8828 -8.10547 C 83.8379 -5.27344 88.8672 -5.07812 92.8223 -9.0332 L 98.0957 -14.3555 C 100.439 -16.748 102.93 -16.5527 105.127 -15.0879 L 123.389 -2.83203 C 125.342 -1.51367 126.172 0.146484 126.172 2.09961 C 126.172 4.05273 125.146 6.29883 123.193 8.49609 C 122.9 8.83789 122.656 9.13086 122.363 9.47266 C 117.773 14.5508 111.621 16.9434 104.59 17.041 Z"/>
  </g>
  <g id="Light-L" transform="matrix(1 0 0 1 1079.77 1556)">
   <path d="M 102.441 23.8281 C 112.012 23.8281 119.434 21.0449 125.83 14.3066 C 126.123 13.9648 126.465 13.623 126.709 13.3301 C 130.518 9.32617 132.275 5.17578 132.275 1.36719 C 132.275 -2.49023 130.176 -6.10352 125.781 -9.13086 L 107.568 -21.6309 C 102.588 -25 96.7285 -25.6836 91.1621 -20.2637 L 86.7188 -15.8691 C 85.3027 -14.4531 83.7402 -14.1602 81.8848 -15.1855 C 78.9062 -16.8945 71.875 -22.5098 66.1621 -28.1738 C 59.7656 -34.5215 56.0059 -38.9648 53.4668 -43.6035 C 52.4414 -45.459 52.7344 -47.0215 54.1504 -48.4375 L 58.4961 -52.9297 C 63.9648 -58.4473 63.2812 -64.3555 59.9121 -69.2871 L 47.3633 -87.5 C 44.3848 -91.8945 40.7715 -93.8965 36.9141 -93.9941 C 33.1055 -94.0918 28.9062 -92.1875 24.9512 -88.4277 C 24.6094 -88.1348 24.3164 -87.8906 23.9746 -87.5488 C 17.334 -81.25 14.4531 -73.877 14.4531 -64.4043 C 14.4531 -46.875 26.0742 -25.9766 45.166 -6.88477 C 64.1602 12.0117 84.9609 23.8281 102.441 23.8281 Z M 102.441 17.2363 C 86.4258 17.3828 66.5527 5.32227 49.9023 -11.2793 C 33.1543 -28.0273 20.8984 -48.291 21.0449 -64.4043 C 21.0938 -71.4844 23.5352 -77.7344 28.7109 -82.6172 C 28.9551 -82.8613 29.248 -83.1055 29.4922 -83.3496 C 32.0312 -85.7422 34.5703 -86.9141 36.7188 -86.9141 C 38.8184 -86.9141 40.5273 -85.9375 41.9434 -83.8379 L 54.1992 -65.6738 C 55.8594 -63.1836 56.2012 -60.2539 53.2715 -57.373 L 48.291 -52.4414 C 44.7754 -49.0234 44.8242 -44.3848 47.168 -40.8203 C 49.9023 -36.6211 55.5664 -29.9316 61.6699 -23.7305 C 67.8711 -17.4805 74.9023 -11.6211 79.0527 -8.88672 C 82.666 -6.54297 87.3047 -6.54297 90.7227 -10.0098 L 95.6543 -14.9902 C 98.5352 -17.9199 101.465 -17.5781 103.906 -15.918 L 122.119 -3.71094 C 124.219 -2.24609 125.195 -0.537109 125.195 1.51367 C 125.195 3.71094 124.023 6.25 121.582 8.78906 C 121.289 9.08203 121.143 9.27734 120.898 9.57031 C 115.967 14.7949 109.619 17.1875 102.441 17.2363 Z"/>
  </g>
  <g id="Thin-L" transform="matrix(1 0 0 1 785.133 1556)">
   <path d="M 99.6094 21.7285 C 108.203 21.7285 115.723 19.1406 122.07 12.6953 C 122.266 12.5 122.461 12.3047 122.607 12.1582 C 126.367 8.34961 128.125 4.24805 128.125 0.488281 C 128.125 -2.83203 126.416 -5.95703 122.949 -8.30078 L 104.834 -20.6543 C 100.439 -23.6328 95.1172 -24.5117 89.4043 -18.8965 L 85.2051 -14.8438 C 83.8379 -13.4766 81.9824 -13.0371 79.834 -14.1602 C 77.1484 -15.5273 70.0195 -20.8496 63.4766 -27.2949 C 56.0059 -34.7168 52.9785 -38.4766 50.3418 -43.6035 C 49.2188 -45.8008 49.6582 -47.6562 51.0742 -49.0234 L 55.0781 -53.2227 C 60.6934 -58.9355 59.8145 -64.2578 56.8359 -68.6523 L 44.4824 -86.7676 C 42.1387 -90.2344 39.0625 -91.8457 35.6934 -91.9434 C 31.9824 -92.041 27.7832 -90.0879 24.0234 -86.377 C 23.8281 -86.1816 23.6816 -86.084 23.4863 -85.8887 C 17.2363 -79.6875 14.4531 -72.168 14.4531 -63.8184 C 14.4531 -46.6797 26.416 -26.5137 44.5801 -8.39844 C 62.6465 9.52148 82.5684 21.7285 99.6094 21.7285 Z M 99.6582 17.4805 C 83.6426 17.5293 64.3555 5.71289 47.4121 -11.1816 C 30.4688 -28.1738 18.6523 -47.6562 18.7012 -63.7695 C 18.7012 -70.9473 21.1426 -77.4902 26.4648 -82.7637 C 26.6602 -82.959 26.8066 -83.1055 27.002 -83.3008 C 30.0293 -86.2793 32.959 -87.6465 35.4004 -87.6465 C 37.5977 -87.6465 39.4531 -86.5234 41.0156 -84.2285 L 53.2227 -66.1621 C 55.1758 -63.2812 55.6641 -59.8145 52.002 -56.25 L 47.4609 -51.7578 C 44.6289 -49.0234 44.4824 -44.9219 46.1426 -41.8457 C 48.1934 -38.1348 53.4668 -31.7383 60.5957 -24.4629 C 67.7734 -17.0898 74.3652 -12.0117 78.0273 -9.96094 C 81.1035 -8.30078 85.2051 -8.44727 87.9883 -11.2793 L 92.4316 -15.8203 C 96.0449 -19.4824 99.5117 -18.9941 102.344 -17.041 L 120.41 -4.83398 C 122.705 -3.22266 123.828 -1.41602 123.828 0.78125 C 123.828 3.27148 122.461 6.15234 119.385 9.22852 C 119.238 9.42383 119.141 9.52148 118.945 9.7168 C 113.574 15.1367 106.982 17.4805 99.6582 17.4805 Z"/>
  </g>
  <g id="Ultralight-L" transform="matrix(1 0 0 1 489.472 1556)">
   <path d="M 98.1934 20.6543 C 106.25 20.6543 113.818 18.1152 120.166 11.8652 C 120.312 11.7188 120.41 11.6211 120.459 11.5723 C 124.268 7.8125 126.025 3.75977 126.025 0.0488281 C 126.025 -3.02734 124.512 -5.85938 121.533 -7.91016 L 103.467 -20.166 C 99.3164 -22.9492 94.3359 -23.877 88.4766 -18.2129 L 84.4727 -14.3555 C 83.1055 -12.9883 81.1035 -12.4512 78.7598 -13.623 C 76.2695 -14.8438 69.0918 -19.9707 62.1094 -26.8555 C 54.0527 -34.8633 51.416 -38.1836 48.7305 -43.6523 C 47.6074 -45.9473 48.0957 -47.9492 49.4629 -49.3164 L 53.3203 -53.3691 C 58.9844 -59.1797 58.0566 -64.209 55.2734 -68.3105 L 43.0176 -86.377 C 41.0156 -89.4043 38.1348 -90.8203 35.0586 -90.918 C 31.3965 -90.9668 27.1973 -89.0625 23.5352 -85.3516 C 23.4375 -85.2051 23.3887 -85.1562 23.2422 -85.0586 C 17.1875 -78.8574 14.4531 -71.2891 14.4531 -63.5254 C 14.4531 -46.5332 26.6113 -26.8066 44.2871 -9.17969 C 61.8652 8.25195 81.3477 20.6543 98.1934 20.6543 Z M 98.1934 17.627 C 82.1777 17.5781 63.1836 5.9082 46.1914 -11.1328 C 29.0527 -28.2227 17.5293 -47.3145 17.4805 -63.4277 C 17.4805 -70.7031 19.873 -77.3438 25.3418 -82.8125 C 25.4395 -82.959 25.5859 -83.1055 25.7324 -83.252 C 29.0039 -86.5723 32.1289 -88.0371 34.7168 -88.0371 C 37.0117 -88.0371 38.8672 -86.8164 40.5273 -84.4238 L 52.7344 -66.4551 C 54.834 -63.3789 55.4199 -59.6191 51.3672 -55.6641 L 47.0703 -51.416 C 44.5801 -49.0234 44.2871 -45.2148 45.6543 -42.3828 C 47.3145 -38.9648 52.3926 -32.666 60.0098 -24.8535 C 67.7734 -16.9434 74.0723 -12.207 77.4902 -10.5469 C 80.3223 -9.13086 84.1309 -9.47266 86.5723 -11.9629 L 90.7715 -16.2598 C 94.7266 -20.3125 98.4863 -19.6777 101.562 -17.627 L 119.531 -5.37109 C 121.924 -3.75977 123.193 -1.85547 123.193 0.439453 C 123.193 3.07617 121.68 6.15234 118.311 9.47266 C 118.164 9.61914 118.115 9.66797 117.969 9.81445 C 112.402 15.332 105.664 17.627 98.1934 17.627 Z"/>
  </g>
  <g id="Black-M" transform="matrix(1 0 0 1 2869.48 1126)">
   <path d="M 89.6484 17.4316 C 98.291 17.4316 104.932 14.1602 111.475 7.66602 C 111.768 7.37305 112.061 7.03125 112.402 6.68945 C 114.844 3.71094 116.602 -0.439453 116.602 -3.75977 C 116.602 -8.05664 114.99 -11.5234 110.596 -14.5996 L 94.3848 -25.8301 C 88.8184 -29.7363 82.959 -29.6387 78.8086 -25.3418 L 75.8301 -22.3145 C 73.7305 -20.2148 71.5332 -20.0195 68.3594 -22.7051 C 65.6738 -24.9512 62.2559 -28.0273 59.7168 -30.5664 C 57.666 -32.6172 55.0293 -35.5469 53.0762 -37.9883 C 50.5371 -41.1621 50.6348 -43.3594 52.6855 -45.459 L 55.7129 -48.3887 C 60.0098 -52.5879 60.1562 -58.5449 56.2012 -64.0137 L 43.7012 -81.4941 C 41.2109 -84.9609 36.9629 -86.8652 32.6172 -86.8652 C 29.1016 -86.8652 25.5371 -85.6934 22.5098 -83.252 C 22.168 -83.0078 21.8262 -82.7148 21.6797 -82.6172 C 14.5996 -75.4883 11.2305 -69.3359 11.2305 -58.6426 C 11.2305 -41.9922 18.3105 -25.0977 36.8652 -7.12891 C 55.3711 10.791 71.0938 17.4316 89.6484 17.4316 Z M 89.2578 6.15234 C 76.8555 6.15234 63.4766 0.634766 45.7031 -16.6016 C 27.8809 -33.9355 22.9492 -47.7539 22.9492 -60.1562 C 22.9492 -64.7949 24.7559 -69.1895 27.8809 -71.8262 C 28.3691 -72.2656 28.9062 -72.7051 29.4434 -73.0957 C 30.4199 -73.8281 31.4941 -74.2188 32.5195 -74.2188 C 33.8867 -74.2188 35.2051 -73.5352 36.2793 -72.0215 L 44.0918 -60.6445 C 45.8008 -58.1055 45.6055 -55.2246 43.1152 -52.9297 L 41.0645 -51.0742 C 35.8887 -46.2891 36.4258 -41.6992 38.4277 -38.1348 C 40.2344 -34.7656 45.6055 -28.6133 51.8066 -22.6074 C 59.4238 -15.2344 66.0645 -9.375 68.5059 -8.00781 C 72.0703 -6.05469 76.6602 -5.46875 81.4453 -10.6934 L 83.3008 -12.7441 C 85.5957 -15.2344 88.4766 -15.332 91.0156 -13.7207 L 101.123 -7.17773 C 102.734 -6.10352 103.32 -4.78516 103.32 -3.4668 C 103.32 -2.44141 103.027 -1.36719 102.197 -0.341797 C 101.855 0.195312 101.416 0.732422 100.977 1.26953 C 98.291 4.3457 93.9453 6.15234 89.2578 6.15234 Z"/>
  </g>
  <g id="Heavy-M" transform="matrix(1 0 0 1 2573.92 1126)">
   <path d="M 87.8906 16.3086 C 96.5332 16.3086 102.93 13.2812 109.082 6.98242 C 109.375 6.64062 109.717 6.29883 110.01 5.95703 C 112.598 2.88086 114.307 -1.02539 114.307 -4.29688 C 114.307 -8.39844 112.598 -11.8652 108.203 -14.8926 L 92.4805 -25.7812 C 87.1582 -29.4922 81.4453 -29.4922 77.2949 -25.2441 L 74.1699 -22.0703 C 72.3145 -20.2148 70.3613 -20.0195 67.6758 -22.2168 C 65.0391 -24.3652 61.1328 -27.7832 58.3496 -30.6152 C 55.9082 -33.0566 53.0273 -36.2793 51.0742 -38.8672 C 48.9746 -41.5527 49.0723 -43.457 50.8789 -45.3125 L 54.1016 -48.4863 C 58.3496 -52.6367 58.3984 -58.3496 54.6387 -63.623 L 42.7246 -80.3223 C 40.1367 -83.9844 36.1328 -85.8887 31.9336 -85.9375 C 28.5645 -85.9375 25.0488 -84.7168 21.9727 -82.1777 C 21.6309 -81.8848 21.2402 -81.5918 21.0938 -81.3965 C 14.3555 -74.8047 11.2305 -68.75 11.2305 -58.5938 C 11.2305 -42.5781 18.6523 -25.6836 36.5723 -8.20312 C 54.3945 9.17969 70.459 16.3086 87.8906 16.3086 Z M 87.5977 5.9082 C 75.1953 5.95703 61.2305 -0.488281 44.6289 -16.6504 C 28.0273 -32.8613 21.9238 -47.3633 21.9727 -59.7656 C 21.9727 -64.5996 23.7793 -68.9941 27.0508 -71.8262 C 27.5391 -72.2168 28.0273 -72.6074 28.4668 -72.998 C 29.5898 -73.8281 30.7617 -74.2676 31.8848 -74.2676 C 33.3008 -74.2676 34.5703 -73.6328 35.6445 -72.1191 L 43.8477 -60.0586 C 45.3613 -57.8125 45.2637 -55.1758 43.0176 -53.0762 L 40.4297 -50.6348 C 35.6445 -46.1914 36.1328 -41.6992 38.2324 -38.2324 C 40.2832 -34.7656 45.5078 -28.7598 51.123 -23.291 C 57.8613 -16.7969 64.3066 -11.0352 67.0898 -9.375 C 70.5566 -7.27539 75.0488 -6.78711 79.4922 -11.5723 L 81.9336 -14.1602 C 84.0332 -16.4062 86.6211 -16.4551 88.916 -14.9902 L 100 -7.76367 C 101.611 -6.73828 102.148 -5.41992 102.148 -4.10156 C 102.148 -2.92969 101.758 -1.75781 100.83 -0.634766 C 100.488 -0.146484 100.098 0.341797 99.707 0.78125 C 96.875 4.05273 92.4316 5.9082 87.5977 5.9082 Z"/>
  </g>
  <g id="Bold-M" transform="matrix(1 0 0 1 2278.53 1126)">
   <path d="M 85.9375 15.0391 C 94.5312 15.0391 100.635 12.2559 106.396 6.25 C 106.738 5.85938 107.08 5.51758 107.422 5.12695 C 110.107 2.00195 111.67 -1.70898 111.67 -4.88281 C 111.67 -8.78906 109.863 -12.1582 105.469 -15.1855 L 90.2832 -25.7812 C 85.3027 -29.1992 79.7852 -29.3457 75.6348 -25.1465 L 72.2656 -21.7773 C 70.7031 -20.166 69.0918 -20.0684 66.9434 -21.7285 C 64.3066 -23.6816 59.9121 -27.5391 56.8359 -30.6152 C 53.9551 -33.5449 50.7812 -37.0605 48.8281 -39.8438 C 47.2168 -41.9922 47.3145 -43.5547 48.9258 -45.166 L 52.2949 -48.5352 C 56.4941 -52.6855 56.3477 -58.2031 52.8809 -63.1348 L 41.6992 -79.0039 C 38.9648 -82.9102 35.2051 -84.8145 31.25 -84.8633 C 27.9297 -84.9121 24.5605 -83.5938 21.3867 -80.9082 C 21.0449 -80.6152 20.6543 -80.2734 20.3613 -80.0293 C 14.0625 -74.0234 11.2305 -68.1152 11.2305 -58.5449 C 11.2305 -43.2617 19.0918 -26.2695 36.2305 -9.42383 C 53.3203 7.37305 69.6777 15.0391 85.9375 15.0391 Z M 85.791 5.66406 C 73.3398 5.76172 58.6914 -1.75781 43.457 -16.6992 C 28.1738 -31.6895 20.7031 -46.875 20.8496 -59.3262 C 20.8984 -64.3066 22.7051 -68.7988 26.1719 -71.8262 C 26.6113 -72.168 27.002 -72.5098 27.4414 -72.8516 C 28.6621 -73.8281 29.9805 -74.3652 31.2012 -74.3652 C 32.6172 -74.3652 33.8867 -73.7305 34.9121 -72.2656 L 43.5547 -59.4727 C 44.9219 -57.4219 44.873 -55.127 42.8711 -53.2715 L 39.6973 -50.1465 C 35.4004 -46.0938 35.791 -41.748 37.9883 -38.3301 C 40.332 -34.7656 45.4102 -28.9551 50.3906 -24.0723 C 56.0547 -18.5547 62.3535 -12.9395 65.4297 -10.8887 C 68.8477 -8.64258 73.2422 -8.25195 77.2949 -12.5488 L 80.3711 -15.7227 C 82.2754 -17.7246 84.5703 -17.7246 86.5723 -16.4062 L 98.7305 -8.39844 C 100.293 -7.42188 100.83 -6.10352 100.83 -4.73633 C 100.83 -3.51562 100.342 -2.19727 99.3164 -0.927734 C 98.9746 -0.537109 98.6816 -0.0976562 98.291 0.292969 C 95.3125 3.75977 90.8203 5.61523 85.791 5.66406 Z"/>
  </g>
  <g id="Semibold-M" transform="matrix(1 0 0 1 1982.72 1126)">
   <path d="M 84.5703 14.1602 C 93.1641 14.1602 99.0723 11.5723 104.541 5.71289 C 104.883 5.32227 105.273 4.93164 105.615 4.54102 C 108.398 1.36719 109.863 -2.14844 109.863 -5.27344 C 109.863 -9.0332 107.959 -12.4023 103.613 -15.4297 L 88.7695 -25.7324 C 84.0332 -29.0527 78.6133 -29.248 74.5117 -25.0977 L 70.9961 -21.582 C 69.5801 -20.166 68.2129 -20.0684 66.4551 -21.3379 C 63.8184 -23.2422 59.082 -27.3438 55.8105 -30.6152 C 52.5879 -33.8379 49.2188 -37.6465 47.3145 -40.5273 C 46.0449 -42.2852 46.0938 -43.6523 47.5098 -45.0684 L 51.0254 -48.584 C 55.1758 -52.6855 54.9805 -58.1055 51.6602 -62.8418 L 40.9668 -78.0762 C 38.1348 -82.1289 34.5215 -84.082 30.7617 -84.1309 C 27.5391 -84.1797 24.2188 -82.8125 20.9961 -80.0781 C 20.6055 -79.7363 20.2148 -79.3945 19.9219 -79.1016 C 13.8672 -73.4863 11.2305 -67.6758 11.2305 -58.4961 C 11.2305 -43.7012 19.3359 -26.709 35.9863 -10.2539 C 52.5879 6.10352 69.1895 14.1602 84.5703 14.1602 Z M 84.5215 5.46875 C 72.0703 5.61523 56.9336 -2.63672 42.627 -16.748 C 28.3203 -30.9082 19.9219 -46.582 20.0684 -58.9844 C 20.1172 -64.1602 21.9727 -68.7012 25.5859 -71.8262 C 25.9766 -72.1191 26.3184 -72.4121 26.709 -72.7539 C 28.0273 -73.8281 29.4434 -74.4141 30.7129 -74.4141 C 32.1289 -74.4141 33.3984 -73.8281 34.375 -72.3633 L 43.3594 -59.0332 C 44.5801 -57.1777 44.5801 -55.127 42.7734 -53.3691 L 39.1602 -49.8535 C 35.2051 -46.0449 35.5469 -41.748 37.8418 -38.3789 C 40.332 -34.7656 45.3613 -29.0527 49.8535 -24.6094 C 54.834 -19.7266 60.9863 -14.2578 64.3066 -11.9141 C 67.6758 -9.61914 71.9727 -9.27734 75.7812 -13.2324 L 79.2969 -16.7969 C 81.0547 -18.6523 83.1543 -18.6035 84.9609 -17.3828 L 97.9004 -8.83789 C 99.4141 -7.86133 99.9512 -6.5918 99.9512 -5.22461 C 99.9512 -3.90625 99.3652 -2.49023 98.2422 -1.17188 C 97.9492 -0.78125 97.6562 -0.439453 97.3633 -0.0488281 C 94.1895 3.56445 89.6484 5.41992 84.5215 5.46875 Z"/>
  </g>
  <g id="Medium-M" transform="matrix(1 0 0 1 1686.69 1126)">
   <path d="M 83.5449 13.4766 C 92.0898 13.4766 97.9004 11.0352 103.174 5.32227 C 103.516 4.93164 103.857 4.49219 104.199 4.10156 C 107.08 0.878906 108.496 -2.49023 108.496 -5.61523 C 108.496 -9.27734 106.543 -12.5977 102.197 -15.5762 L 87.6465 -25.7324 C 83.0566 -28.9062 77.7344 -29.1504 73.6328 -25.0488 L 70.0195 -21.4355 C 68.75 -20.166 67.5293 -20.0684 66.0645 -21.0938 C 63.4277 -22.8516 58.4473 -27.2461 55.0293 -30.6641 C 51.5625 -34.1309 48.0469 -38.0371 46.1426 -41.0156 C 45.1172 -42.5293 45.2148 -43.7012 46.4844 -44.9707 L 50.0977 -48.584 C 54.1992 -52.6855 53.9551 -58.0078 50.7324 -62.5977 L 40.3809 -77.3926 C 37.5 -81.5918 34.0332 -83.5449 30.3711 -83.5938 C 27.2461 -83.6426 23.9258 -82.2266 20.7031 -79.3945 C 20.3125 -79.0527 19.9219 -78.7109 19.5312 -78.3691 C 13.7207 -73.0469 11.2305 -67.334 11.2305 -58.4473 C 11.2305 -44.043 19.5801 -27.0508 35.8398 -10.8887 C 52.002 5.17578 68.7988 13.4766 83.5449 13.4766 Z M 83.5449 5.32227 C 71.0938 5.51758 55.6152 -3.32031 42.041 -16.7969 C 28.3691 -30.2734 19.2871 -46.3379 19.4824 -58.7891 C 19.5801 -64.0137 21.4355 -68.6035 25.0977 -71.8262 C 25.4883 -72.1191 25.7812 -72.3633 26.1719 -72.6562 C 27.5391 -73.8281 29.0039 -74.4629 30.3711 -74.4629 C 31.7871 -74.4629 33.0566 -73.877 34.0332 -72.4121 L 43.1641 -58.6914 C 44.3359 -57.0312 44.3848 -55.127 42.6758 -53.4668 L 38.7695 -49.6094 C 35.0586 -45.9961 35.4004 -41.748 37.7441 -38.4277 C 40.3809 -34.7656 45.3125 -29.1504 49.4629 -25.0488 C 53.9062 -20.6543 59.9609 -15.2344 63.4766 -12.6953 C 66.7969 -10.3516 71.0449 -10.0098 74.6582 -13.7207 L 78.5156 -17.627 C 80.127 -19.3359 82.0312 -19.2871 83.7402 -18.1641 L 97.2168 -9.17969 C 98.7305 -8.20312 99.2676 -6.98242 99.2676 -5.56641 C 99.2676 -4.19922 98.6328 -2.73438 97.4609 -1.31836 C 97.168 -0.976562 96.9238 -0.683594 96.6309 -0.292969 C 93.4082 3.41797 88.8184 5.27344 83.5449 5.32227 Z"/>
  </g>
  <g id="Regular-M" transform="matrix(1 0 0 1 1390.86 1126)">
   <path d="M 82.2266 12.6465 C 90.7715 12.6465 96.3867 10.3516 101.318 4.78516 C 101.709 4.39453 102.1 3.95508 102.441 3.56445 C 105.371 0.292969 106.738 -2.92969 106.738 -6.00586 C 106.738 -9.52148 104.688 -12.793 100.342 -15.8203 L 86.1328 -25.6836 C 81.7383 -28.7109 76.6113 -29.0527 72.5098 -25 L 68.75 -21.2402 C 67.627 -20.1172 66.6504 -20.0684 65.5762 -20.752 C 62.9395 -22.4121 57.6172 -27.0508 54.0039 -30.6641 C 50.1953 -34.4238 46.5332 -38.623 44.5801 -41.6992 C 43.9453 -42.8223 43.9941 -43.75 45.1172 -44.873 L 48.8281 -48.6328 C 52.9297 -52.7344 52.5879 -57.9102 49.5605 -62.2559 L 39.6973 -76.4648 C 36.6699 -80.8105 33.3984 -82.8125 29.8828 -82.8613 C 26.8066 -82.9102 23.584 -81.4941 20.3125 -78.5645 C 19.873 -78.1738 19.4824 -77.832 19.0918 -77.4902 C 13.5254 -72.5098 11.2305 -66.8945 11.2305 -58.4473 C 11.2305 -44.4824 19.8242 -27.4902 35.5957 -11.7188 C 51.2695 3.95508 68.3105 12.6465 82.2266 12.6465 Z M 82.2754 5.12695 C 69.8242 5.37109 53.8574 -4.19922 41.2109 -16.7969 C 28.4668 -29.4922 18.457 -45.9961 18.7012 -58.4473 C 18.7988 -63.8184 20.7031 -68.457 24.5117 -71.7773 C 24.8535 -72.0703 25.0977 -72.3145 25.4395 -72.5586 C 26.9043 -73.8281 28.4668 -74.5117 29.8828 -74.5117 C 31.2988 -74.5117 32.5684 -73.9746 33.4961 -72.5098 L 42.9688 -58.3008 C 43.9941 -56.7871 44.0918 -55.0781 42.5781 -53.5645 L 38.2812 -49.2676 C 34.9121 -45.8984 35.1562 -41.7969 37.5977 -38.5254 C 40.3809 -34.7656 45.2148 -29.2969 48.9746 -25.5859 C 52.6855 -21.8262 58.5938 -16.5527 62.4023 -13.7207 C 65.6738 -11.2793 69.7754 -11.0352 73.1445 -14.4043 L 77.4414 -18.7012 C 78.9551 -20.2148 80.6152 -20.1172 82.1777 -19.1406 L 96.3867 -9.66797 C 97.8516 -8.69141 98.3887 -7.4707 98.3887 -6.00586 C 98.3887 -4.58984 97.7051 -3.02734 96.4355 -1.5625 C 96.1426 -1.2207 95.9473 -0.976562 95.6543 -0.634766 C 92.334 3.17383 87.6953 5.0293 82.2754 5.12695 Z"/>
  </g>
  <g id="Light-M" transform="matrix(1 0 0 1 1095.54 1126)">
   <path d="M 80.3223 11.2305 C 88.1348 11.2305 93.8477 9.0332 98.7793 3.71094 C 99.0723 3.36914 99.3652 3.07617 99.6094 2.7832 C 102.539 -0.390625 103.955 -3.61328 103.955 -6.5918 C 103.955 -9.76562 102.148 -12.6953 98.4375 -15.2344 L 84.2773 -25 C 80.2734 -27.7832 75.5371 -28.2227 71.2891 -24.0723 L 67.7246 -20.5566 C 66.6504 -19.4824 65.4785 -19.2871 64.1602 -20.0195 C 61.7676 -21.4844 56.3477 -25.9277 52.1973 -30.0781 C 47.6562 -34.6191 44.4336 -38.2812 42.4805 -41.6992 C 41.748 -43.0176 41.9434 -44.1895 43.0176 -45.2637 L 46.5332 -48.8281 C 50.6836 -53.0762 50.2441 -57.8125 47.4609 -61.8164 L 37.6953 -75.9766 C 35.1562 -79.6875 32.2266 -81.3965 29.0527 -81.4941 C 26.0742 -81.543 22.8027 -80.0781 19.6777 -77.1484 C 19.3848 -76.9043 19.0918 -76.6113 18.75 -76.3184 C 13.4766 -71.4355 11.2305 -65.7715 11.2305 -58.0566 C 11.2305 -44.3359 20.1172 -27.832 35.2051 -12.7441 C 50.2441 2.24609 66.6992 11.2305 80.3223 11.2305 Z M 80.3711 5.32227 C 67.9199 5.46875 52.3438 -3.90625 39.5508 -16.748 C 26.6602 -29.5898 16.9922 -45.5566 17.1387 -58.0566 C 17.1875 -63.4766 19.043 -68.2617 22.998 -71.9238 C 23.291 -72.1191 23.4863 -72.3145 23.7305 -72.5098 C 25.5371 -74.1699 27.3926 -75 28.9551 -75 C 30.5176 -75 31.8359 -74.3652 32.8613 -72.7539 L 42.334 -58.6426 C 43.5547 -56.8359 43.75 -54.7852 41.748 -52.7832 L 37.7441 -48.8281 C 34.8145 -45.8984 34.9121 -42.1387 36.9141 -39.209 C 39.2578 -35.791 43.7988 -30.5176 48.1934 -26.0742 C 52.6367 -21.582 58.252 -16.7969 61.6699 -14.4531 C 64.5996 -12.4512 68.3594 -12.3535 71.2891 -15.2832 L 75.2441 -19.2871 C 77.2461 -21.2891 79.2969 -21.0938 81.1035 -19.873 L 95.2148 -10.4004 C 96.8262 -9.375 97.4609 -8.05664 97.4609 -6.49414 C 97.4609 -4.88281 96.6309 -3.07617 94.9707 -1.26953 C 94.7266 -0.976562 94.5801 -0.830078 94.3848 -0.537109 C 90.7227 3.41797 85.8887 5.27344 80.3711 5.32227 Z"/>
  </g>
  <g id="Thin-M" transform="matrix(1 0 0 1 800.685 1126)">
   <path d="M 77.832 9.375 C 84.7168 9.375 90.5273 7.32422 95.459 2.24609 C 95.6055 2.05078 95.8008 1.9043 95.9473 1.75781 C 98.877 -1.26953 100.244 -4.44336 100.244 -7.37305 C 100.244 -10.0586 98.8281 -12.5977 95.9473 -14.5508 L 81.8848 -24.1211 C 78.3203 -26.5625 74.1211 -27.1484 69.6777 -22.8516 L 66.4062 -19.6777 C 65.332 -18.6035 63.9648 -18.2617 62.3535 -19.0918 C 60.2051 -20.2637 54.6875 -24.4141 49.8047 -29.2969 C 44.2383 -34.8145 41.748 -37.8418 39.6973 -41.748 C 38.8672 -43.3594 39.209 -44.7266 40.2832 -45.8008 L 43.457 -49.1211 C 47.7539 -53.5156 47.168 -57.7148 44.7266 -61.2793 L 35.1562 -75.3418 C 33.1543 -78.2227 30.6641 -79.5898 27.9297 -79.6387 C 25.0488 -79.6875 21.7773 -78.2227 18.8477 -75.3418 C 18.6523 -75.1465 18.5547 -75.0488 18.3594 -74.8535 C 13.3789 -70.0195 11.2305 -64.209 11.2305 -57.5195 C 11.2305 -44.1406 20.4102 -28.3691 34.7168 -14.1113 C 48.877 0 64.5508 9.375 77.832 9.375 Z M 77.8809 5.56641 C 65.4297 5.61523 50.3906 -3.56445 37.3047 -16.6016 C 24.2188 -29.7363 14.9902 -45.0195 15.0391 -57.4707 C 15.0391 -63.0371 16.8945 -68.0176 20.9961 -72.0215 C 21.1914 -72.168 21.3379 -72.3145 21.4844 -72.5098 C 23.7305 -74.6582 25.9277 -75.6836 27.7344 -75.6836 C 29.4434 -75.6836 30.8105 -74.8535 32.0312 -73.0957 L 41.5039 -59.082 C 42.9199 -56.9824 43.3105 -54.3945 40.625 -51.7578 L 37.0117 -48.1934 C 34.668 -45.8984 34.5703 -42.627 36.0352 -40.1367 C 37.7441 -37.1582 41.8945 -32.1289 47.2168 -26.709 C 52.5879 -21.2891 57.7637 -17.1387 60.7422 -15.4297 C 63.2324 -13.9648 66.5039 -14.0625 68.7988 -16.4062 L 72.3633 -20.0195 C 75 -22.7051 77.5391 -22.3145 79.6875 -20.8984 L 93.7012 -11.4258 C 95.459 -10.2539 96.2891 -8.83789 96.2891 -7.17773 C 96.2891 -5.27344 95.2637 -3.125 93.0176 -0.878906 C 92.8711 -0.683594 92.7734 -0.585938 92.627 -0.439453 C 88.5742 3.71094 83.4961 5.56641 77.8809 5.56641 Z"/>
  </g>
  <g id="Ultralight-M" transform="matrix(1 0 0 1 504.926 1126)">
   <path d="M 76.5625 8.39844 C 82.959 8.39844 88.8184 6.44531 93.75 1.51367 C 93.8477 1.41602 93.9941 1.26953 94.043 1.2207 C 96.9727 -1.70898 98.3398 -4.88281 98.3398 -7.76367 C 98.3398 -10.2051 97.1191 -12.5 94.6289 -14.1602 L 80.6152 -23.6816 C 77.3438 -25.9277 73.3887 -26.6113 68.8965 -22.2656 L 65.7227 -19.1895 C 64.6484 -18.1641 63.1348 -17.7734 61.377 -18.6523 C 59.4238 -19.6289 53.8574 -23.6816 48.584 -28.8574 C 42.4805 -34.9121 40.332 -37.5977 38.2812 -41.748 C 37.4023 -43.5059 37.793 -45.0195 38.8672 -46.0449 L 41.8945 -49.2188 C 46.2402 -53.7109 45.5566 -57.7148 43.3594 -60.9863 L 33.7891 -75 C 32.1289 -77.4414 29.8828 -78.6133 27.3926 -78.6621 C 24.5117 -78.7598 21.2891 -77.2461 18.4082 -74.3652 C 18.3105 -74.2676 18.2617 -74.2188 18.1152 -74.0723 C 13.3301 -69.2871 11.2305 -63.4277 11.2305 -57.2266 C 11.2305 -44.043 20.6055 -28.6133 34.4727 -14.7949 C 48.1934 -1.12305 63.4277 8.39844 76.5625 8.39844 Z M 76.5625 5.71289 C 64.1602 5.71289 49.3652 -3.41797 36.1816 -16.5527 C 22.9492 -29.7852 13.9648 -44.7266 13.9648 -57.1777 C 13.9648 -62.793 15.8203 -67.9199 20.0195 -72.1191 C 20.1172 -72.2168 20.2637 -72.3633 20.3613 -72.4609 C 22.8027 -74.9023 25.1953 -76.0254 27.1484 -76.0254 C 28.9062 -76.0254 30.3223 -75.0977 31.5918 -73.291 L 41.0645 -59.3262 C 42.627 -57.0312 43.0664 -54.1992 40.0391 -51.2207 L 36.6211 -47.9004 C 34.6191 -45.8984 34.4238 -42.8711 35.5469 -40.5762 C 36.9629 -37.8906 40.9668 -32.959 46.7285 -27.0508 C 52.5391 -21.0938 57.5195 -17.334 60.2539 -15.918 C 62.5488 -14.7461 65.5762 -14.9414 67.5293 -16.9922 L 70.8984 -20.4102 C 73.8281 -23.4375 76.6602 -22.9492 79.0039 -21.3867 L 92.9199 -11.9141 C 94.7266 -10.6934 95.7031 -9.22852 95.7031 -7.4707 C 95.7031 -5.46875 94.5801 -3.17383 92.041 -0.634766 C 91.9434 -0.537109 91.8457 -0.488281 91.748 -0.341797 C 87.5 3.90625 82.3242 5.71289 76.5625 5.71289 Z"/>
  </g>
  <g id="Black-S" transform="matrix(1 0 0 1 2883.4 696)">
   <path d="M 70.1172 5.95703 C 76.9043 5.95703 82.0801 3.41797 87.1582 -1.66016 C 87.4023 -1.9043 87.6465 -2.14844 87.8906 -2.44141 C 89.8438 -4.78516 91.2109 -8.00781 91.2109 -10.5957 C 91.2109 -13.9648 89.9414 -16.6992 86.4746 -19.0918 L 73.8281 -27.8809 C 69.4824 -30.9082 64.8926 -30.8594 61.6211 -27.4902 L 59.2773 -25.0977 C 57.666 -23.4863 55.957 -23.3398 53.5156 -25.3906 C 51.416 -27.1484 48.6816 -29.5898 46.6797 -31.5918 C 45.0684 -33.2031 42.9688 -35.5469 41.4551 -37.4512 C 39.502 -39.8926 39.5508 -41.6016 41.1621 -43.2129 L 43.5547 -45.5566 C 46.9238 -48.8281 47.0215 -53.4668 43.9453 -57.7637 L 34.1797 -71.3867 C 32.2266 -74.1211 28.9062 -75.6348 25.4883 -75.6348 C 22.7539 -75.6348 19.9707 -74.707 17.5781 -72.8027 C 17.334 -72.6074 17.041 -72.3633 16.9434 -72.2656 C 11.4258 -66.748 8.78906 -61.9141 8.78906 -53.5645 C 8.78906 -40.5762 14.3555 -27.3438 28.8574 -13.2812 C 43.3105 0.732422 55.6641 5.95703 70.1172 5.95703 Z M 69.8242 -2.83203 C 60.1074 -2.83203 49.5605 -7.22656 35.7422 -20.6543 C 21.875 -34.1309 17.9199 -45.0195 17.9199 -54.7363 C 17.9199 -58.3984 19.3359 -61.8164 21.7773 -63.916 C 22.168 -64.2578 22.6074 -64.5996 22.998 -64.8926 C 23.7793 -65.4785 24.6094 -65.7715 25.4395 -65.7715 C 26.5137 -65.7715 27.5391 -65.2344 28.3691 -64.0625 L 34.5215 -55.0781 C 35.8398 -53.125 35.6934 -50.8789 33.7891 -49.1211 L 32.1289 -47.6074 C 28.0762 -43.8965 28.5156 -40.2832 30.0781 -37.5 C 31.543 -34.8633 35.7422 -30.0293 40.5273 -25.3906 C 46.4355 -19.6777 51.6113 -15.0879 53.5645 -14.0137 C 56.3477 -12.4512 59.9609 -12.0117 63.6719 -16.0645 L 65.1855 -17.7246 C 66.9434 -19.6289 69.1895 -19.7266 71.1426 -18.457 L 79.1504 -13.2812 C 80.4199 -12.4512 80.8594 -11.4258 80.8594 -10.4004 C 80.8594 -9.57031 80.6152 -8.74023 79.9805 -7.91016 C 79.6875 -7.51953 79.3457 -7.08008 79.0039 -6.68945 C 76.9043 -4.24805 73.4863 -2.83203 69.8242 -2.83203 Z"/>
  </g>
  <g id="Heavy-S" transform="matrix(1 0 0 1 2587.42 696)">
   <path d="M 68.9941 5.22461 C 75.8301 5.22461 80.8105 2.88086 85.5957 -2.05078 C 85.8887 -2.34375 86.1328 -2.58789 86.4258 -2.92969 C 88.4277 -5.32227 89.7461 -8.39844 89.7461 -10.9375 C 89.7461 -14.209 88.3789 -16.9434 84.8145 -19.3848 L 72.5586 -27.9297 C 68.3594 -30.8105 63.8672 -30.8594 60.6445 -27.5391 L 58.1055 -25 C 56.6895 -23.5352 55.2246 -23.4375 53.1738 -25.0977 C 51.0742 -26.8066 47.998 -29.541 45.8496 -31.6895 C 43.9941 -33.4961 41.6504 -36.1328 40.1367 -38.1348 C 38.5254 -40.1855 38.5742 -41.6504 40.0391 -43.0664 L 42.5781 -45.5566 C 45.8984 -48.8281 45.8984 -53.3691 42.9688 -57.4707 L 33.6914 -70.5566 C 31.5918 -73.4863 28.3691 -75.0488 25.0977 -75.0488 C 22.4121 -75.0977 19.6777 -74.1211 17.2363 -72.1191 C 16.9922 -71.875 16.6504 -71.6309 16.5039 -71.4844 C 11.2305 -66.3086 8.78906 -61.6211 8.78906 -53.5645 C 8.78906 -41.0645 14.5996 -27.7344 28.6621 -14.0137 C 42.6758 -0.341797 55.3223 5.22461 68.9941 5.22461 Z M 68.7988 -3.02734 C 59.0332 -2.97852 47.998 -8.10547 35.1074 -20.7031 C 22.168 -33.3008 17.2852 -44.7266 17.334 -54.4922 C 17.334 -58.252 18.7988 -61.7188 21.3379 -63.916 C 21.7285 -64.209 22.1191 -64.502 22.4609 -64.7949 C 23.291 -65.4297 24.1699 -65.7715 25.0488 -65.7715 C 26.123 -65.7715 27.1484 -65.2832 27.9297 -64.1113 L 34.375 -54.6387 C 35.5469 -52.8809 35.4492 -50.8789 33.7891 -49.3164 L 31.6895 -47.3145 C 27.9297 -43.8477 28.3203 -40.2832 30.0293 -37.5 C 31.6895 -34.7168 35.8398 -30.0293 40.0879 -25.8789 C 45.2148 -20.8984 50.293 -16.3574 52.5391 -14.9414 C 55.3223 -13.2812 58.8867 -12.8906 62.4023 -16.6504 L 64.3555 -18.75 C 65.918 -20.4102 67.9199 -20.5078 69.6777 -19.3359 L 78.418 -13.623 C 79.6387 -12.8418 80.0781 -11.8164 80.0781 -10.791 C 80.0781 -9.91211 79.7852 -9.0332 79.1016 -8.1543 C 78.8086 -7.8125 78.5156 -7.42188 78.1738 -7.03125 C 76.0254 -4.49219 72.5586 -3.07617 68.7988 -3.02734 Z"/>
  </g>
  <g id="Bold-S" transform="matrix(1 0 0 1 2291.54 696)">
   <path d="M 67.7246 4.44336 C 74.6094 4.44336 79.3945 2.24609 83.8867 -2.49023 C 84.1797 -2.83203 84.4727 -3.125 84.7656 -3.4668 C 86.8652 -5.95703 88.0859 -8.83789 88.0859 -11.3281 C 88.0859 -14.4531 86.5723 -17.1875 83.0078 -19.6777 L 71.0938 -27.9785 C 67.1387 -30.7617 62.6953 -30.8105 59.5215 -27.5879 L 56.7871 -24.8535 C 55.5664 -23.584 54.3945 -23.5352 52.7832 -24.8047 C 50.6348 -26.416 47.2168 -29.4922 44.9219 -31.7871 C 42.8223 -33.8867 40.1855 -36.7676 38.7207 -38.8672 C 37.5 -40.4785 37.5 -41.6504 38.7695 -42.9199 L 41.4551 -45.6055 C 44.7266 -48.8281 44.6777 -53.2227 41.8945 -57.1777 L 33.1055 -69.5801 C 30.8594 -72.8027 27.832 -74.4141 24.6582 -74.4141 C 22.0703 -74.4629 19.3848 -73.4375 16.8945 -71.3379 C 16.6016 -71.0449 16.2598 -70.8008 16.0156 -70.5566 C 11.0352 -65.8691 8.78906 -61.2793 8.78906 -53.5645 C 8.78906 -41.5527 14.8926 -28.1738 28.4668 -14.7949 C 41.9922 -1.51367 54.9805 4.44336 67.7246 4.44336 Z M 67.5781 -3.27148 C 57.8613 -3.125 46.2402 -9.13086 34.4238 -20.752 C 22.5586 -32.4219 16.5527 -44.4336 16.6504 -54.1992 C 16.6992 -58.1055 18.1641 -61.5723 20.8496 -63.8672 C 21.1914 -64.1602 21.5332 -64.4531 21.875 -64.6973 C 22.7539 -65.3809 23.7305 -65.7715 24.6582 -65.7715 C 25.7324 -65.7715 26.709 -65.332 27.4414 -64.1602 L 34.2285 -54.1016 C 35.2539 -52.5879 35.2051 -50.9277 33.7891 -49.5605 L 31.2012 -47.0215 C 27.7344 -43.75 28.0762 -40.2344 29.9316 -37.5 C 31.8848 -34.6191 35.9375 -29.9805 39.5996 -26.416 C 43.8477 -22.2656 48.8281 -17.7734 51.3672 -16.0156 C 54.1504 -14.1602 57.666 -13.8184 60.9375 -17.2852 L 63.4766 -19.873 C 64.7949 -21.2891 66.5039 -21.3379 68.0176 -20.3613 L 77.5879 -14.0625 C 78.7598 -13.2812 79.1992 -12.3047 79.1992 -11.2305 C 79.1992 -10.3027 78.8086 -9.375 78.125 -8.44727 C 77.832 -8.10547 77.5879 -7.76367 77.2949 -7.42188 C 75 -4.73633 71.5332 -3.32031 67.5781 -3.27148 Z"/>
  </g>
  <g id="Semibold-S" transform="matrix(1 0 0 1 1995.39 696)">
   <path d="M 66.8457 3.90625 C 73.7793 3.90625 78.418 1.85547 82.7148 -2.83203 C 83.0078 -3.125 83.3008 -3.4668 83.5938 -3.80859 C 85.791 -6.34766 86.9629 -9.13086 86.9629 -11.5723 C 86.9629 -14.6484 85.4004 -17.3828 81.7383 -19.9219 L 70.1172 -28.0273 C 66.2598 -30.6641 61.9141 -30.8105 58.7402 -27.5879 L 55.9082 -24.7559 C 54.7852 -23.6328 53.8086 -23.584 52.4902 -24.5605 C 50.3418 -26.123 46.6797 -29.4434 44.2871 -31.8359 C 41.9922 -34.1309 39.209 -37.2559 37.6953 -39.4043 C 36.7188 -40.6738 36.7676 -41.6992 37.8906 -42.7734 L 40.7227 -45.6055 C 43.9453 -48.7793 43.7988 -53.1738 41.1133 -56.9824 L 32.7148 -68.9453 C 30.3223 -72.3145 27.3926 -73.9746 24.3164 -73.9746 C 21.8262 -74.0234 19.1895 -72.9492 16.6504 -70.8008 C 16.3086 -70.5078 15.9668 -70.2148 15.6738 -69.9707 C 10.8887 -65.5273 8.78906 -61.0352 8.78906 -53.6133 C 8.78906 -41.9434 15.0879 -28.4668 28.3203 -15.332 C 41.5039 -2.29492 54.7363 3.90625 66.8457 3.90625 Z M 66.7969 -3.41797 C 57.0312 -3.27148 45.0195 -9.81445 33.9355 -20.8008 C 22.8027 -31.7871 16.0645 -44.2383 16.2109 -54.0039 C 16.2598 -58.0078 17.7246 -61.4746 20.5078 -63.8672 C 20.8496 -64.1113 21.1426 -64.3555 21.4355 -64.5996 C 22.3633 -65.332 23.3887 -65.7715 24.3652 -65.7715 C 25.4395 -65.7715 26.416 -65.332 27.1484 -64.209 L 34.1309 -53.7598 C 35.0586 -52.3926 35.0098 -50.9277 33.7891 -49.707 L 30.8594 -46.8262 C 27.5879 -43.7012 27.9297 -40.2344 29.8828 -37.4512 C 31.9824 -34.5215 35.9863 -29.9805 39.3066 -26.7578 C 42.9199 -23.1934 47.8516 -18.75 50.5859 -16.748 C 53.3203 -14.7949 56.8359 -14.502 59.9609 -17.7246 L 62.8418 -20.6543 C 64.0137 -21.9238 65.5273 -21.9238 66.8457 -21.0449 L 77.0508 -14.3066 C 78.1738 -13.5742 78.5645 -12.5977 78.5645 -11.5723 C 78.5645 -10.5957 78.1738 -9.57031 77.4414 -8.64258 C 77.1973 -8.34961 76.9531 -8.00781 76.6602 -7.71484 C 74.3164 -4.93164 70.8008 -3.4668 66.7969 -3.41797 Z"/>
  </g>
  <g id="Medium-S" transform="matrix(1 0 0 1 1699.12 696)">
   <path d="M 66.2109 3.51562 C 73.1934 3.51562 77.6855 1.51367 81.7871 -3.02734 C 82.1289 -3.36914 82.4219 -3.75977 82.7148 -4.10156 C 84.9609 -6.68945 86.084 -9.32617 86.084 -11.7676 C 86.084 -14.7949 84.4727 -17.5293 80.8105 -20.0684 L 69.3359 -28.0273 C 65.625 -30.6152 61.3281 -30.8105 58.1543 -27.6367 L 55.2246 -24.707 C 54.1992 -23.6816 53.3691 -23.6328 52.2949 -24.4141 C 50.1465 -25.9277 46.2891 -29.3945 43.7988 -31.8848 C 41.3574 -34.3262 38.4277 -37.5977 36.9629 -39.7949 C 36.1816 -40.8203 36.1816 -41.6992 37.207 -42.7246 L 40.1367 -45.6055 C 43.3105 -48.7793 43.1641 -53.0762 40.5762 -56.8359 L 32.4219 -68.457 C 29.9316 -71.9727 27.0996 -73.6328 24.1211 -73.6328 C 21.6309 -73.6816 19.043 -72.6074 16.4551 -70.3613 C 16.1133 -70.0684 15.7715 -69.7754 15.4297 -69.4824 C 10.791 -65.2832 8.78906 -60.8398 8.78906 -53.6133 C 8.78906 -42.1875 15.2344 -28.6621 28.2227 -15.7715 C 41.1621 -2.92969 54.541 3.51562 66.2109 3.51562 Z M 66.1621 -3.51562 C 56.4453 -3.32031 44.1406 -10.3516 33.5449 -20.8008 C 22.9492 -31.2988 15.6738 -44.0918 15.8691 -53.8574 C 15.9668 -57.9102 17.4316 -61.4258 20.2637 -63.8672 C 20.5566 -64.1113 20.8496 -64.3066 21.1426 -64.5508 C 22.0703 -65.332 23.1445 -65.7715 24.1211 -65.7715 C 25.1953 -65.7715 26.1719 -65.3809 26.9043 -64.2578 L 34.082 -53.4668 C 34.9121 -52.2461 34.9121 -50.9277 33.7402 -49.8047 L 30.5664 -46.6797 C 27.4902 -43.6523 27.7832 -40.1855 29.834 -37.4512 C 32.0801 -34.4238 36.0352 -29.9805 39.0137 -27.0508 C 42.2363 -23.9258 47.0703 -19.4824 50 -17.2852 C 52.7344 -15.2832 56.2012 -14.9902 59.1797 -18.0664 L 62.3535 -21.2402 C 63.4277 -22.3633 64.7949 -22.3633 66.0156 -21.5332 L 76.6113 -14.5508 C 77.7344 -13.8184 78.125 -12.8418 78.125 -11.7676 C 78.125 -10.791 77.6855 -9.76562 76.9043 -8.78906 C 76.6602 -8.49609 76.4648 -8.20312 76.1719 -7.91016 C 73.7793 -5.07812 70.2637 -3.61328 66.1621 -3.51562 Z"/>
  </g>
  <g id="Regular-S" transform="matrix(1 0 0 1 1402.97 696)">
   <path d="M 65.332 2.97852 C 72.3633 2.97852 76.709 1.12305 80.6152 -3.32031 C 80.957 -3.71094 81.25 -4.10156 81.5918 -4.44336 C 83.8867 -7.08008 84.9609 -9.61914 84.9609 -12.0605 C 84.9609 -14.9902 83.252 -17.7246 79.541 -20.2637 L 68.3594 -28.0762 C 64.7461 -30.5664 60.5469 -30.7617 57.373 -27.6367 L 54.3457 -24.6094 C 53.4668 -23.7305 52.7832 -23.7305 52.0508 -24.2188 C 49.8535 -25.6348 45.752 -29.3457 43.1641 -31.9336 C 40.5762 -34.5215 37.4023 -38.0371 35.9375 -40.2832 C 35.4492 -41.0645 35.4492 -41.6992 36.3281 -42.5781 L 39.4043 -45.6543 C 42.5293 -48.7793 42.334 -53.0273 39.7949 -56.6406 L 32.0312 -67.7734 C 29.4434 -71.4844 26.709 -73.1934 23.7793 -73.2422 C 21.3867 -73.291 18.8477 -72.168 16.2109 -69.873 C 15.8203 -69.5312 15.4785 -69.1895 15.0879 -68.8477 C 10.6445 -64.9902 8.78906 -60.5957 8.78906 -53.6133 C 8.78906 -42.5781 15.4297 -28.9551 28.0762 -16.3086 C 40.6738 -3.71094 54.2969 2.97852 65.332 2.97852 Z M 65.3809 -3.66211 C 55.6152 -3.4668 42.9199 -11.0352 33.1055 -20.8496 C 23.1934 -30.6641 15.1855 -43.8965 15.4297 -53.6621 C 15.5273 -57.8125 16.9922 -61.3281 19.9219 -63.8184 C 20.2148 -64.0625 20.459 -64.2578 20.752 -64.502 C 21.7285 -65.2832 22.8516 -65.7715 23.8281 -65.7715 C 24.9023 -65.7715 25.8789 -65.3809 26.5625 -64.3066 L 33.9844 -53.125 C 34.7168 -52.0508 34.7168 -50.9277 33.7402 -50 L 30.2246 -46.4844 C 27.3926 -43.6035 27.6367 -40.1855 29.7852 -37.4512 C 32.1777 -34.3262 36.084 -29.9805 38.7207 -27.4414 C 41.3086 -24.8535 46.0938 -20.459 49.2188 -18.0176 C 51.9531 -15.918 55.3711 -15.625 58.2031 -18.5059 L 61.7188 -22.0215 C 62.6953 -22.9492 63.8184 -22.9492 64.8926 -22.2168 L 76.0254 -14.7949 C 77.1484 -14.1113 77.4902 -13.1836 77.4902 -12.1094 C 77.4902 -11.084 77.0508 -9.96094 76.2207 -8.98438 C 76.0254 -8.69141 75.8301 -8.44727 75.5859 -8.20312 C 73.0957 -5.22461 69.5312 -3.75977 65.3809 -3.66211 Z"/>
  </g>
  <g id="Light-S" transform="matrix(1 0 0 1 1107.5 696)">
   <path d="M 63.6719 1.70898 C 70.0684 1.70898 74.4629 -0.0488281 78.3691 -4.29688 C 78.6133 -4.58984 78.8574 -4.88281 79.1016 -5.17578 C 81.3965 -7.66602 82.4707 -10.2051 82.4707 -12.5488 C 82.4707 -15.1855 81.0059 -17.627 77.832 -19.7754 L 66.748 -27.4902 C 63.4766 -29.7363 59.5703 -30.0781 56.2988 -26.8555 L 53.418 -24.0234 C 52.5879 -23.1445 51.7578 -23.0469 50.7812 -23.584 C 48.8281 -24.8047 44.6289 -28.3691 41.6016 -31.3965 C 38.2812 -34.668 35.5957 -37.7441 34.082 -40.2832 C 33.5449 -41.2598 33.6426 -42.0898 34.5215 -42.9199 L 37.3535 -45.8008 C 40.5762 -49.0723 40.2344 -52.9785 37.9883 -56.25 L 30.2734 -67.334 C 28.125 -70.5078 25.6836 -71.9238 23.0469 -71.9727 C 20.7031 -72.0215 18.1641 -70.8984 15.6738 -68.6035 C 15.3809 -68.3594 15.0879 -68.1152 14.7949 -67.8711 C 10.5957 -64.0137 8.78906 -59.5703 8.78906 -53.2715 C 8.78906 -42.4316 15.625 -29.2969 27.7344 -17.2363 C 39.7461 -5.22461 52.832 1.70898 63.6719 1.70898 Z M 63.6719 -3.51562 C 53.9551 -3.36914 41.6016 -10.791 31.5918 -20.752 C 21.582 -30.7617 13.8672 -43.5059 14.0137 -53.2715 C 14.0625 -57.5195 15.5273 -61.1816 18.6035 -63.916 C 18.7988 -64.1113 18.9941 -64.2578 19.2383 -64.4531 C 20.5078 -65.625 21.875 -66.2109 23.0469 -66.2109 C 24.2188 -66.2109 25.1953 -65.7227 25.9766 -64.5508 L 33.3984 -53.418 C 34.2773 -52.1484 34.4238 -50.6836 33.0078 -49.2676 L 29.7363 -46.0449 C 27.2949 -43.6035 27.4414 -40.5273 29.1992 -38.0859 C 31.2012 -35.2539 34.8633 -31.0547 38.0371 -27.8809 C 41.2598 -24.6582 45.752 -20.7031 48.584 -18.7012 C 51.0254 -16.9434 54.1016 -16.7969 56.543 -19.2383 L 59.7656 -22.5098 C 61.1816 -23.9258 62.6465 -23.7793 63.916 -22.9004 L 75.0488 -15.4785 C 76.2207 -14.6973 76.709 -13.7207 76.709 -12.5488 C 76.709 -11.3281 76.123 -10.0098 74.9512 -8.74023 C 74.7559 -8.49609 74.6094 -8.30078 74.4141 -8.10547 C 71.6797 -5.0293 67.9688 -3.56445 63.6719 -3.51562 Z"/>
  </g>
  <g id="Thin-S" transform="matrix(1 0 0 1 812.428 696)">
   <path d="M 61.4746 0.0488281 C 66.9922 0.0488281 71.5332 -1.5625 75.3906 -5.56641 C 75.5859 -5.76172 75.7324 -5.9082 75.8301 -6.05469 C 78.125 -8.44727 79.1992 -10.9375 79.1992 -13.2324 C 79.1992 -15.4297 78.0273 -17.5293 75.6348 -19.1406 L 64.5996 -26.709 C 61.7188 -28.6621 58.3008 -29.1016 54.8828 -25.7812 L 52.2461 -23.1934 C 51.416 -22.3633 50.3906 -22.168 49.1699 -22.8027 C 47.4609 -23.7305 43.1641 -27.0508 39.4531 -30.7129 C 35.3027 -34.8633 33.2031 -37.3535 31.6406 -40.332 C 31.0059 -41.5039 31.2012 -42.5781 32.0801 -43.4082 L 34.6191 -46.0449 C 37.9883 -49.4629 37.5 -52.8809 35.5469 -55.7617 L 28.0273 -66.7969 C 26.3672 -69.1895 24.3164 -70.3125 22.1191 -70.3613 C 19.8242 -70.4102 17.2852 -69.2383 14.9414 -66.9922 C 14.7461 -66.8457 14.5996 -66.6992 14.4531 -66.5527 C 10.498 -62.7441 8.78906 -58.252 8.78906 -52.7832 C 8.78906 -42.2363 15.918 -29.7363 27.2949 -18.4082 C 38.5742 -7.17773 50.9766 0.0488281 61.4746 0.0488281 Z M 61.4746 -3.32031 C 51.7578 -3.27148 39.8438 -10.498 29.6387 -20.6543 C 19.4336 -30.8594 12.1094 -43.0176 12.1582 -52.7832 C 12.207 -57.0801 13.6719 -60.9863 16.8457 -64.0137 C 16.9922 -64.1602 17.1387 -64.3066 17.2852 -64.4531 C 18.9453 -66.0156 20.6055 -66.7969 21.9727 -66.7969 C 23.2422 -66.7969 24.3164 -66.1621 25.2441 -64.8438 L 32.666 -53.8574 C 33.7402 -52.2461 33.9844 -50.3418 32.0312 -48.3887 L 29.1016 -45.5078 C 27.1973 -43.6035 27.1484 -40.918 28.3691 -38.8672 C 29.834 -36.4746 33.2031 -32.4707 37.1582 -28.418 C 41.2109 -24.3652 45.3613 -20.9961 47.7539 -19.5312 C 49.8047 -18.2617 52.4414 -18.3105 54.3457 -20.2637 L 57.2266 -23.1445 C 59.1797 -25.1465 61.084 -24.9023 62.6953 -23.7793 L 73.6816 -16.3574 C 75.0488 -15.4785 75.6836 -14.4043 75.6836 -13.0859 C 75.6836 -11.6699 74.9023 -10.0586 73.2422 -8.39844 C 73.0957 -8.25195 73.0469 -8.1543 72.9004 -8.00781 C 69.7754 -4.78516 65.8691 -3.32031 61.4746 -3.32031 Z"/>
  </g>
  <g id="Ultralight-S" transform="matrix(1 0 0 1 516.547 696)">
   <path d="M 60.3027 -0.78125 C 65.4297 -0.78125 70.0195 -2.34375 73.877 -6.25 C 73.9746 -6.34766 74.1211 -6.44531 74.1699 -6.54297 C 76.4648 -8.83789 77.5391 -11.3281 77.5391 -13.5742 C 77.5391 -15.5762 76.5137 -17.4316 74.4629 -18.8477 L 63.4766 -26.3184 C 60.8398 -28.125 57.666 -28.6133 54.1504 -25.2441 L 51.6602 -22.8027 C 50.8301 -21.9727 49.6582 -21.6797 48.3398 -22.3633 C 46.7285 -23.1934 42.4316 -26.3672 38.3789 -30.3711 C 33.7402 -34.9609 31.9824 -37.1582 30.3711 -40.332 C 29.6875 -41.6504 29.9805 -42.8223 30.8105 -43.6523 L 33.252 -46.1426 C 36.6211 -49.6582 36.1328 -52.832 34.3262 -55.4688 L 26.8555 -66.4551 C 25.4395 -68.5059 23.584 -69.4824 21.582 -69.5312 C 19.3359 -69.5801 16.7969 -68.4082 14.5508 -66.1621 C 14.4043 -66.0645 14.3555 -65.9668 14.2578 -65.8691 C 10.4492 -62.1094 8.78906 -57.5195 8.78906 -52.5391 C 8.78906 -42.1387 16.0645 -29.9805 27.0508 -19.043 C 37.9395 -8.20312 50 -0.78125 60.3027 -0.78125 Z M 60.3027 -3.22266 C 50.5859 -3.17383 38.916 -10.3516 28.6621 -20.6055 C 18.3105 -30.957 11.1816 -42.7246 11.1816 -52.4902 C 11.2305 -56.8848 12.6953 -60.8887 15.918 -64.1113 C 16.0156 -64.209 16.1621 -64.3066 16.2598 -64.4043 C 18.1152 -66.2598 19.9219 -67.1387 21.4355 -67.1387 C 22.7539 -67.1387 23.877 -66.4062 24.8535 -64.9902 L 32.2754 -54.0527 C 33.4473 -52.2949 33.7891 -50.1465 31.4941 -47.9004 L 28.8086 -45.2148 C 27.0996 -43.6035 27.002 -41.1621 27.9785 -39.3066 C 29.1504 -37.1094 32.3242 -33.252 36.7188 -28.7598 C 41.1621 -24.2188 45.1172 -21.1426 47.3145 -19.9707 C 49.1699 -18.9941 51.6113 -19.0918 53.2227 -20.8008 L 55.9082 -23.4863 C 58.1543 -25.7812 60.3027 -25.4395 62.0605 -24.2676 L 72.998 -16.8457 C 74.4141 -15.8691 75.1465 -14.7461 75.1465 -13.4277 C 75.1465 -11.8652 74.2676 -10.1074 72.3633 -8.20312 C 72.2656 -8.10547 72.2168 -8.00781 72.1191 -7.91016 C 68.8477 -4.63867 64.7949 -3.22266 60.3027 -3.22266 Z"/>
  </g>
 </g>
</svg>
