<?xml version="1.0" encoding="UTF-8"?>
<!--Generator: Apple Native CoreSVG 129-->
<!DOCTYPE svg
PUBLIC "-//W3C//DTD SVG 1.1//EN"
       "http://www.w3.org/Graphics/SVG/1.1/DTD/svg11.dtd">
<svg version="1.1" xmlns="http://www.w3.org/2000/svg" xmlns:xlink="http://www.w3.org/1999/xlink" width="3300" height="2200">
 <!--glyph: "uni100063.medium", point size: 100.000000, font version: "Version 16.0d9e1", template writer version: "8"-->
 <g id="Notes">
  <rect height="2200" id="artboard" style="fill:white;opacity:1" width="3300" x="0" y="0"/>
  <line id="" style="fill:none;stroke:black;opacity:1;stroke-width:0.5;" x1="263" x2="3036" y1="292" y2="292"/>
  <text style="stroke:none;fill:black;font-family:-apple-system,&quot;SF Pro Display&quot;,&quot;SF Pro Text&quot;,Helvetica,sans-serif;font-weight:bold;" transform="matrix(1 0 0 1 263 322)">Weight/Scale Variations</text>
  <text style="stroke:none;fill:black;font-family:-apple-system,&quot;SF Pro Display&quot;,&quot;SF Pro Text&quot;,Helvetica,sans-serif;text-anchor:middle;" transform="matrix(1 0 0 1 559.711 322)">Ultralight</text>
  <text style="stroke:none;fill:black;font-family:-apple-system,&quot;SF Pro Display&quot;,&quot;SF Pro Text&quot;,Helvetica,sans-serif;text-anchor:middle;" transform="matrix(1 0 0 1 856.422 322)">Thin</text>
  <text style="stroke:none;fill:black;font-family:-apple-system,&quot;SF Pro Display&quot;,&quot;SF Pro Text&quot;,Helvetica,sans-serif;text-anchor:middle;" transform="matrix(1 0 0 1 1153.13 322)">Light</text>
  <text style="stroke:none;fill:black;font-family:-apple-system,&quot;SF Pro Display&quot;,&quot;SF Pro Text&quot;,Helvetica,sans-serif;text-anchor:middle;" transform="matrix(1 0 0 1 1449.84 322)">Regular</text>
  <text style="stroke:none;fill:black;font-family:-apple-system,&quot;SF Pro Display&quot;,&quot;SF Pro Text&quot;,Helvetica,sans-serif;text-anchor:middle;" transform="matrix(1 0 0 1 1746.56 322)">Medium</text>
  <text style="stroke:none;fill:black;font-family:-apple-system,&quot;SF Pro Display&quot;,&quot;SF Pro Text&quot;,Helvetica,sans-serif;text-anchor:middle;" transform="matrix(1 0 0 1 2043.27 322)">Semibold</text>
  <text style="stroke:none;fill:black;font-family:-apple-system,&quot;SF Pro Display&quot;,&quot;SF Pro Text&quot;,Helvetica,sans-serif;text-anchor:middle;" transform="matrix(1 0 0 1 2339.98 322)">Bold</text>
  <text style="stroke:none;fill:black;font-family:-apple-system,&quot;SF Pro Display&quot;,&quot;SF Pro Text&quot;,Helvetica,sans-serif;text-anchor:middle;" transform="matrix(1 0 0 1 2636.69 322)">Heavy</text>
  <text style="stroke:none;fill:black;font-family:-apple-system,&quot;SF Pro Display&quot;,&quot;SF Pro Text&quot;,Helvetica,sans-serif;text-anchor:middle;" transform="matrix(1 0 0 1 2933.4 322)">Black</text>
  <line id="" style="fill:none;stroke:black;opacity:1;stroke-width:0.5;" x1="263" x2="3036" y1="1903" y2="1903"/>
  <g id="" transform="matrix(1 0 0 1 263 1933)">
   <path d="M 9.24805 0.830078 C 13.5547 0.830078 17.1387 -2.74414 17.1387 -7.05078 C 17.1387 -11.3574 13.5449 -14.9316 9.23828 -14.9316 C 4.94141 -14.9316 1.36719 -11.3574 1.36719 -7.05078 C 1.36719 -2.74414 4.95117 0.830078 9.24805 0.830078 Z M 9.24805 -0.654297 C 5.70312 -0.654297 2.87109 -3.49609 2.87109 -7.05078 C 2.87109 -10.6055 5.69336 -13.4473 9.23828 -13.4473 C 12.793 -13.4473 15.6348 -10.6055 15.6445 -7.05078 C 15.6543 -3.49609 12.8027 -0.654297 9.24805 -0.654297 Z M 9.22852 -3.62305 C 9.69727 -3.62305 9.9707 -3.93555 9.9707 -4.45312 L 9.9707 -6.31836 L 12.002 -6.31836 C 12.5 -6.31836 12.832 -6.57227 12.832 -7.04102 C 12.832 -7.51953 12.5195 -7.7832 12.002 -7.7832 L 9.9707 -7.7832 L 9.9707 -9.81445 C 9.9707 -10.332 9.69727 -10.6543 9.22852 -10.6543 C 8.75977 -10.6543 8.50586 -10.3125 8.50586 -9.81445 L 8.50586 -7.7832 L 6.49414 -7.7832 C 5.97656 -7.7832 5.64453 -7.51953 5.64453 -7.04102 C 5.64453 -6.57227 5.99609 -6.31836 6.49414 -6.31836 L 8.50586 -6.31836 L 8.50586 -4.45312 C 8.50586 -3.95508 8.75977 -3.62305 9.22852 -3.62305 Z"/>
  </g>
  <g id="" transform="matrix(1 0 0 1 281.506 1933)">
   <path d="M 11.709 2.91016 C 17.1582 2.91016 21.6699 -1.61133 21.6699 -7.05078 C 21.6699 -12.5 17.1484 -17.0117 11.6992 -17.0117 C 6.25977 -17.0117 1.74805 -12.5 1.74805 -7.05078 C 1.74805 -1.61133 6.26953 2.91016 11.709 2.91016 Z M 11.709 1.25 C 7.09961 1.25 3.41797 -2.44141 3.41797 -7.05078 C 3.41797 -11.6602 7.08984 -15.3516 11.6992 -15.3516 C 16.3086 -15.3516 20 -11.6602 20.0098 -7.05078 C 20.0195 -2.44141 16.3184 1.25 11.709 1.25 Z M 11.6797 -2.66602 C 12.207 -2.66602 12.5098 -3.01758 12.5098 -3.59375 L 12.5098 -6.23047 L 15.3223 -6.23047 C 15.8691 -6.23047 16.25 -6.51367 16.25 -7.03125 C 16.25 -7.55859 15.8887 -7.86133 15.3223 -7.86133 L 12.5098 -7.86133 L 12.5098 -10.6836 C 12.5098 -11.25 12.207 -11.6113 11.6797 -11.6113 C 11.1621 -11.6113 10.8789 -11.2305 10.8789 -10.6836 L 10.8789 -7.86133 L 8.07617 -7.86133 C 7.50977 -7.86133 7.13867 -7.55859 7.13867 -7.03125 C 7.13867 -6.51367 7.5293 -6.23047 8.07617 -6.23047 L 10.8789 -6.23047 L 10.8789 -3.59375 C 10.8789 -3.03711 11.1621 -2.66602 11.6797 -2.66602 Z"/>
  </g>
  <g id="" transform="matrix(1 0 0 1 304.924 1933)">
   <path d="M 14.9707 5.66406 C 21.9336 5.66406 27.6953 -0.0976562 27.6953 -7.05078 C 27.6953 -14.0137 21.9238 -19.7754 14.9609 -19.7754 C 8.00781 -19.7754 2.25586 -14.0137 2.25586 -7.05078 C 2.25586 -0.0976562 8.01758 5.66406 14.9707 5.66406 Z M 14.9707 3.84766 C 8.93555 3.84766 4.08203 -1.01562 4.08203 -7.05078 C 4.08203 -13.0957 8.92578 -17.9492 14.9609 -17.9492 C 21.0059 -17.9492 25.8594 -13.0957 25.8691 -7.05078 C 25.8789 -1.01562 21.0156 3.84766 14.9707 3.84766 Z M 14.9414 -1.38672 C 15.5176 -1.38672 15.8594 -1.77734 15.8594 -2.38281 L 15.8594 -6.13281 L 19.7754 -6.13281 C 20.3711 -6.13281 20.7812 -6.46484 20.7812 -7.02148 C 20.7812 -7.59766 20.3906 -7.93945 19.7754 -7.93945 L 15.8594 -7.93945 L 15.8594 -11.8652 C 15.8594 -12.4805 15.5176 -12.8711 14.9414 -12.8711 C 14.375 -12.8711 14.0527 -12.4609 14.0527 -11.8652 L 14.0527 -7.93945 L 10.1465 -7.93945 C 9.53125 -7.93945 9.13086 -7.59766 9.13086 -7.02148 C 9.13086 -6.46484 9.55078 -6.13281 10.1465 -6.13281 L 14.0527 -6.13281 L 14.0527 -2.38281 C 14.0527 -1.79688 14.375 -1.38672 14.9414 -1.38672 Z"/>
  </g>
  <text style="stroke:none;fill:black;font-family:-apple-system,&quot;SF Pro Display&quot;,&quot;SF Pro Text&quot;,Helvetica,sans-serif;font-weight:bold;" transform="matrix(1 0 0 1 263 1953)">Design Variations</text>
  <text style="stroke:none;fill:black;font-family:-apple-system,&quot;SF Pro Display&quot;,&quot;SF Pro Text&quot;,Helvetica,sans-serif;" transform="matrix(1 0 0 1 263 1971)">Symbols are supported in up to nine weights and three scales.</text>
  <text style="stroke:none;fill:black;font-family:-apple-system,&quot;SF Pro Display&quot;,&quot;SF Pro Text&quot;,Helvetica,sans-serif;" transform="matrix(1 0 0 1 263 1989)">For optimal layout with text and other symbols, vertically align</text>
  <text style="stroke:none;fill:black;font-family:-apple-system,&quot;SF Pro Display&quot;,&quot;SF Pro Text&quot;,Helvetica,sans-serif;" transform="matrix(1 0 0 1 263 2007)">symbols with the adjacent text.</text>
  <line id="" style="fill:none;stroke:#00AEEF;stroke-width:0.5;opacity:1.0;" x1="776" x2="776" y1="1919" y2="1933"/>
  <g id="" transform="matrix(1 0 0 1 776 1933)">
   <path d="M 3.31055 0.126953 C 3.82812 0.126953 4.08203 -0.0683594 4.26758 -0.605469 L 5.52734 -4.0625 L 11.2891 -4.0625 L 12.5488 -0.605469 C 12.7344 -0.0683594 12.9883 0.126953 13.4961 0.126953 C 14.0137 0.126953 14.3457 -0.185547 14.3457 -0.673828 C 14.3457 -0.839844 14.3164 -0.986328 14.2383 -1.20117 L 9.6582 -13.3887 C 9.43359 -13.9941 9.0332 -14.2871 8.4082 -14.2871 C 7.80273 -14.2871 7.39258 -13.9941 7.17773 -13.3984 L 2.59766 -1.19141 C 2.51953 -0.976562 2.49023 -0.830078 2.49023 -0.664062 C 2.49023 -0.175781 2.80273 0.126953 3.31055 0.126953 Z M 6.00586 -5.53711 L 8.37891 -12.1094 L 8.42773 -12.1094 L 10.8008 -5.53711 Z"/>
  </g>
  <line id="" style="fill:none;stroke:#00AEEF;stroke-width:0.5;opacity:1.0;" x1="792.836" x2="792.836" y1="1919" y2="1933"/>
  <text style="stroke:none;fill:black;font-family:-apple-system,&quot;SF Pro Display&quot;,&quot;SF Pro Text&quot;,Helvetica,sans-serif;font-weight:bold;" transform="matrix(1 0 0 1 776 1953)">Margins</text>
  <text style="stroke:none;fill:black;font-family:-apple-system,&quot;SF Pro Display&quot;,&quot;SF Pro Text&quot;,Helvetica,sans-serif;" transform="matrix(1 0 0 1 776 1971)">Leading and trailing margins on the left and right side of each symbol</text>
  <text style="stroke:none;fill:black;font-family:-apple-system,&quot;SF Pro Display&quot;,&quot;SF Pro Text&quot;,Helvetica,sans-serif;" transform="matrix(1 0 0 1 776 1989)">can be adjusted by modifying the x-location of the margin guidelines.</text>
  <text style="stroke:none;fill:black;font-family:-apple-system,&quot;SF Pro Display&quot;,&quot;SF Pro Text&quot;,Helvetica,sans-serif;" transform="matrix(1 0 0 1 776 2007)">Modifications are automatically applied proportionally to all</text>
  <text style="stroke:none;fill:black;font-family:-apple-system,&quot;SF Pro Display&quot;,&quot;SF Pro Text&quot;,Helvetica,sans-serif;" transform="matrix(1 0 0 1 776 2025)">scales and weights.</text>
  <g id="" transform="matrix(1 0 0 1 1289 1933)">
   <path d="M 2.8418 1.86523 L 4.54102 3.57422 C 5.40039 4.44336 6.38672 4.38477 7.31445 3.35938 L 17.4902 -7.85156 C 17.7539 -7.76367 18.0273 -7.7832 18.3398 -7.8418 L 19.4043 -8.03711 L 20.0684 -7.36328 L 20.0293 -6.80664 C 19.9902 -6.30859 20.1172 -5.92773 20.6055 -5.44922 L 21.3672 -4.70703 C 21.8457 -4.22852 22.4609 -4.19922 22.9297 -4.66797 L 25.8398 -7.58789 C 26.3086 -8.05664 26.2891 -8.65234 25.8105 -9.13086 L 25.0391 -9.89258 C 24.5605 -10.3711 24.1895 -10.5273 23.7109 -10.4883 L 23.1348 -10.4395 L 22.4902 -11.0742 L 22.7344 -12.1973 C 22.8613 -12.7637 22.7051 -13.2031 22.1191 -13.7891 L 19.9219 -15.9766 C 16.582 -19.2969 12.1484 -19.2188 9.25781 -16.3281 C 8.83789 -15.918 8.80859 -15.3418 9.04297 -14.9512 C 9.27734 -14.5898 9.73633 -14.3555 10.3809 -14.5215 C 11.8457 -14.8633 13.3691 -14.9219 14.7949 -13.9844 L 14.209 -12.5293 C 14.0137 -12.0508 13.9844 -11.6504 14.1113 -11.2891 L 3.04688 -0.898438 C 2.06055 0.0195312 1.98242 0.996094 2.8418 1.86523 Z M 10.752 -15.957 C 13.1836 -17.7344 16.4746 -17.4316 18.7012 -15.2051 L 21.1328 -12.793 C 21.3672 -12.5586 21.4062 -12.373 21.3379 -12.0312 L 21.0156 -10.5469 L 22.5195 -9.0625 L 23.5059 -9.12109 C 23.7598 -9.13086 23.8379 -9.11133 24.0332 -8.91602 L 24.6094 -8.33984 L 22.168 -5.89844 L 21.5918 -6.47461 C 21.3965 -6.66992 21.3672 -6.74805 21.377 -7.01172 L 21.4453 -7.98828 L 19.9512 -9.47266 L 18.4277 -9.21875 C 18.1055 -9.15039 17.959 -9.17969 17.7148 -9.41406 L 15.7129 -11.416 C 15.459 -11.6504 15.4297 -11.8164 15.5859 -12.1875 L 16.4648 -14.2773 C 14.9023 -15.7324 12.8711 -16.3574 10.8398 -15.7617 C 10.6836 -15.7227 10.625 -15.8496 10.752 -15.957 Z M 5.27344 2.30469 L 4.10156 1.14258 C 3.63281 0.683594 3.74023 0.341797 4.14062 -0.0195312 L 14.9512 -10.1953 L 16.416 -8.71094 L 6.42578 2.27539 C 6.07422 2.67578 5.74219 2.77344 5.27344 2.30469 Z"/>
  </g>
  <text style="stroke:none;fill:black;font-family:-apple-system,&quot;SF Pro Display&quot;,&quot;SF Pro Text&quot;,Helvetica,sans-serif;font-weight:bold;" transform="matrix(1 0 0 1 1289 1953)">Exporting</text>
  <text style="stroke:none;fill:black;font-family:-apple-system,&quot;SF Pro Display&quot;,&quot;SF Pro Text&quot;,Helvetica,sans-serif;" transform="matrix(1 0 0 1 1289 1971)">Symbols should be outlined when exporting to ensure the</text>
  <text style="stroke:none;fill:black;font-family:-apple-system,&quot;SF Pro Display&quot;,&quot;SF Pro Text&quot;,Helvetica,sans-serif;" transform="matrix(1 0 0 1 1289 1989)">design is preserved when submitting to Xcode.</text>
  <text id="template-version" style="stroke:none;fill:black;font-family:-apple-system,&quot;SF Pro Display&quot;,&quot;SF Pro Text&quot;,Helvetica,sans-serif;text-anchor:end;" transform="matrix(1 0 0 1 3036 1933)">Template v.2.0</text>
  <text style="stroke:none;fill:black;font-family:-apple-system,&quot;SF Pro Display&quot;,&quot;SF Pro Text&quot;,Helvetica,sans-serif;text-anchor:end;" transform="matrix(1 0 0 1 3036 1951)">Requires Xcode 12 or greater</text>
  <text style="stroke:none;fill:black;font-family:-apple-system,&quot;SF Pro Display&quot;,&quot;SF Pro Text&quot;,Helvetica,sans-serif;text-anchor:end;" transform="matrix(1 0 0 1 3036 1969)">Generated from checkmark.circle.fill</text>
  <text style="stroke:none;fill:black;font-family:-apple-system,&quot;SF Pro Display&quot;,&quot;SF Pro Text&quot;,Helvetica,sans-serif;text-anchor:end;" transform="matrix(1 0 0 1 3036 1987)">Typeset at 100 points</text>
  <text style="stroke:none;fill:black;font-family:-apple-system,&quot;SF Pro Display&quot;,&quot;SF Pro Text&quot;,Helvetica,sans-serif;" transform="matrix(1 0 0 1 263 726)">Small</text>
  <text style="stroke:none;fill:black;font-family:-apple-system,&quot;SF Pro Display&quot;,&quot;SF Pro Text&quot;,Helvetica,sans-serif;" transform="matrix(1 0 0 1 263 1156)">Medium</text>
  <text style="stroke:none;fill:black;font-family:-apple-system,&quot;SF Pro Display&quot;,&quot;SF Pro Text&quot;,Helvetica,sans-serif;" transform="matrix(1 0 0 1 263 1586)">Large</text>
 </g>
 <g id="Guides">
  <g id="H-reference" style="fill:#27AAE1;stroke:none;" transform="matrix(1 0 0 1 339 696)">
   <path d="M 0.976562 0 L 3.66211 0 L 12.9883 -24.4629 L 45.7031 -24.4629 L 55.0781 0 L 57.7148 0 L 30.6152 -70.459 L 28.125 -70.459 Z M 29.2969 -67.1387 L 29.3945 -67.1387 L 44.873 -26.709 L 13.8672 -26.709 Z"/>
  </g>
  <line id="Baseline-S" style="fill:none;stroke:#27AAE1;opacity:1;stroke-width:0.5;" x1="263" x2="3036" y1="696" y2="696"/>
  <line id="Capline-S" style="fill:none;stroke:#27AAE1;opacity:1;stroke-width:0.5;" x1="263" x2="3036" y1="625.541" y2="625.541"/>
  <g id="H-reference" style="fill:#27AAE1;stroke:none;" transform="matrix(1 0 0 1 339 1126)">
   <path d="M 0.976562 0 L 3.66211 0 L 12.9883 -24.4629 L 45.7031 -24.4629 L 55.0781 0 L 57.7148 0 L 30.6152 -70.459 L 28.125 -70.459 Z M 29.2969 -67.1387 L 29.3945 -67.1387 L 44.873 -26.709 L 13.8672 -26.709 Z"/>
  </g>
  <line id="Baseline-M" style="fill:none;stroke:#27AAE1;opacity:1;stroke-width:0.5;" x1="263" x2="3036" y1="1126" y2="1126"/>
  <line id="Capline-M" style="fill:none;stroke:#27AAE1;opacity:1;stroke-width:0.5;" x1="263" x2="3036" y1="1055.54" y2="1055.54"/>
  <g id="H-reference" style="fill:#27AAE1;stroke:none;" transform="matrix(1 0 0 1 339 1556)">
   <path d="M 0.976562 0 L 3.66211 0 L 12.9883 -24.4629 L 45.7031 -24.4629 L 55.0781 0 L 57.7148 0 L 30.6152 -70.459 L 28.125 -70.459 Z M 29.2969 -67.1387 L 29.3945 -67.1387 L 44.873 -26.709 L 13.8672 -26.709 Z"/>
  </g>
  <line id="Baseline-L" style="fill:none;stroke:#27AAE1;opacity:1;stroke-width:0.5;" x1="263" x2="3036" y1="1556" y2="1556"/>
  <line id="Capline-L" style="fill:none;stroke:#27AAE1;opacity:1;stroke-width:0.5;" x1="263" x2="3036" y1="1485.54" y2="1485.54"/>
  <line id="left-margin" style="fill:none;stroke:#00AEEF;stroke-width:0.5;opacity:1.0;" x1="1391.3" x2="1391.3" y1="1030.79" y2="1150.12"/>
  <line id="right-margin" style="fill:none;stroke:#00AEEF;stroke-width:0.5;opacity:1.0;" x1="1508.39" x2="1508.39" y1="1030.79" y2="1150.12"/>
 </g>
 <g id="Symbols">
  <g id="Black-L" transform="matrix(1 0 0 1 2854.05 1556)">
   <path d="M 79.3457 32.8613 C 116.748 32.8613 147.412 2.19727 147.412 -35.2051 C 147.412 -72.6074 116.748 -103.271 79.2969 -103.271 C 41.8945 -103.271 11.2793 -72.6074 11.2793 -35.2051 C 11.2793 2.19727 41.9434 32.8613 79.3457 32.8613 Z M 72.4121 -3.07617 C 69.0918 -3.07617 66.5039 -4.63867 64.2578 -7.27539 L 50.293 -23.7305 C 48.5352 -25.8301 47.9004 -27.5879 47.9004 -29.7363 C 47.9004 -34.3262 51.6602 -37.9883 56.25 -37.9883 C 58.8867 -37.9883 60.8398 -36.9141 62.6953 -34.7656 L 72.3145 -23.291 L 95.1172 -59.4238 C 97.1191 -62.5488 99.4629 -64.1602 102.441 -64.1602 C 106.982 -64.1602 111.035 -60.8398 111.035 -56.25 C 111.035 -54.4922 110.4 -52.5391 109.082 -50.6836 L 80.2734 -7.4707 C 78.418 -4.73633 75.5371 -3.07617 72.4121 -3.07617 Z"/>
  </g>
  <g id="Heavy-L" transform="matrix(1 0 0 1 2558.39 1556)">
   <path d="M 78.2715 31.7871 C 115.088 31.7871 145.312 1.5625 145.312 -35.2051 C 145.312 -72.0215 115.039 -102.246 78.2715 -102.246 C 41.4551 -102.246 11.2793 -72.0215 11.2793 -35.2051 C 11.2793 1.5625 41.5039 31.7871 78.2715 31.7871 Z M 71.3379 -3.41797 C 68.3594 -3.41797 66.0156 -4.83398 63.9648 -7.27539 L 49.4141 -24.6094 C 47.8516 -26.4648 47.2656 -28.0762 47.2656 -29.9805 C 47.2656 -34.082 50.5859 -37.3535 54.6387 -37.3535 C 57.0312 -37.3535 58.8379 -36.377 60.5469 -34.3262 L 71.1914 -21.4844 L 95.2637 -59.6191 C 97.0215 -62.4512 99.1699 -63.8672 101.807 -63.8672 C 105.811 -63.8672 109.424 -60.8887 109.424 -56.8359 C 109.424 -55.2246 108.789 -53.418 107.617 -51.7578 L 78.418 -7.42188 C 76.709 -4.93164 74.1699 -3.41797 71.3379 -3.41797 Z"/>
  </g>
  <g id="Bold-L" transform="matrix(1 0 0 1 2262.88 1556)">
   <path d="M 77.0996 30.5664 C 113.232 30.5664 142.92 0.878906 142.92 -35.2539 C 142.92 -71.3379 113.184 -101.074 77.0508 -101.074 C 40.9668 -101.074 11.2793 -71.3379 11.2793 -35.2539 C 11.2793 0.878906 41.0156 30.5664 77.0996 30.5664 Z M 70.1172 -3.85742 C 67.5293 -3.85742 65.5273 -5.0293 63.6719 -7.27539 L 48.3887 -25.5371 C 47.1191 -27.1484 46.5332 -28.6133 46.5332 -30.3223 C 46.5332 -33.8379 49.3652 -36.6211 52.8809 -36.6211 C 54.9316 -36.6211 56.543 -35.8398 58.1055 -33.8867 L 69.9707 -19.3848 L 95.459 -59.9121 C 96.9727 -62.2559 98.8281 -63.4766 101.074 -63.4766 C 104.492 -63.4766 107.617 -60.9863 107.617 -57.4707 C 107.617 -56.0059 106.982 -54.3945 106.006 -52.9297 L 76.3184 -7.37305 C 74.8047 -5.12695 72.6074 -3.85742 70.1172 -3.85742 Z"/>
  </g>
  <g id="Semibold-L" transform="matrix(1 0 0 1 1966.97 1556)">
   <path d="M 76.2695 29.7363 C 111.914 29.7363 141.309 0.390625 141.309 -35.2539 C 141.309 -70.8984 111.865 -100.244 76.2695 -100.244 C 40.625 -100.244 11.2793 -70.8984 11.2793 -35.2539 C 11.2793 0.390625 40.6738 29.7363 76.2695 29.7363 Z M 69.2871 -4.15039 C 66.9922 -4.15039 65.1855 -5.17578 63.4766 -7.27539 L 47.7051 -26.2207 C 46.582 -27.5879 46.0449 -29.0039 46.0449 -30.5176 C 46.0449 -33.6426 48.5352 -36.1328 51.6602 -36.1328 C 53.5156 -36.1328 54.9805 -35.4492 56.4453 -33.5938 L 69.0918 -17.9688 L 95.6055 -60.0586 C 96.9238 -62.1582 98.6328 -63.2324 100.586 -63.2324 C 103.613 -63.2324 106.396 -61.084 106.396 -57.9102 C 106.396 -56.5918 105.762 -55.0781 104.883 -53.7598 L 74.8535 -7.32422 C 73.4863 -5.27344 71.5332 -4.15039 69.2871 -4.15039 Z"/>
  </g>
  <g id="Medium-L" transform="matrix(1 0 0 1 1670.87 1556)">
   <path d="M 75.6836 29.1504 C 110.938 29.1504 140.088 0 140.088 -35.2539 C 140.088 -70.5078 110.889 -99.6582 75.6348 -99.6582 C 40.3809 -99.6582 11.2793 -70.5078 11.2793 -35.2539 C 11.2793 0 40.3809 29.1504 75.6836 29.1504 Z M 68.6523 -4.39453 C 66.5527 -4.39453 64.8926 -5.27344 63.3301 -7.27539 L 47.168 -26.709 C 46.1914 -27.9785 45.6543 -29.2969 45.6543 -30.6641 C 45.6543 -33.4961 47.9004 -35.791 50.7324 -35.791 C 52.4414 -35.791 53.8086 -35.1562 55.1758 -33.3496 L 68.457 -16.8945 L 95.7031 -60.2051 C 96.875 -62.1094 98.4375 -63.0859 100.195 -63.0859 C 102.93 -63.0859 105.42 -61.1328 105.42 -58.252 C 105.42 -56.9824 104.785 -55.6152 104.004 -54.3945 L 73.7305 -7.27539 C 72.5098 -5.37109 70.752 -4.39453 68.6523 -4.39453 Z"/>
  </g>
  <g id="Regular-L" transform="matrix(1 0 0 1 1374.97 1556)">
   <path d="M 74.8535 28.3203 C 109.668 28.3203 138.477 -0.488281 138.477 -35.2539 C 138.477 -70.0684 109.619 -98.877 74.8047 -98.877 C 40.0391 -98.877 11.2793 -70.0684 11.2793 -35.2539 C 11.2793 -0.488281 40.0879 28.3203 74.8535 28.3203 Z M 67.8223 -4.63867 C 65.9668 -4.63867 64.5508 -5.41992 63.1348 -7.22656 L 46.4844 -27.3438 C 45.6543 -28.418 45.166 -29.6387 45.166 -30.8594 C 45.166 -33.3008 47.0703 -35.3027 49.5117 -35.3027 C 51.0254 -35.3027 52.2461 -34.7656 53.5645 -33.0566 L 67.627 -15.4785 L 95.8496 -60.3516 C 96.8262 -61.9629 98.2422 -62.8418 99.707 -62.8418 C 102.051 -62.8418 104.199 -61.1816 104.199 -58.6914 C 104.199 -57.5195 103.564 -56.25 102.93 -55.2246 L 72.3145 -7.22656 C 71.1914 -5.51758 69.6777 -4.63867 67.8223 -4.63867 Z"/>
  </g>
  <g id="Light-L" transform="matrix(1 0 0 1 1079.18 1556)">
   <path d="M 73.9258 27.3926 C 108.301 27.3926 136.621 -0.927734 136.621 -35.2539 C 136.621 -69.6289 108.252 -97.9492 73.9258 -97.9492 C 39.5508 -97.9492 11.2793 -69.6289 11.2793 -35.2539 C 11.2793 -0.927734 39.5996 27.3926 73.9258 27.3926 Z M 67.041 -4.93164 C 65.625 -4.93164 64.5508 -5.46875 63.4766 -6.83594 L 45.7031 -27.9297 C 45.0684 -28.7598 44.6777 -29.6875 44.6777 -30.6641 C 44.6777 -32.5684 46.1426 -34.0332 47.998 -34.0332 C 49.1699 -34.0332 50.1465 -33.5938 51.0742 -32.3242 L 66.8945 -13.3301 L 96.875 -60.498 C 97.6562 -61.7188 98.7305 -62.4023 99.8535 -62.4023 C 101.611 -62.4023 103.271 -61.084 103.271 -59.2285 C 103.271 -58.3496 102.832 -57.373 102.344 -56.5918 L 70.459 -6.83594 C 69.5801 -5.56641 68.457 -4.93164 67.041 -4.93164 Z"/>
  </g>
  <g id="Thin-L" transform="matrix(1 0 0 1 783.693 1556)">
   <path d="M 72.7051 26.1719 C 106.494 26.1719 134.18 -1.51367 134.18 -35.2539 C 134.18 -69.043 106.494 -96.7285 72.7051 -96.7285 C 38.9648 -96.7285 11.2793 -69.043 11.2793 -35.2539 C 11.2793 -1.51367 38.9648 26.1719 72.7051 26.1719 Z M 66.0156 -5.27344 C 65.1367 -5.27344 64.5996 -5.56641 63.9648 -6.29883 L 44.6777 -28.6621 C 44.2871 -29.1992 43.9941 -29.7852 43.9941 -30.3711 C 43.9941 -31.543 44.9707 -32.3242 45.9961 -32.3242 C 46.7285 -32.3242 47.3145 -32.0801 47.8516 -31.3965 L 65.918 -10.4492 L 98.2422 -60.6934 C 98.7305 -61.3281 99.4141 -61.8164 100.098 -61.8164 C 101.074 -61.8164 102.051 -60.8887 102.051 -59.8633 C 102.051 -59.4238 101.855 -58.8379 101.611 -58.4473 L 67.9688 -6.29883 C 67.4316 -5.66406 66.7969 -5.27344 66.0156 -5.27344 Z"/>
  </g>
  <g id="Ultralight-L" transform="matrix(1 0 0 1 487.616 1556)">
   <path d="M 72.1191 25.5371 C 105.566 25.5371 132.91 -1.80664 132.91 -35.2539 C 132.91 -68.75 105.566 -96.0938 72.1191 -96.0938 C 38.623 -96.0938 11.2793 -68.75 11.2793 -35.2539 C 11.2793 -1.80664 38.623 25.5371 72.1191 25.5371 Z M 65.4785 -5.41992 C 64.8926 -5.41992 64.5996 -5.61523 64.209 -6.00586 L 44.1406 -29.0039 C 43.8965 -29.4434 43.7012 -29.834 43.7012 -30.2246 C 43.7012 -31.0059 44.3359 -31.4941 44.9707 -31.4941 C 45.5078 -31.4941 45.8984 -31.25 46.1914 -30.957 L 65.3809 -8.98438 L 98.9258 -60.791 C 99.2676 -61.1328 99.7559 -61.5234 100.195 -61.5234 C 100.83 -61.5234 101.465 -60.791 101.465 -60.2051 C 101.465 -59.9609 101.367 -59.6191 101.221 -59.375 L 66.6992 -6.00586 C 66.3086 -5.71289 65.9668 -5.41992 65.4785 -5.41992 Z"/>
  </g>
  <g id="Black-M" transform="matrix(1 0 0 1 2870.97 1126)">
   <path d="M 62.4023 18.457 C 91.9922 18.457 116.113 -5.61523 116.113 -35.2051 C 116.113 -64.7949 91.9922 -88.8672 62.4023 -88.8672 C 32.8125 -88.8672 8.74023 -64.7949 8.74023 -35.2051 C 8.74023 -5.61523 32.8125 18.457 62.4023 18.457 Z M 57.1289 -9.91211 C 54.3457 -9.91211 52.1484 -11.3281 50.3418 -13.3789 L 39.7949 -25.4883 C 38.2324 -27.2949 37.6953 -28.6621 37.6953 -30.4688 C 37.6953 -34.4238 41.0645 -37.5 44.9219 -37.5 C 47.1191 -37.5 48.7793 -36.5723 50.1953 -35.0098 L 57.1289 -27.3438 L 74.0234 -53.7598 C 75.7812 -56.4453 77.7344 -57.8613 80.3711 -57.8613 C 84.2773 -57.8613 87.7441 -54.8828 87.7441 -50.9766 C 87.7441 -49.6094 87.3535 -48.0469 86.2305 -46.4844 L 63.7695 -13.5742 C 62.207 -11.377 59.7656 -9.91211 57.1289 -9.91211 Z"/>
  </g>
  <g id="Heavy-M" transform="matrix(1 0 0 1 2575.19 1126)">
   <path d="M 61.5234 17.5293 C 90.5273 17.5293 114.258 -6.20117 114.258 -35.2051 C 114.258 -64.2578 90.5273 -87.9883 61.4746 -87.9883 C 32.4707 -87.9883 8.74023 -64.2578 8.74023 -35.2051 C 8.74023 -6.20117 32.4707 17.5293 61.5234 17.5293 Z M 56.1523 -10.2539 C 53.6621 -10.2539 51.6602 -11.4746 49.9512 -13.4766 L 39.0137 -26.2695 C 37.6465 -27.8809 37.1582 -29.1992 37.1582 -30.8594 C 37.1582 -34.375 40.0879 -37.1582 43.6035 -37.1582 C 45.6055 -37.1582 47.1191 -36.3281 48.4863 -34.7656 L 56.1035 -25.8789 L 73.9258 -53.9551 C 75.4883 -56.3965 77.2949 -57.6172 79.6387 -57.6172 C 83.1055 -57.6172 86.1816 -55.0293 86.1816 -51.5137 C 86.1816 -50.1953 85.791 -48.7305 84.7656 -47.3145 L 62.207 -13.623 C 60.791 -11.5723 58.5449 -10.2539 56.1523 -10.2539 Z"/>
  </g>
  <g id="Bold-M" transform="matrix(1 0 0 1 2279.5 1126)">
   <path d="M 60.498 16.5039 C 88.8672 16.5039 112.207 -6.83594 112.207 -35.2051 C 112.207 -63.623 88.8672 -86.9629 60.4492 -86.9629 C 32.0312 -86.9629 8.74023 -63.623 8.74023 -35.2051 C 8.74023 -6.83594 32.0801 16.5039 60.498 16.5039 Z M 55.0781 -10.6445 C 52.8809 -10.6445 51.0742 -11.6699 49.5605 -13.5742 L 38.1348 -27.1484 C 36.9629 -28.5156 36.5234 -29.7852 36.5234 -31.25 C 36.5234 -34.3262 39.0137 -36.7676 42.0898 -36.7676 C 43.8477 -36.7676 45.2148 -36.0352 46.5332 -34.4727 L 54.9805 -24.2188 L 73.877 -54.1992 C 75.1953 -56.2988 76.8066 -57.373 78.7598 -57.373 C 81.7871 -57.373 84.5215 -55.127 84.5215 -52.0508 C 84.5215 -50.8301 84.0332 -49.4629 83.1543 -48.1934 L 60.4492 -13.6719 C 59.1797 -11.7676 57.2266 -10.6445 55.0781 -10.6445 Z"/>
  </g>
  <g id="Semibold-M" transform="matrix(1 0 0 1 1983.5 1126)">
   <path d="M 59.7656 15.8203 C 87.7441 15.8203 110.791 -7.27539 110.791 -35.2539 C 110.791 -63.2324 87.6953 -86.2793 59.7656 -86.2793 C 31.7871 -86.2793 8.74023 -63.2324 8.74023 -35.2539 C 8.74023 -7.27539 31.7871 15.8203 59.7656 15.8203 Z M 54.3457 -10.9375 C 52.2949 -10.9375 50.6836 -11.8164 49.2188 -13.623 L 37.5 -27.7344 C 36.5234 -29.0039 36.084 -30.1758 36.084 -31.4941 C 36.084 -34.2773 38.2812 -36.4746 41.0645 -36.4746 C 42.6758 -36.4746 43.9453 -35.8398 45.2148 -34.2773 L 54.1992 -23.0957 L 73.7793 -54.3457 C 74.9512 -56.25 76.4648 -57.1777 78.1738 -57.1777 C 80.9082 -57.1777 83.3496 -55.2246 83.3496 -52.4414 C 83.3496 -51.2695 82.8125 -50 82.0312 -48.8281 L 59.2285 -13.7207 C 58.0566 -11.9141 56.2988 -10.9375 54.3457 -10.9375 Z"/>
  </g>
  <g id="Medium-M" transform="matrix(1 0 0 1 1687.3 1126)">
   <path d="M 59.2285 15.2344 C 86.9141 15.2344 109.766 -7.61719 109.766 -35.2539 C 109.766 -62.8906 86.8652 -85.7422 59.1797 -85.7422 C 31.543 -85.7422 8.74023 -62.8906 8.74023 -35.2539 C 8.74023 -7.61719 31.5918 15.2344 59.2285 15.2344 Z M 53.7598 -11.1328 C 51.9043 -11.1328 50.3906 -11.9141 49.0234 -13.7207 L 37.0605 -28.2227 C 36.1816 -29.3457 35.7422 -30.4688 35.7422 -31.6895 C 35.7422 -34.2285 37.7441 -36.2793 40.2832 -36.2793 C 41.7969 -36.2793 42.9688 -35.7422 44.2383 -34.1309 L 53.6133 -22.2656 L 73.7305 -54.4922 C 74.8047 -56.2012 76.1719 -57.0312 77.7344 -57.0312 C 80.2246 -57.0312 82.4707 -55.3223 82.4707 -52.7344 C 82.4707 -51.6113 81.8848 -50.3906 81.2012 -49.3164 L 58.3008 -13.7207 C 57.2266 -12.0117 55.6152 -11.1328 53.7598 -11.1328 Z"/>
  </g>
  <g id="Regular-M" transform="matrix(1 0 0 1 1391.3 1126)">
   <path d="M 58.5449 14.5508 C 85.791 14.5508 108.35 -8.05664 108.35 -35.2539 C 108.35 -62.5 85.7422 -85.0586 58.4961 -85.0586 C 31.2988 -85.0586 8.74023 -62.5 8.74023 -35.2539 C 8.74023 -8.05664 31.3477 14.5508 58.5449 14.5508 Z M 53.0273 -11.377 C 51.3672 -11.377 50 -12.0605 48.7305 -13.7695 L 36.4746 -28.8086 C 35.7422 -29.7852 35.3027 -30.8594 35.3027 -31.9824 C 35.3027 -34.1797 37.0117 -35.9863 39.209 -35.9863 C 40.625 -35.9863 41.6992 -35.5469 42.9199 -33.9355 L 52.832 -21.1426 L 73.6816 -54.6387 C 74.6094 -56.1035 75.8789 -56.8848 77.1484 -56.8848 C 79.2969 -56.8848 81.2988 -55.4199 81.2988 -53.125 C 81.2988 -52.0508 80.6641 -50.9277 80.0781 -49.9023 L 57.1289 -13.7695 C 56.1035 -12.1582 54.6875 -11.377 53.0273 -11.377 Z"/>
  </g>
  <g id="Light-M" transform="matrix(1 0 0 1 1095.42 1126)">
   <path d="M 57.7148 13.7207 C 84.5215 13.7207 106.689 -8.44727 106.689 -35.2539 C 106.689 -62.1094 84.5215 -84.2285 57.666 -84.2285 C 30.8594 -84.2285 8.74023 -62.1094 8.74023 -35.2539 C 8.74023 -8.44727 30.9082 13.7207 57.7148 13.7207 Z M 52.3438 -11.6211 C 51.0254 -11.6211 50.0488 -12.1582 49.0234 -13.4277 L 35.791 -29.2969 C 35.2051 -30.0781 34.8633 -30.9082 34.8633 -31.7871 C 34.8633 -33.4961 36.1816 -34.8633 37.8906 -34.8633 C 38.9648 -34.8633 39.7949 -34.4727 40.7227 -33.3008 L 52.1484 -19.1895 L 74.6094 -54.7363 C 75.3418 -55.8594 76.3184 -56.4941 77.3438 -56.4941 C 78.9551 -56.4941 80.4688 -55.3223 80.4688 -53.5645 C 80.4688 -52.7832 80.0293 -51.9043 79.5898 -51.1719 L 55.4199 -13.4277 C 54.6387 -12.207 53.6133 -11.6211 52.3438 -11.6211 Z"/>
  </g>
  <g id="Thin-M" transform="matrix(1 0 0 1 799.806 1126)">
   <path d="M 56.6406 12.5977 C 82.9102 12.5977 104.492 -8.98438 104.492 -35.2539 C 104.492 -61.5723 82.9102 -83.1543 56.5918 -83.1543 C 30.3223 -83.1543 8.74023 -61.5723 8.74023 -35.2539 C 8.74023 -8.98438 30.3223 12.5977 56.6406 12.5977 Z M 51.3672 -11.9141 C 50.5859 -11.9141 50.0488 -12.207 49.4629 -12.9395 L 34.8633 -29.9805 C 34.5215 -30.4688 34.2773 -31.0059 34.2773 -31.543 C 34.2773 -32.5684 35.1074 -33.3496 36.084 -33.3496 C 36.7676 -33.3496 37.3047 -33.1055 37.793 -32.4707 L 51.2695 -16.6504 L 75.8301 -54.9316 C 76.2695 -55.5664 76.9043 -55.957 77.5391 -55.957 C 78.4668 -55.957 79.3945 -55.1758 79.3945 -54.1992 C 79.3945 -53.7598 79.1504 -53.2227 78.9062 -52.832 L 53.2227 -12.9395 C 52.7344 -12.3047 52.1484 -11.9141 51.3672 -11.9141 Z"/>
  </g>
  <g id="Ultralight-M" transform="matrix(1 0 0 1 503.656 1126)">
   <path d="M 56.0547 12.0605 C 82.0801 12.0605 103.369 -9.22852 103.369 -35.2539 C 103.369 -61.2793 82.0801 -82.5684 56.0547 -82.5684 C 30.0293 -82.5684 8.74023 -61.2793 8.74023 -35.2539 C 8.74023 -9.22852 30.0293 12.0605 56.0547 12.0605 Z M 50.8789 -12.1094 C 50.3418 -12.1094 50.0488 -12.2559 49.707 -12.6953 L 34.375 -30.3223 C 34.1309 -30.6641 33.9355 -31.0059 33.9355 -31.3965 C 33.9355 -32.1289 34.5703 -32.5684 35.1562 -32.5684 C 35.6445 -32.5684 35.9863 -32.4219 36.2793 -32.0312 L 50.8301 -15.332 L 76.4648 -55.0293 C 76.7578 -55.3711 77.1973 -55.6641 77.6367 -55.6641 C 78.2227 -55.6641 78.8086 -55.0781 78.8086 -54.4922 C 78.8086 -54.248 78.7109 -53.9062 78.5645 -53.6621 L 52.0996 -12.6953 C 51.709 -12.3047 51.3672 -12.1094 50.8789 -12.1094 Z"/>
  </g>
  <g id="Black-S" transform="matrix(1 0 0 1 2884.57 696)">
   <path d="M 48.8281 6.78711 C 71.9727 6.78711 90.8203 -12.0605 90.8203 -35.2051 C 90.8203 -58.3496 71.9727 -77.1973 48.8281 -77.1973 C 25.6836 -77.1973 6.83594 -58.3496 6.83594 -35.2051 C 6.83594 -12.0605 25.6836 6.78711 48.8281 6.78711 Z M 44.6777 -15.4297 C 42.5293 -15.4297 40.8203 -16.5039 39.4043 -18.1152 L 31.1035 -27.6367 C 29.8828 -29.0527 29.4922 -30.127 29.4922 -31.543 C 29.4922 -34.6191 32.0801 -37.0117 35.1074 -37.0117 C 36.8164 -37.0117 38.0859 -36.2793 39.209 -35.0586 L 44.6777 -28.9551 L 57.959 -49.7559 C 59.3262 -51.8555 60.8398 -52.9297 62.8906 -52.9297 C 65.918 -52.9297 68.6035 -50.6348 68.6035 -47.6074 C 68.6035 -46.5332 68.3105 -45.3125 67.4316 -44.0918 L 49.8535 -18.2617 C 48.6328 -16.5527 46.7285 -15.4297 44.6777 -15.4297 Z"/>
  </g>
  <g id="Heavy-S" transform="matrix(1 0 0 1 2588.47 696)">
   <path d="M 48.2422 6.15234 C 70.9961 6.15234 89.5996 -12.4512 89.5996 -35.2051 C 89.5996 -57.959 70.9961 -76.6113 48.1934 -76.6113 C 25.4395 -76.6113 6.83594 -57.959 6.83594 -35.2051 C 6.83594 -12.4512 25.4395 6.15234 48.2422 6.15234 Z M 43.9941 -15.6738 C 42.041 -15.6738 40.4297 -16.6504 39.0625 -18.2129 L 30.5664 -28.1738 C 29.4922 -29.4434 29.1016 -30.5176 29.1016 -31.8359 C 29.1016 -34.668 31.4453 -36.8652 34.2285 -36.8652 C 35.8398 -36.8652 37.0117 -36.2305 38.1348 -34.9121 L 43.9941 -28.0762 L 57.8125 -49.9023 C 59.0332 -51.8066 60.4492 -52.7832 62.3047 -52.7832 C 65.0391 -52.7832 67.5293 -50.7324 67.5293 -47.9492 C 67.5293 -46.875 67.1875 -45.7031 66.3574 -44.5801 L 48.8281 -18.3594 C 47.7051 -16.6992 45.9473 -15.6738 43.9941 -15.6738 Z"/>
  </g>
  <g id="Bold-S" transform="matrix(1 0 0 1 2292.44 696)">
   <path d="M 47.5586 5.46875 C 69.873 5.46875 88.2324 -12.8906 88.2324 -35.2539 C 88.2324 -57.5684 69.873 -75.9277 47.5098 -75.9277 C 25.1953 -75.9277 6.83594 -57.5684 6.83594 -35.2539 C 6.83594 -12.8906 25.1953 5.46875 47.5586 5.46875 Z M 43.2617 -15.918 C 41.4551 -15.918 39.9902 -16.7969 38.7207 -18.3594 L 29.9805 -28.8086 C 29.0527 -29.9316 28.6621 -30.957 28.6621 -32.1777 C 28.6621 -34.668 30.7129 -36.7188 33.252 -36.7188 C 34.7168 -36.7188 35.8398 -36.1328 36.9629 -34.8145 L 43.1641 -27.0508 L 57.6172 -50.0488 C 58.6914 -51.8066 60.0098 -52.6367 61.6211 -52.6367 C 64.1113 -52.6367 66.3574 -50.8789 66.3574 -48.3398 C 66.3574 -47.3145 65.918 -46.1914 65.1855 -45.1172 L 47.7051 -18.4082 C 46.6309 -16.8457 45.0684 -15.918 43.2617 -15.918 Z"/>
  </g>
  <g id="Semibold-S" transform="matrix(1 0 0 1 1996.2 696)">
   <path d="M 47.0703 4.98047 C 69.0918 4.98047 87.3047 -13.1836 87.3047 -35.2539 C 87.3047 -57.2754 69.0918 -75.4883 47.0215 -75.4883 C 25 -75.4883 6.83594 -57.2754 6.83594 -35.2539 C 6.83594 -13.1836 25.0488 4.98047 47.0703 4.98047 Z M 42.7734 -16.1133 C 41.0645 -16.1133 39.6973 -16.8945 38.4277 -18.457 L 29.5898 -29.1992 C 28.7598 -30.2734 28.3691 -31.25 28.3691 -32.373 C 28.3691 -34.7168 30.2246 -36.5723 32.5684 -36.5723 C 33.9355 -36.5723 35.0098 -36.084 36.1328 -34.668 L 42.627 -26.3672 L 57.4707 -50.1465 C 58.4473 -51.7578 59.7168 -52.5391 61.1816 -52.5391 C 63.4277 -52.5391 65.5273 -50.9766 65.5273 -48.584 C 65.5273 -47.5586 65.0391 -46.4844 64.4043 -45.5078 L 46.9238 -18.5059 C 45.8984 -16.9434 44.4336 -16.1133 42.7734 -16.1133 Z"/>
  </g>
  <g id="Medium-S" transform="matrix(1 0 0 1 1699.83 696)">
   <path d="M 46.7285 4.63867 C 68.5547 4.63867 86.6211 -13.4277 86.6211 -35.2539 C 86.6211 -57.0801 68.5059 -75.1465 46.6797 -75.1465 C 24.8535 -75.1465 6.83594 -57.0801 6.83594 -35.2539 C 6.83594 -13.4277 24.9023 4.63867 46.7285 4.63867 Z M 42.3828 -16.2598 C 40.7715 -16.2598 39.4531 -16.9434 38.2324 -18.5059 L 29.2969 -29.541 C 28.5156 -30.4688 28.1738 -31.4941 28.1738 -32.5684 C 28.1738 -34.7168 29.834 -36.5234 32.0312 -36.5234 C 33.3496 -36.5234 34.4238 -36.0352 35.498 -34.6191 L 42.2363 -25.8301 L 57.373 -50.2441 C 58.3008 -51.7578 59.4727 -52.4902 60.8398 -52.4902 C 62.9395 -52.4902 64.8926 -51.0254 64.8926 -48.7793 C 64.8926 -47.8027 64.4043 -46.7285 63.7695 -45.752 L 46.3379 -18.5547 C 45.3613 -17.041 43.9941 -16.2598 42.3828 -16.2598 Z"/>
  </g>
  <g id="Regular-S" transform="matrix(1 0 0 1 1403.58 696)">
   <path d="M 46.2402 4.15039 C 67.7734 4.15039 85.6934 -13.7207 85.6934 -35.2539 C 85.6934 -56.7871 67.7246 -74.6582 46.1914 -74.6582 C 24.707 -74.6582 6.83594 -56.7871 6.83594 -35.2539 C 6.83594 -13.7207 24.7559 4.15039 46.2402 4.15039 Z M 41.8945 -16.4551 C 40.3809 -16.4551 39.1602 -17.041 37.9883 -18.6035 L 28.9062 -29.9805 C 28.2227 -30.8105 27.8809 -31.7871 27.8809 -32.7637 C 27.8809 -34.7656 29.3457 -36.377 31.3965 -36.377 C 32.6172 -36.377 33.5938 -35.9863 34.668 -34.5215 L 41.6992 -25.1465 L 57.2754 -50.3418 C 58.0566 -51.709 59.1797 -52.3926 60.3516 -52.3926 C 62.3047 -52.3926 64.0625 -51.123 64.0625 -49.0234 C 64.0625 -48.0469 63.5254 -47.0215 62.9395 -46.1426 L 45.5566 -18.6035 C 44.6289 -17.1387 43.3594 -16.4551 41.8945 -16.4551 Z"/>
  </g>
  <g id="Light-S" transform="matrix(1 0 0 1 1107.6 696)">
   <path d="M 45.5078 3.41797 C 66.6992 3.41797 84.2285 -14.0625 84.2285 -35.2539 C 84.2285 -56.4453 66.6504 -73.9258 45.5078 -73.9258 C 24.3164 -73.9258 6.83594 -56.4453 6.83594 -35.2539 C 6.83594 -14.0625 24.3652 3.41797 45.5078 3.41797 Z M 41.2598 -16.6504 C 40.0879 -16.6504 39.1602 -17.0898 38.2812 -18.2617 L 28.2715 -30.4199 C 27.7832 -31.0547 27.4414 -31.8359 27.4414 -32.6172 C 27.4414 -34.1309 28.6621 -35.4004 30.1758 -35.4004 C 31.1523 -35.4004 31.8848 -35.0586 32.7148 -33.9844 L 41.1133 -23.4375 L 58.1055 -50.4883 C 58.7402 -51.5137 59.6191 -52.0508 60.498 -52.0508 C 61.9629 -52.0508 63.3301 -51.0254 63.3301 -49.4629 C 63.3301 -48.7305 62.9395 -47.9004 62.5 -47.2168 L 44.043 -18.2617 C 43.3594 -17.1875 42.3828 -16.6504 41.2598 -16.6504 Z"/>
  </g>
  <g id="Thin-S" transform="matrix(1 0 0 1 811.867 696)">
   <path d="M 44.5801 2.49023 C 65.2832 2.49023 82.2754 -14.5508 82.2754 -35.2539 C 82.2754 -55.957 65.2344 -72.998 44.5312 -72.998 C 23.8281 -72.998 6.83594 -55.957 6.83594 -35.2539 C 6.83594 -14.5508 23.877 2.49023 44.5801 2.49023 Z M 40.4297 -16.8945 C 39.6973 -16.8945 39.209 -17.1875 38.6719 -17.8711 L 27.4902 -30.957 C 27.1484 -31.3965 26.9531 -31.8848 26.9531 -32.373 C 26.9531 -33.3496 27.6855 -34.0332 28.6133 -34.0332 C 29.1992 -34.0332 29.6875 -33.8379 30.127 -33.252 L 40.332 -21.1426 L 59.1797 -50.6348 C 59.5703 -51.2207 60.1074 -51.5625 60.6934 -51.5625 C 61.5723 -51.5625 62.4023 -50.8789 62.4023 -49.9512 C 62.4023 -49.5605 62.1582 -49.0723 61.9629 -48.6816 L 42.0898 -17.8711 C 41.6504 -17.2363 41.1133 -16.8945 40.4297 -16.8945 Z"/>
  </g>
  <g id="Ultralight-S" transform="matrix(1 0 0 1 515.644 696)">
   <path d="M 44.043 1.95312 C 64.502 1.95312 81.2988 -14.7949 81.2988 -35.2539 C 81.2988 -55.7129 64.502 -72.4609 44.043 -72.4609 C 23.584 -72.4609 6.83594 -55.7129 6.83594 -35.2539 C 6.83594 -14.7949 23.584 1.95312 44.043 1.95312 Z M 39.9902 -17.041 C 39.502 -17.041 39.209 -17.2363 38.8672 -17.627 L 27.0508 -31.2988 C 26.8066 -31.5918 26.6602 -31.9336 26.6602 -32.2754 C 26.6602 -32.9102 27.1973 -33.3496 27.7832 -33.3496 C 28.2227 -33.3496 28.5156 -33.2031 28.8086 -32.8613 L 39.9414 -19.9707 L 59.7168 -50.7324 C 60.0098 -51.0742 60.4004 -51.3184 60.791 -51.3184 C 61.3281 -51.3184 61.8652 -50.7812 61.8652 -50.2441 C 61.8652 -50 61.7676 -49.6582 61.6211 -49.4141 L 41.1133 -17.627 C 40.7715 -17.2852 40.4297 -17.041 39.9902 -17.041 Z"/>
  </g>
 </g>
</svg>
